<svg width="179" height="56" viewBox="0 0 179 56" fill="none" xmlns="http://www.w3.org/2000/svg">
<g clip-path="url(#clip0_1_168)">
<path d="M93.9948 14.0585C93.9948 16.075 92.3789 17.6987 90.3735 17.6987C88.3681 17.6987 86.7533 16.075 86.7533 14.0585C86.7533 12.042 88.313 10.4182 90.3735 10.4182C92.4357 10.4742 93.9948 12.0985 93.9948 14.0585ZM79.0667 21.396V22.2923C79.0667 22.2923 77.3406 20.0509 73.6642 20.0509C67.5934 20.0509 62.8581 24.7 62.8581 31.1406C62.8581 37.5258 67.5378 42.2302 73.6642 42.2302C77.3962 42.2302 79.0667 39.934 79.0667 39.934V40.8857C79.0667 41.3339 79.4016 41.669 79.8468 41.669H84.3578V20.6093H79.8468C79.4016 20.611 79.0667 21.0038 79.0667 21.396ZM79.0667 34.8933C78.232 36.1259 76.5604 37.1901 74.5556 37.1901C70.991 37.1901 68.2611 34.9498 68.2611 31.1406C68.2611 27.3319 70.991 25.0916 74.5556 25.0916C76.5054 25.0916 78.2876 26.2118 79.0667 27.3879V34.8933ZM87.7004 20.611H93.0472V41.6707H87.7004V20.611ZM167.575 20.0504C163.898 20.0504 162.171 22.2918 162.171 22.2918V10.4742H156.824V41.6707H161.336C161.782 41.6707 162.115 41.2785 162.115 40.8863V39.9345C162.115 39.9345 163.843 42.2308 167.518 42.2308C173.59 42.2308 178.324 37.5275 178.324 31.1422C178.324 24.757 173.59 20.0504 167.575 20.0504ZM166.683 37.1336C164.622 37.1336 163.007 36.0705 162.171 34.8373V27.3319C163.007 26.2118 164.789 25.0357 166.683 25.0357C170.248 25.0357 172.977 27.276 172.977 31.0846C172.977 34.8933 170.248 37.1336 166.683 37.1336ZM154.04 29.1811V41.7267H148.692V29.7966C148.692 26.3248 147.578 24.9238 144.572 24.9238C142.957 24.9238 141.286 25.7642 140.226 26.9968V41.6713H134.88V20.6116H139.112C139.557 20.6116 139.892 21.0038 139.892 21.396V22.2923C141.451 20.6675 143.512 20.0509 145.572 20.0509C147.912 20.0509 149.862 20.724 151.422 22.068C153.315 23.6363 154.04 25.6523 154.04 29.1811ZM121.9 20.0504C118.224 20.0504 116.497 22.2918 116.497 22.2918V10.4742H111.15V41.6707H115.662C116.107 41.6707 116.442 41.2785 116.442 40.8863V39.9345C116.442 39.9345 118.169 42.2308 121.844 42.2308C127.916 42.2308 132.65 37.5275 132.65 31.1422C132.706 24.7565 127.972 20.0504 121.9 20.0504ZM121.008 37.1336C118.948 37.1336 117.333 36.0705 116.497 34.8373V27.3319C117.333 26.2118 119.115 25.0357 121.008 25.0357C124.574 25.0357 127.303 27.276 127.303 31.0846C127.303 34.8933 124.574 37.1336 121.008 37.1336ZM106.527 20.0504C108.142 20.0504 108.978 20.3312 108.978 20.3312V25.3154C108.978 25.3154 104.522 23.803 101.737 26.9962V41.7261H96.3892V20.611H100.901C101.347 20.611 101.68 21.0032 101.68 21.3954V22.2918C102.684 21.1151 104.857 20.0504 106.527 20.0504ZM50.9948 39.7661C50.7166 39.0941 50.4378 38.3662 50.1596 37.7496C49.7133 36.7419 49.2676 35.789 48.8786 34.8933L48.823 34.8373C44.9791 26.4356 40.8581 17.9231 36.5129 9.52246L36.3459 9.18562C35.8889 8.31415 35.4435 7.43657 35.0099 6.5531C34.4524 5.54428 33.8959 4.48119 33.0045 3.47238C31.2222 1.23207 28.6598 -0.000549316 25.931 -0.000549316C23.1455 -0.000549316 20.6393 1.23208 18.8019 3.35992C17.9662 4.36762 17.353 5.43183 16.7965 6.44064C16.3618 7.32356 15.9164 8.20113 15.4605 9.07316L15.293 9.40999C11.004 17.8106 6.82676 26.3237 2.98343 34.7248L2.92724 34.8362C2.53773 35.7337 2.09146 36.6854 1.64575 37.6925C1.36753 38.3091 1.08931 38.9811 0.81109 39.709C0.0866044 41.7809 -0.136539 43.7415 0.142794 45.7585C0.755435 49.9594 3.53986 53.4866 7.38375 55.0561C8.83217 55.6727 10.3362 55.9524 11.8954 55.9524C12.3411 55.9524 12.8975 55.8965 13.3438 55.8399C15.1823 55.6161 17.0758 55.0006 18.9143 53.9364C21.198 52.6479 23.3703 50.8004 25.8209 48.1119C28.2714 50.8004 30.4994 52.6479 32.7274 53.9364C34.5664 55.0006 36.4594 55.6161 38.2974 55.8399C38.7431 55.897 39.3006 55.9524 39.7463 55.9524C41.306 55.9524 42.8652 55.6727 44.2574 55.0561C48.1569 53.4866 50.8857 49.9035 51.4989 45.7585C51.9413 43.7986 51.7187 41.8391 50.9948 39.7661ZM25.8748 42.6784C22.8667 38.8698 20.9169 35.2855 20.2492 32.2618C19.971 30.9733 19.9148 29.8531 20.0823 28.8449C20.193 27.9485 20.528 27.1641 20.9737 26.4921C22.0321 24.9808 23.8143 24.028 25.8754 24.028C27.937 24.028 29.7749 24.9243 30.7776 26.4921C31.2233 27.1641 31.5572 27.9491 31.6696 28.8449C31.836 29.8537 31.7803 31.0292 31.5021 32.2618C30.8316 35.2295 28.8818 38.8144 25.8748 42.6784ZM48.0979 45.3109C47.7084 48.2232 45.7587 50.7444 43.0299 51.8645C41.6933 52.4241 40.2444 52.5925 38.7971 52.4241C37.4048 52.2556 36.0115 51.8075 34.5642 50.9682C32.5588 49.8469 30.554 48.1119 28.2141 45.5347C31.89 40.9987 34.118 36.8533 34.9537 33.1576C35.3438 31.4209 35.4 29.8531 35.2319 28.3961C35.0099 26.9962 34.508 25.7076 33.7284 24.5875C32.0007 22.0663 29.1039 20.611 25.8743 20.611C22.6447 20.611 19.7479 22.1234 18.0212 24.5875C17.2417 25.7076 16.7397 26.9962 16.5172 28.3961C16.2946 29.8531 16.3497 31.4768 16.7954 33.1576C17.6306 36.8533 19.9143 41.0541 23.5345 45.5907C21.2508 48.1673 19.1898 49.904 17.1843 51.0242C15.7359 51.8646 14.3443 52.3127 12.9521 52.48C11.4486 52.6485 9.99959 52.4241 8.71866 51.9205C5.98988 50.8004 4.04011 48.2792 3.6506 45.3669C3.48367 43.967 3.5944 42.567 4.15196 40.9987C4.31833 40.4381 4.59766 39.8786 4.87588 39.2066C5.26595 38.3102 5.71055 37.3574 6.15681 36.4056L6.21302 36.2943C10.0558 27.9485 14.1774 19.4354 18.4664 11.1467L18.6333 10.8099C19.0796 9.97063 19.5253 9.07428 19.9705 8.23389C20.4162 7.33754 20.9169 6.49714 21.5301 5.76865C22.6998 4.4258 24.2589 3.69675 25.9861 3.69675C27.7133 3.69675 29.2725 4.4258 30.4421 5.76865C31.0553 6.49882 31.5561 7.33922 32.0018 8.23389C32.4481 9.07428 32.8938 9.97063 33.3384 10.8099L33.5059 11.1467C37.7295 19.4699 41.7963 27.8726 45.7041 36.3502V36.4062C46.1504 37.3037 46.5399 38.3108 46.9856 39.2083C47.2639 39.8791 47.5426 40.4387 47.7096 40.9993C48.1542 42.454 48.3211 43.8551 48.0979 45.3109Z" fill="#FF5A5F"/>
</g>
<defs>
<clipPath id="clip0_1_168">
<rect width="178.35" height="55.9529" fill="white"/>
</clipPath>
</defs>
</svg>
