<svg width="331" height="56" viewBox="0 0 331 56" fill="none" xmlns="http://www.w3.org/2000/svg">
<g clip-path="url(#clip0_1_169)">
<path d="M129.72 5.69666C129.72 4.37293 130.247 3.10342 131.184 2.16741C132.121 1.23139 133.392 0.705542 134.718 0.705542C136.043 0.705542 137.314 1.23139 138.251 2.16741C139.188 3.10342 139.715 4.37293 139.715 5.69666C139.666 6.98815 139.119 8.21068 138.187 9.10733C137.255 10.004 136.012 10.5049 134.718 10.5049C133.424 10.5049 132.18 10.004 131.248 9.10733C130.316 8.21068 129.769 6.98815 129.72 5.69666Z" fill="#273B7D"/>
<path d="M208.563 38.9835C208.563 36.2134 210.797 33.975 213.55 33.975C214.879 33.975 216.153 34.5023 217.093 35.441C218.033 36.3796 218.561 37.6526 218.561 38.98C218.561 40.3074 218.033 41.5805 217.093 42.5191C216.153 43.4577 214.879 43.985 213.55 43.985C210.801 43.985 208.563 41.7432 208.563 38.98" fill="#499FDD"/>
<path d="M47.7114 36.8181C43.4103 36.8181 40.4176 33.405 40.4176 28.5251C40.4176 23.6487 43.4102 20.239 47.7148 20.239C52.0402 20.239 55.0642 23.6487 55.0642 28.5251C55.0642 33.4814 52.1064 36.8181 47.7114 36.8181ZM47.7114 12.9505C38.6081 12.9505 31.9999 19.5022 31.9999 28.5251C31.9999 37.5515 38.6116 44.0997 47.7114 44.0997C56.8529 44.0997 63.4853 37.5515 63.4853 28.5286C63.4853 19.5022 56.8528 12.9505 47.7148 12.9505H47.7114ZM120.043 29.3071C119.726 28.6951 119.326 28.1301 118.853 27.6284L118.575 27.3399L118.867 27.0618C119.285 26.6204 119.712 26.099 120.123 25.4943L128.161 13.5657H118.404L112.367 22.8979C112.025 23.3984 111.337 23.6487 110.303 23.6487H108.929V6.00599C108.929 2.47815 106.726 1.9985 104.349 1.9985H100.278L100.288 43.6409H108.932V31.1493H109.743C110.728 31.1493 111.396 31.2639 111.705 31.7992L116.473 40.7874C117.805 43.2273 119.131 43.6409 121.63 43.6409H128.252L123.318 35.4939L120.047 29.3071H120.043ZM162.003 12.8809C157.604 12.8809 154.8 14.8343 153.227 16.4852L152.705 17.0135L152.517 16.2941C152.058 14.5249 150.499 13.5552 148.157 13.5552H144.284L144.308 43.6305H152.893V29.7694C152.893 28.4139 153.067 27.2391 153.428 26.1651C154.382 22.9153 157.048 20.8959 160.378 20.8959C163.057 20.8959 164.105 22.3105 164.105 25.96V39.06C164.105 42.1742 165.549 43.6305 168.67 43.6305H172.756L172.742 24.5002C172.742 16.9023 169.029 12.8844 162.003 12.8844V12.8809ZM134.822 13.5657H130.754L130.782 36.8216V43.6409H135.121L135.274 43.6479L137.3 43.6409H139.311V43.6305H139.325L139.342 18.1362C139.342 15.0602 137.87 13.5691 134.825 13.5691L134.822 13.5657ZM81.4273 36.8181C77.1263 36.8181 74.1302 33.405 74.1302 28.5251C74.1302 23.6487 77.1264 20.239 81.431 20.239C85.7459 20.239 88.7804 23.6487 88.7804 28.5251C88.7804 33.4814 85.8225 36.8181 81.431 36.8181H81.4273ZM81.4273 12.9505C72.3171 12.9505 65.7054 19.5022 65.7054 28.5251C65.7054 37.5515 72.3173 44.0997 81.431 44.0997C90.5586 44.0997 97.2049 37.5515 97.2049 28.5286C97.2049 19.5022 90.5586 12.9505 81.431 12.9505" fill="#273B7D"/>
<path d="M265.424 36.8182C261.122 36.8182 258.123 33.405 258.123 28.5251C258.123 23.6487 261.122 20.2391 265.424 20.2391C269.745 20.2391 272.776 23.6487 272.776 28.5251C272.776 33.4815 269.819 36.8182 265.424 36.8182ZM265.424 12.9505C256.313 12.9505 249.705 19.5022 249.705 28.5251C249.705 37.5516 256.313 44.0998 265.424 44.0998C274.555 44.0998 281.198 37.5516 281.198 28.5286C281.198 19.5022 274.551 12.9505 265.424 12.9505Z" fill="#499FDD"/>
<path d="M190.84 35.4939C186.146 35.4939 184.476 31.4065 184.476 27.5728C184.476 25.8836 184.904 20.3815 190.391 20.3815C193.116 20.3815 196.745 21.1601 196.745 27.8543C196.745 34.1697 193.534 35.4939 190.84 35.4939ZM201.203 13.4857C199.575 13.4857 198.322 14.1357 197.692 15.3209L197.455 15.7797L197.059 15.4321C195.674 14.2365 193.189 12.8149 189.156 12.8149C181.128 12.8149 175.724 18.8383 175.724 27.7952C175.724 36.7486 181.316 43.0049 189.316 43.0049C192.048 43.0049 194.209 42.3654 195.921 41.0724L196.582 40.5754V41.4096C196.582 45.4275 193.982 47.645 189.267 47.645C186.974 47.645 184.89 47.0889 183.491 46.5814C181.674 46.0323 180.603 46.4876 179.868 48.3123L179.186 49.9946L178.222 52.4554L178.817 52.7716C181.838 54.3705 185.767 55.3263 189.316 55.3263C196.624 55.3263 205.163 51.5899 205.163 41.0724L205.195 13.4857H201.203Z" fill="#273B7D"/>
<path d="M15.7454 36.4741L8.75789 36.4671V28.1254C8.75789 26.3389 9.45038 25.4144 10.978 25.1989H15.7454C19.1452 25.1989 21.3444 27.3399 21.3479 30.8052C21.3444 34.3643 19.2009 36.4706 15.7454 36.4706V36.4741ZM8.75789 13.9654V11.7687C8.75789 9.84668 9.5722 8.93257 11.3574 8.81439H14.9347C18.0004 8.81439 19.8377 10.6461 19.8377 13.7151C19.8377 16.0508 18.578 18.7792 15.046 18.7792H8.75789V13.9654ZM24.6678 22.2932L23.4044 21.5841L24.5076 20.6422C25.7917 19.5404 27.9388 17.0622 27.9388 12.7871C27.9388 6.23889 22.8582 2.01243 14.9903 2.01243H4.9892C3.86387 2.05341 2.79752 2.52528 2.01104 3.33024C1.22456 4.1352 0.778276 5.21154 0.764725 6.33621V43.4915H15.1677C23.9125 43.4915 29.5568 38.7368 29.5568 31.3717C29.5568 27.4059 27.7335 24.0171 24.6678 22.2932Z" fill="#273B7D"/>
<path d="M319.542 12.9817C317.77 12.9883 316.022 13.3924 314.427 14.1642C312.832 14.9361 311.431 16.0559 310.327 17.4411L309.708 18.2266L309.221 17.3472C307.627 14.452 304.892 12.9817 301.088 12.9817C297.097 12.9817 294.421 15.2062 293.179 16.527L292.364 17.4063L292.051 16.2489C291.599 14.5806 290.113 13.6665 287.865 13.6665H284.256L284.221 43.627H292.417V30.402C292.417 29.2411 292.563 28.0976 292.852 26.8985C293.635 23.7008 295.785 20.2633 299.401 20.6074C301.628 20.8229 302.72 22.5434 302.72 25.8662V43.627H310.975V30.402C310.975 28.9526 311.11 27.8682 311.437 26.7838C312.099 23.7321 314.347 20.604 317.833 20.604C320.36 20.604 321.292 22.029 321.292 25.8662V39.2477C321.292 42.2715 322.643 43.627 325.673 43.627H329.529L329.536 24.5002C329.536 16.8572 326.168 12.9817 319.542 12.9817ZM244.955 33.2243C244.931 33.2555 241.406 36.9676 236.76 36.9676C232.529 36.9676 228.255 34.3747 228.255 28.5877C228.255 23.5896 231.568 20.0965 236.315 20.0965C237.853 20.0965 239.607 20.6457 239.882 21.5737L239.92 21.7301C240.095 22.369 240.477 22.9323 241.005 23.3325C241.534 23.7328 242.18 23.9478 242.843 23.9441L247.332 23.9511V20.0305C247.332 14.8586 240.745 12.9817 236.315 12.9817C226.836 12.9817 219.959 19.5717 219.959 28.6502C219.959 37.7218 226.759 44.3048 236.141 44.3048C244.277 44.3048 248.703 38.9626 248.745 38.9105L248.981 38.6185L245.425 32.7272L244.955 33.2243Z" fill="#499FDD"/>
</g>
<defs>
<clipPath id="clip0_1_169">
<rect width="330.303" height="55.9529" fill="white"/>
</clipPath>
</defs>
</svg>
