<svg width="77" height="141" viewBox="0 0 77 141" fill="none" xmlns="http://www.w3.org/2000/svg">
<path d="M72.9076 120.917C72.7488 116.385 72.6545 114.265 72.5006 106.173C72.5354 104.104 72.5403 101.884 72.4659 99.9069C72.2178 93.2644 71.3642 91.6496 70.8382 89.3559C70.3122 87.0622 69.9847 82.796 69.5927 68.5109C69.503 63.0483 68.7625 57.6116 67.3844 52.2991L45.525 51.5788C42.9396 60.4417 41.4756 80.0206 41.1977 89.2229C41.0538 93.9203 43.3713 117.94 43.1827 119.871C42.9979 121.455 42.1952 122.923 40.9248 124C39.054 125.748 37.734 126.436 35.4165 127.931C35.7143 128.752 40.4435 128.876 41.8131 128.307C43.7964 127.463 45.7177 126.499 47.5645 125.422C49.4651 124.202 49.9316 123.44 50.0457 121.49C50.0457 121.247 50.269 119.656 50.2541 119.555C50.3335 118.417 52.2391 104.815 52.8644 100.953C53.6187 96.4342 52.3681 90.2596 52.3681 90.2596L55.2314 76.1534C55.2314 76.1534 57.4844 85.6631 58.6654 91.4523C59.5289 95.7048 61.8166 102.462 63.2259 109.256C64.9032 116.178 65.0372 116.788 65.9949 121.738C66.4912 124.234 67.5779 132.606 68.1536 134.34C70.0194 139.936 74.8231 137.344 75.2052 134.298C75.4582 132.257 72.9423 121.894 72.9076 120.917Z" fill="#FFBDA7"/>
<path d="M31.6002 131.023C31.4762 131.023 31.367 132.299 32.0618 132.803C32.8657 133.381 35.1831 134.28 38.1407 133.766C41.0983 133.253 42.6565 132.312 43.7929 131.321C44.9293 130.331 46.5222 128.927 47.8571 128.569C49.0928 128.243 51.0876 127.482 51.4698 127.101C51.8519 126.72 51.698 125.115 51.698 125.115L31.6002 131.023Z" fill="#263238"/>
<path d="M50.2444 119.555C50.362 119.605 50.4669 119.678 50.5524 119.768C50.6379 119.858 50.702 119.964 50.7406 120.078C50.8597 120.514 50.8994 121.083 51.1376 121.798C51.5113 123.063 51.6785 124.373 51.6338 125.684C51.5197 126.514 48.84 127.358 47.5647 127.886C46.0653 128.593 44.6915 129.507 43.4905 130.597C42.1507 131.744 39.2725 132.978 37.3322 133.102C34.3547 133.294 32.4094 132.643 31.7594 131.679C30.9505 130.487 31.2631 129.193 34.5582 127.551C35.1884 127.239 37.3768 125.872 38.1262 125.381C38.9143 124.86 39.6561 124.282 40.3444 123.652C40.696 123.332 41.0274 122.993 41.3368 122.638C41.6604 122.318 41.9313 121.957 42.1407 121.564C42.1755 121.477 42.1953 121.376 42.2251 121.289C42.3069 121.042 42.3666 120.788 42.4037 120.532C42.4434 120.266 42.4534 119.876 42.7164 119.706C42.9794 119.537 47.252 120.092 47.5746 120.518C47.794 120.864 47.9136 121.256 47.922 121.656C47.922 121.84 47.9468 122.028 47.9616 122.216C47.9616 122.294 47.9368 122.436 48.0559 122.399C48.175 122.362 48.2743 122.078 48.314 121.982C48.3983 121.766 48.443 121.523 48.5323 121.33C48.6085 121.077 48.7403 120.841 48.9194 120.638C49.4603 120.179 50.0111 120.22 50.165 120.06C50.1947 120.05 50.2344 119.734 50.2444 119.555Z" fill="#37474F"/>
<path d="M34.4191 127.633C38.7265 127.688 40.111 130.844 40.374 132.349C39.4192 132.745 38.4025 132.999 37.3618 133.101C34.3844 133.294 32.3151 132.642 31.665 131.688C30.9157 130.56 31.4417 128.867 34.4191 127.633Z" fill="#FAFAFA"/>
<path d="M40.7411 128.078C40.7893 128.076 40.835 128.058 40.8702 128.027C40.8901 128.009 40.906 127.987 40.9168 127.963C40.9276 127.939 40.9331 127.914 40.9331 127.888C40.9331 127.862 40.9276 127.836 40.9168 127.812C40.906 127.788 40.8901 127.766 40.8702 127.748C40.235 127.096 38.2153 125.729 36.662 125.968C36.6076 125.978 36.5594 126.007 36.5271 126.048C36.4948 126.09 36.481 126.142 36.4884 126.192C36.4926 126.218 36.5022 126.242 36.5168 126.264C36.5314 126.286 36.5506 126.305 36.5733 126.32C36.5959 126.335 36.6216 126.346 36.6488 126.351C36.676 126.357 36.7041 126.358 36.7315 126.353C38.1806 126.137 40.0563 127.495 40.5625 128.014C40.5846 128.037 40.6123 128.055 40.6434 128.066C40.6745 128.077 40.708 128.081 40.7411 128.078Z" fill="#F5F5F5"/>
<path d="M42.5325 126.977C42.5802 126.973 42.6254 126.955 42.6616 126.926C42.7007 126.889 42.7225 126.839 42.7225 126.786C42.7225 126.734 42.7007 126.684 42.6616 126.646C42.0264 125.995 40.0067 124.623 38.4584 124.867C38.4034 124.876 38.3544 124.904 38.3219 124.946C38.2894 124.988 38.2761 125.04 38.2847 125.091C38.2883 125.117 38.2974 125.141 38.3115 125.163C38.3256 125.185 38.3443 125.204 38.3666 125.219C38.3889 125.234 38.4142 125.245 38.4411 125.25C38.468 125.256 38.4958 125.256 38.5229 125.252C39.9719 125.032 41.8477 126.394 42.3539 126.913C42.3757 126.936 42.4034 126.954 42.4345 126.965C42.4657 126.977 42.4994 126.98 42.5325 126.977Z" fill="#F5F5F5"/>
<path d="M44.1751 125.739C44.2235 125.738 44.2697 125.72 44.3041 125.688C44.3418 125.651 44.3628 125.602 44.3628 125.551C44.3628 125.5 44.3418 125.45 44.3041 125.413C43.664 124.762 41.6393 123.39 40.096 123.633C40.0685 123.637 40.042 123.646 40.0183 123.659C39.9946 123.673 39.974 123.691 39.9578 123.712C39.9416 123.733 39.9301 123.756 39.924 123.781C39.9179 123.807 39.9174 123.833 39.9223 123.858C39.9265 123.883 39.9362 123.908 39.9508 123.93C39.9654 123.952 39.9846 123.971 40.0072 123.986C40.0299 124.001 40.0556 124.011 40.0828 124.017C40.1099 124.022 40.1381 124.023 40.1655 124.018C41.6095 123.798 43.4853 125.161 43.9915 125.679C44.015 125.701 44.0439 125.718 44.0757 125.729C44.1076 125.739 44.1416 125.743 44.1751 125.739Z" fill="#F5F5F5"/>
<path d="M45.7829 124.504C45.8303 124.503 45.8758 124.487 45.9119 124.458C45.9511 124.421 45.9729 124.37 45.9729 124.318C45.9729 124.266 45.9511 124.216 45.9119 124.178C45.0286 123.261 42.8948 122.16 41.3465 122.398C41.2979 122.413 41.2564 122.442 41.2295 122.482C41.2027 122.522 41.1922 122.57 41.2 122.617C41.2078 122.663 41.2333 122.706 41.272 122.736C41.3107 122.767 41.3601 122.784 41.411 122.784C42.8055 122.568 44.8152 123.619 45.5943 124.44C45.6174 124.464 45.6467 124.483 45.6797 124.494C45.7127 124.506 45.7482 124.509 45.7829 124.504Z" fill="#F5F5F5"/>
<path d="M67.4833 134.941C67.7562 136.817 68.1681 138.042 68.972 139.097C69.7759 140.152 71.1555 140.404 72.5003 139.987C73.8451 139.569 75.5224 138.578 75.7854 136.927C76.0484 135.276 76.1824 134.142 75.7308 132.418L67.4833 134.941Z" fill="#263238"/>
<path d="M72.9075 120.917C73.4732 120.917 73.5278 123.427 74.0538 125.936C74.6245 128.629 75.1306 129.675 75.617 131.9C76.1777 134.418 75.8204 135.569 74.9917 137.189C74.163 138.808 70.9027 140.542 69.0616 138.455C67.5729 136.753 67.3397 134.785 67.2603 132.221C67.1607 130.085 66.8635 127.961 66.372 125.872C65.97 123.835 65.5234 121.986 65.9948 121.743C66.1173 122.427 66.283 123.104 66.4911 123.771C66.5606 123.908 66.8037 124.229 66.8484 123.711C66.8484 123.55 66.7789 123.193 66.7839 123.032C66.7798 122.894 66.822 122.758 66.9046 122.643C66.9872 122.528 67.1062 122.44 67.2454 122.39C67.9664 122.003 68.7752 121.776 69.6075 121.729C70.7091 121.647 71.6569 121.546 72.2971 121.794C72.6792 121.945 72.6941 122.275 72.7636 122.592C72.833 122.908 72.8678 123.206 72.9621 123.124C73.1556 122.945 72.8727 121.193 72.9075 120.917Z" fill="#37474F"/>
<path d="M75.8947 133.344C76.1056 134.696 75.8448 136.075 75.1503 137.28C74.3216 138.886 70.7933 140.656 68.9523 138.569C68.0342 137.532 67.7067 136.253 67.4635 134.941C68.3468 133.17 74.2025 132.009 75.8947 133.344Z" fill="#FAFAFA"/>
<path d="M68.491 132.088L68.5605 132.065C68.5853 132.065 71.1112 130.863 73.6916 131.234C73.7471 131.241 73.8033 131.228 73.8482 131.197C73.893 131.166 73.9229 131.12 73.9313 131.069C73.9398 131.017 73.9262 130.965 73.8934 130.923C73.8606 130.881 73.8113 130.853 73.7561 130.844C71.9007 130.654 70.0253 130.96 68.3521 131.725C68.3048 131.752 68.2702 131.794 68.2555 131.844C68.2407 131.893 68.2469 131.946 68.2727 131.991C68.2942 132.026 68.3267 132.054 68.3656 132.071C68.4046 132.088 68.4484 132.094 68.491 132.088Z" fill="#F5F5F5"/>
<path d="M73.4136 129.367C73.4628 129.36 73.5075 129.337 73.5399 129.302C73.5722 129.267 73.59 129.223 73.59 129.177C73.59 129.131 73.5722 129.086 73.5399 129.051C73.5075 129.016 73.4628 128.993 73.4136 128.986C70.8233 128.362 68.1138 129.762 68.0145 129.821C67.9907 129.835 67.9701 129.853 67.9538 129.874C67.9376 129.895 67.9262 129.919 67.9202 129.944C67.9141 129.969 67.9137 129.995 67.9188 130.021C67.9239 130.046 67.9345 130.07 67.95 130.092C67.9805 130.134 68.0274 130.164 68.081 130.175C68.1346 130.186 68.1908 130.178 68.2378 130.152C68.2378 130.152 70.8977 128.775 73.3094 129.367H73.4136Z" fill="#F5F5F5"/>
<path d="M73.1805 127.564C73.2199 127.558 73.2564 127.541 73.2855 127.516C73.3146 127.49 73.3351 127.458 73.3442 127.422C73.3518 127.397 73.3541 127.372 73.3509 127.347C73.3478 127.321 73.3393 127.297 73.3259 127.275C73.3125 127.253 73.2946 127.233 73.273 127.218C73.2515 127.202 73.2268 127.19 73.2003 127.183C70.3469 126.449 67.7913 127.945 67.697 128.009C67.6742 128.024 67.6548 128.043 67.64 128.065C67.6251 128.087 67.6151 128.112 67.6105 128.137C67.6059 128.163 67.6068 128.189 67.6131 128.214C67.6194 128.239 67.6311 128.263 67.6474 128.284C67.6636 128.305 67.6841 128.322 67.7076 128.335C67.7311 128.349 67.7572 128.358 67.7845 128.361C67.8117 128.365 67.8395 128.364 67.8662 128.358C67.8929 128.352 67.9181 128.341 67.9402 128.326C67.9402 128.326 70.4214 126.876 73.0862 127.559C73.1168 127.568 73.1491 127.569 73.1805 127.564Z" fill="#F5F5F5"/>
<path d="M72.9024 125.812C72.9487 125.802 72.9901 125.778 73.0198 125.744C73.0495 125.71 73.0656 125.667 73.0656 125.624C73.0656 125.58 73.0495 125.537 73.0198 125.503C72.9901 125.469 72.9487 125.445 72.9024 125.436C70.2227 124.706 67.4438 126.252 67.3644 126.316C67.3189 126.346 67.2878 126.391 67.2776 126.441C67.2674 126.492 67.2789 126.544 67.3098 126.587C67.3249 126.609 67.3445 126.627 67.3674 126.642C67.3904 126.656 67.4163 126.667 67.4436 126.672C67.4709 126.677 67.499 126.677 67.5263 126.672C67.5537 126.667 67.5796 126.657 67.6026 126.642C67.6274 126.642 70.2972 125.133 72.7833 125.807C72.8211 125.822 72.8635 125.824 72.9024 125.812Z" fill="#EBEBEB"/>
<path d="M69.1263 52.377C69.7317 57.9736 69.9401 59.3544 70.3619 71.7954C70.7689 83.8602 70.7738 85.6309 70.8582 87.0851C71.0219 90.4201 72.5553 91.622 72.7191 99.471C72.868 106.678 72.7885 115.554 72.7885 115.554C72.7885 115.554 71.7018 116.853 68.7591 116.999C66.0446 117.137 64.7246 116.142 64.7246 116.142C64.7246 116.142 60.3428 99.2141 59.1022 94.9479C57.42 89.154 55.1323 79.0113 55.1323 79.0113L52.924 90.4798C52.924 90.4798 53.7379 94.3194 53.0927 100.572C52.5965 105.554 50.9242 114.362 50.9242 114.362C49.7896 115.119 48.4123 115.502 47.0138 115.449C43.6493 115.302 42.8354 114.362 42.8354 114.362C42.8354 114.362 40.7016 95.6039 40.6817 88.4751C40.6817 80.938 41.178 62.5702 42.0266 51.5008L69.1263 52.377Z" fill="#455A64"/>
<path d="M55.1221 79.0252L53.3952 66.4924C53.3952 66.4924 49.0183 65.2584 46.289 62.3959C46.423 64.4648 50.2589 67.2402 52.0702 67.7127L54.1097 78.8371L52.9138 90.4753L55.1221 79.0252Z" fill="#37474F"/>
<path d="M61.1963 54.0463C61.8328 55.1019 62.3467 56.2167 62.7297 57.3722C63.1297 58.5212 63.461 59.6897 63.7222 60.8724C63.9703 62.0559 64.1638 63.244 64.2879 64.4459C64.4252 65.6449 64.4633 66.8518 64.402 68.0562C64.139 66.8727 63.9058 65.7029 63.6576 64.5285C63.4095 63.3541 63.1614 62.1843 62.9232 61.0192C62.685 59.854 62.427 58.6888 62.1391 57.5282C61.8513 56.3676 61.5387 55.2115 61.1963 54.0463Z" fill="#37474F"/>
<path d="M62.8685 54.5376C63.4902 55.1149 64.0503 55.7463 64.5408 56.423C65.0416 57.0942 65.4893 57.7979 65.8807 58.5286C66.2759 59.2601 66.6078 60.0194 66.8732 60.7994C67.1478 61.5812 67.3145 62.3919 67.3694 63.2123L66.2777 61.015C65.9055 60.2947 65.5383 59.5791 65.1512 58.8681C64.7641 58.157 64.3771 57.446 63.9949 56.7258C63.6128 56.0055 63.2208 55.2899 62.8685 54.5376Z" fill="#37474F"/>
<path d="M60.1786 68.3868C60.5905 72.1347 60.9478 75.8917 61.3101 79.6442C61.6723 83.3967 62.4961 87.5483 63.0916 91.2595C63.6871 94.9706 66.5653 109.577 67.0169 113.325C66.2328 109.623 62.9229 95.1083 62.2877 91.3696C61.6525 87.6309 60.928 83.4517 60.6798 79.6901C60.4317 75.9284 60.2779 72.153 60.1786 68.3868Z" fill="#37474F"/>
<path d="M45.0831 68.2215L44.6613 78.0614C44.6067 79.7037 44.5323 81.3414 44.4926 82.9791C44.4529 84.6168 44.3884 86.2591 44.4578 87.8738C44.5273 89.4886 45.0236 105.187 44.8697 108.476C44.3735 104.829 43.8425 91.2089 43.644 87.906C43.5745 84.5847 43.7978 81.3139 44.0311 78.0293C44.2643 74.7448 44.6266 71.4786 45.0831 68.2215Z" fill="#37474F"/>
<path d="M51.3359 112.471L50.8843 115.907C50.8843 115.907 49.4551 116.825 46.3734 116.646C43.2918 116.467 42.8055 115.549 42.8055 115.549L42.6715 112.338C42.6715 112.338 43.4357 112.981 46.2543 113.173C47.9831 113.281 49.7167 113.042 51.3359 112.471Z" fill="#37474F"/>
<path d="M72.8034 113.187L72.9473 116.646C72.9473 116.646 71.6968 117.775 68.6201 118.055C65.5434 118.334 64.9132 117.504 64.9132 117.504L64.2284 114.357C64.2284 114.357 65.0918 114.871 67.9055 114.642C69.6326 114.489 71.3035 113.993 72.8034 113.187Z" fill="#37474F"/>
<path d="M25.4517 38.6199C24.9555 38.1611 24.499 36.6611 24.0474 35.4959C23.5958 34.3307 22.9259 33.1425 22.8911 32.2847C22.8514 31.2388 22.8911 30.3809 21.8987 31.2021C20.9062 32.0232 21.1295 33.6884 21.0848 34.5463C21.06 35.0325 21.0451 35.4638 20.4596 35.2481C19.4361 34.7423 18.4899 34.1129 17.6459 33.3765C16.7328 32.6012 16.3556 31.5415 15.7155 31.17C15.0753 30.7984 14.9562 30.9635 14.8768 31.1012C14.9291 32.0089 15.2333 32.8888 15.7602 33.6563C16.4847 34.7389 17.5367 35.3078 17.3878 35.4408C17.2958 35.5039 17.1848 35.5392 17.0702 35.5417C16.7973 35.5417 15.4177 34.3307 14.589 33.5875C13.5965 32.7022 12.8323 31.8214 12.2914 31.6333C11.7505 31.4452 11.1947 31.4957 11.3287 31.8489C11.7765 32.6644 12.3171 33.4333 12.9415 34.1426C13.4824 34.7252 15.4971 36.0555 15.3532 36.2023C15.3016 36.2368 15.2424 36.2604 15.1798 36.2715C15.1172 36.2826 15.0528 36.2809 14.991 36.2665C14.46 36.1243 13.5022 35.3491 12.8522 34.9316C12.0135 34.4362 11.3634 33.9086 10.8672 33.6747C10.1576 33.3306 10.0186 33.8261 10.1228 34.0233C10.6191 34.9408 12.1376 36.2298 13.3137 36.9547C14.3062 37.5602 14.2516 37.9455 14.0531 38.0786C13.8546 38.2116 17.502 38.941 17.502 38.941L25.4517 38.6199Z" fill="#F0997A"/>
<path d="M9.69101 35.9316C10.6091 35.8811 12.8024 37.7252 14.3557 37.8858C16.0826 37.8858 19.3181 37.2206 21.3328 36.583C22.7719 36.1243 23.814 36.3444 25.6799 37.3353C27.5458 38.3262 35.441 40.6979 35.441 40.6979C35.441 40.6979 40.6763 31.6561 41.8226 29.8212C42.969 27.9862 45.1425 25.3714 47.2813 25.0366L46.6362 36.4545C45.0654 39.9015 43.1846 43.2206 41.0138 46.377C38.2249 50.5057 35.6296 48.6707 32.2601 47.1752C29.5905 45.9858 27.0019 44.6469 24.5088 43.1659C22.2757 41.8952 20.7026 41.175 18.405 40.8722C16.6938 40.6025 15.0104 40.1989 13.3731 39.6657C12.4154 39.2804 11.3882 38.4592 10.227 37.5739C9.58681 37.0738 9.0608 36.7435 8.92681 36.3857C8.85734 36.1609 9.28906 35.9545 9.69101 35.9316Z" fill="#FFBDA7"/>
<path d="M47.4797 24.9082C44.6164 25.4083 42.8696 26.9588 41.227 29.7754C39.5845 32.5921 35.3416 40.1842 35.3416 40.1842L26.8112 37.8355C26.8112 37.8355 26.1463 38.2437 25.0545 40.331C24.5824 41.3837 24.2911 42.4981 24.1911 43.6339C24.1911 43.6339 26.5681 44.8771 30.5231 46.8451C32.91 48.047 36.478 49.4369 37.669 49.3085C38.86 49.1801 39.4158 48.9002 40.7854 47.2855C42.155 45.6707 46.9785 37.574 46.9785 37.574L47.4797 24.9082Z" fill="#EBEBEB"/>
<path d="M28.9552 39.1108C28.5795 39.4122 28.246 39.7558 27.9627 40.1338C27.7023 40.4837 27.4716 40.8518 27.273 41.2348C27.0756 41.6157 26.9098 42.0098 26.7767 42.4137C26.5995 42.8149 26.5199 43.2471 26.5435 43.6799C26.5435 43.7578 26.7271 43.8817 26.7916 43.7762C26.9472 43.3938 27.0651 42.9992 27.1439 42.5972C27.2713 42.2072 27.4271 41.8255 27.6104 41.455C28.0294 40.6888 28.528 39.9621 29.0991 39.2851C29.1438 39.2118 29.0495 39.0374 28.9552 39.1108Z" fill="#E0E0E0"/>
<path d="M32.1064 28.4449C32.1064 26.3072 30.5929 24.1741 27.5361 22.5409C21.4273 19.2793 11.5224 19.2793 5.41362 22.5409C2.21287 24.252 0.694363 26.5182 0.848198 28.7568C0.694363 30.9955 2.21287 33.2571 5.41362 34.9682C11.5224 38.2298 21.4273 38.2298 27.5361 34.9682C30.5929 33.3396 32.1114 31.9313 32.1064 29.7936V29.0642V28.4449Z" fill="#37474F"/>
<path d="M16.4648 36.8077C25.1034 36.8077 32.1063 33.0697 32.1063 28.4586C32.1063 23.8476 25.1034 20.1096 16.4648 20.1096C7.82622 20.1096 0.823273 23.8476 0.823273 28.4586C0.823273 33.0697 7.82622 36.8077 16.4648 36.8077Z" fill="#455A64"/>
<path d="M16.4649 36.1425C12.7332 36.1425 9.0213 35.4039 6.15799 33.9268C3.36911 32.4726 1.83076 30.5321 1.83076 28.4586C1.83076 26.3851 3.36911 24.4447 6.15799 22.995C11.84 20.0362 21.0899 20.0362 26.7719 22.995C29.5607 24.4447 31.0991 26.3851 31.0991 28.4586C31.0991 30.5321 29.5607 32.4726 26.7719 33.9268C23.983 35.381 20.1966 36.1425 16.4649 36.1425ZM6.37634 33.6102C11.9541 36.5095 21.0254 36.5095 26.6031 33.6102C29.268 32.234 30.7319 30.3991 30.7319 28.4586C30.7319 26.5181 29.268 24.6924 26.6031 23.307C21.0254 20.4078 11.9541 20.4078 6.37634 23.307C3.71152 24.6832 2.24761 26.5181 2.24761 28.4586C2.24761 30.3991 3.71152 32.2248 6.37634 33.6102Z" fill="#37474F"/>
<path d="M12.3611 26.8442C14.4254 27.9452 14.4254 29.7343 12.3611 30.8398C11.2013 31.3828 9.91947 31.6657 8.61942 31.6657C7.31937 31.6657 6.03759 31.3828 4.87777 30.8398C2.81341 29.7343 2.81341 27.9452 4.87777 26.8442C6.03759 26.3013 7.31937 26.0184 8.61942 26.0184C9.91947 26.0184 11.2013 26.3013 12.3611 26.8442Z" fill="#37474F"/>
<path d="M17.4722 27.8671C19.2208 27.8671 20.6383 27.1112 20.6383 26.1789C20.6383 25.2466 19.2208 24.4908 17.4722 24.4908C15.7237 24.4908 14.3062 25.2466 14.3062 26.1789C14.3062 27.1112 15.7237 27.8671 17.4722 27.8671Z" fill="#37474F"/>
<path d="M27.8487 27.6143C29.0844 28.2748 29.0844 29.3437 27.8487 30.0043C27.1561 30.3269 26.3912 30.495 25.6156 30.495C24.84 30.495 24.0752 30.3269 23.3825 30.0043C22.1469 29.3437 22.1469 28.2748 23.3825 27.6143C24.0752 27.2916 24.84 27.1235 25.6156 27.1235C26.3912 27.1235 27.1561 27.2916 27.8487 27.6143Z" fill="#37474F"/>
<path d="M19.5814 34.3122C21.3299 34.3122 22.7474 33.5564 22.7474 32.6241C22.7474 31.6917 21.3299 30.9359 19.5814 30.9359C17.8328 30.9359 16.4153 31.6917 16.4153 32.6241C16.4153 33.5564 17.8328 34.3122 19.5814 34.3122Z" fill="#37474F"/>
<path d="M7.36887 7.10862V3.46165L8.64422 3.51212L9.92451 3.46165V7.10862C9.915 8.56485 10.4876 9.97304 11.5323 11.0629C12.4 12.0205 12.8527 13.2415 12.8027 14.4897V28.3986C12.8027 29.229 11.9244 30.0684 10.1925 30.463C9.17521 30.6923 8.11322 30.6923 7.09594 30.463C5.36406 30.0684 4.49564 29.229 4.48571 28.3986V14.4897C4.43578 13.2415 4.88843 12.0205 5.75609 11.0629C6.80225 9.97349 7.37655 8.56538 7.36887 7.10862Z" fill="#407BFF"/>
<path opacity="0.5" d="M7.36887 7.10862V3.46165L8.64422 3.51212L9.92451 3.46165V7.10862C9.915 8.56485 10.4876 9.97304 11.5323 11.0629C12.4 12.0205 12.8527 13.2415 12.8027 14.4897V28.3986C12.8027 29.229 11.9244 30.0684 10.1925 30.463C9.17521 30.6923 8.11322 30.6923 7.09594 30.463C5.36406 30.0684 4.49564 29.229 4.48571 28.3986V14.4897C4.43578 13.2415 4.88843 12.0205 5.75609 11.0629C6.80225 9.97349 7.37655 8.56538 7.36887 7.10862Z" fill="black"/>
<path opacity="0.2" d="M12.331 13.6504C12.2599 13.3892 12.1274 13.1458 11.943 12.9372C11.7586 12.7287 11.5268 12.5603 11.2641 12.4439C10.4519 12.0638 9.55434 11.8657 8.64398 11.8657C7.73362 11.8657 6.83604 12.0638 6.02383 12.4439C5.75138 12.5621 5.51233 12.7372 5.32547 12.9553C5.13862 13.1734 5.00905 13.4286 4.94698 13.7008C5.04172 12.818 5.42809 11.9836 6.0536 11.3108C7.16921 10.1551 7.78105 8.65771 7.77059 7.10878V3.84715L8.64398 3.88385L9.52232 3.84715V7.10878C9.51002 8.65718 10.1201 10.1546 11.2344 11.3108C11.8478 11.97 12.2302 12.7859 12.331 13.6504Z" fill="#407BFF"/>
<path d="M12.3758 14.4944V28.3987C12.3758 29.1189 11.4627 29.7749 10.0683 30.1006C9.11612 30.3146 8.12237 30.3146 7.17022 30.1006C5.77578 29.7841 4.86766 29.1189 4.8627 28.3987V14.4898C4.86685 14.226 4.88673 13.9625 4.92225 13.7007C4.98432 13.4285 5.11387 13.1733 5.30073 12.9552C5.48758 12.7371 5.72664 12.562 5.99908 12.4438C6.81129 12.0637 7.70888 11.8656 8.61924 11.8656C9.5296 11.8656 10.4272 12.0637 11.2394 12.4438C11.5021 12.5602 11.7339 12.7286 11.9183 12.9371C12.1027 13.1457 12.2352 13.3891 12.3063 13.6503V13.7329C12.3455 13.9852 12.3687 14.2395 12.3758 14.4944Z" fill="#407BFF"/>
<path opacity="0.3" d="M12.3758 14.4944V28.3987C12.3758 29.1189 11.4627 29.7749 10.0683 30.1006C9.11612 30.3146 8.12237 30.3146 7.17022 30.1006C5.77578 29.7841 4.86766 29.1189 4.8627 28.3987V14.4898C4.86685 14.226 4.88673 13.9625 4.92225 13.7007C4.98432 13.4285 5.11387 13.1733 5.30073 12.9552C5.48758 12.7371 5.72664 12.562 5.99908 12.4438C6.81129 12.0637 7.70888 11.8656 8.61924 11.8656C9.5296 11.8656 10.4272 12.0637 11.2394 12.4438C11.5021 12.5602 11.7339 12.7286 11.9183 12.9371C12.1027 13.1457 12.2352 13.3891 12.3063 13.6503V13.7329C12.3455 13.9852 12.3687 14.2395 12.3758 14.4944Z" fill="black"/>
<path opacity="0.2" d="M11.2393 15.2421C10.4271 15.6222 9.52951 15.8203 8.61915 15.8203C7.70879 15.8203 6.81121 15.6222 5.999 15.2421C5.20998 14.8201 4.84773 14.2512 4.92217 13.7007C4.98424 13.4285 5.11379 13.1733 5.30065 12.9552C5.4875 12.7371 5.72656 12.562 5.999 12.4438C6.81121 12.0637 7.70879 11.8656 8.61915 11.8656C9.52951 11.8656 10.4271 12.0637 11.2393 12.4438C11.502 12.5602 11.7338 12.7286 11.9182 12.9371C12.1026 13.1457 12.2351 13.3891 12.3062 13.6503V13.7329C12.3707 14.2833 12.0085 14.8292 11.2393 15.2421Z" fill="#407BFF"/>
<path opacity="0.2" d="M11.1849 29.5088C10.3892 29.8798 9.51045 30.073 8.61929 30.073C7.72813 30.073 6.8494 29.8798 6.05373 29.5088C5.27959 29.0913 4.92726 28.5408 5.0017 27.9995C5.06177 27.7332 5.18811 27.4834 5.37072 27.27C5.55332 27.0566 5.78716 26.8855 6.05373 26.7701C6.84871 26.397 7.72771 26.2025 8.61929 26.2025C9.51087 26.2025 10.3899 26.397 11.1849 26.7701C11.4428 26.8829 11.6705 27.0471 11.8515 27.2509C12.0326 27.4548 12.1625 27.6932 12.2319 27.9491C12.2344 27.9765 12.2344 28.0041 12.2319 28.0316C12.2915 28.5729 11.9391 29.1051 11.1849 29.5088Z" fill="#407BFF"/>
<path opacity="0.2" d="M8.80311 30.6006C7.05138 30.6006 5.82566 29.4216 5.82566 28.5592V17.6C5.82566 14.3567 5.7661 13.4163 7.15062 11.2051C8.36641 9.2601 8.33664 8.45272 8.30687 3.49835L7.34911 3.46165V7.10862C7.35679 8.56538 6.78249 9.97349 5.73633 11.0629C4.86867 12.0205 4.41602 13.2415 4.46595 14.4897V28.3986C4.46595 29.229 5.3443 30.0684 7.07618 30.463C7.64282 30.5901 8.22519 30.6471 8.80806 30.6327L8.80311 30.6006Z" fill="black"/>
<path opacity="0.3" d="M9.22471 7.5171V3.48938H8.80292V7.82904C8.85701 8.9812 9.19656 10.1065 9.7954 11.1182C10.3413 12.0036 11.0955 12.7192 11.0955 15.2468V30.1879C11.3867 30.0779 11.6618 29.9346 11.9143 29.7613V14.7055C11.9143 13.522 11.3238 12.2375 10.371 10.9714C9.59461 9.96498 9.19237 8.75287 9.22471 7.5171Z" fill="#407BFF"/>
<path d="M7.25485 3.00311C7.25485 3.00311 7.25485 3.00311 7.25485 2.97099C7.25979 2.85551 7.29959 2.74361 7.36975 2.64795C7.43991 2.55229 7.53763 2.47668 7.65185 2.42968C7.95098 2.28944 8.28165 2.21635 8.61705 2.21635C8.95244 2.21635 9.2831 2.28944 9.58223 2.42968C9.73503 2.50255 9.85725 2.62037 9.9296 2.76456C9.93897 2.77613 9.94727 2.7884 9.95441 2.80126C9.95206 2.80875 9.95206 2.81671 9.95441 2.8242C9.95905 2.85155 9.95905 2.87941 9.95441 2.90677V4.81512C9.94451 4.92647 9.90245 5.03332 9.83262 5.1245C9.76278 5.21569 9.66774 5.28787 9.55742 5.33349C9.2583 5.47374 8.92762 5.54682 8.59223 5.54682C8.25683 5.54682 7.92616 5.47374 7.62703 5.33349C7.53019 5.2878 7.44535 5.22305 7.37847 5.1438C7.3116 5.06455 7.26433 4.97271 7.23997 4.87476C7.23786 4.86106 7.23786 4.84716 7.23997 4.83347L7.25485 3.00311Z" fill="#37474F"/>
<path d="M9.81015 5.17251C9.50168 5.37361 9.12209 5.45887 8.74819 5.41106C8.42067 5.3606 8.10308 5.21839 8.10308 4.84681V2.26871C7.94678 2.30255 7.79642 2.3566 7.65645 2.42926C7.54223 2.47626 7.44452 2.55187 7.37436 2.64753C7.30421 2.74319 7.26441 2.85509 7.25947 2.97058C7.25947 2.97058 7.25947 2.97058 7.25947 3.00269V4.83764C7.25736 4.85133 7.25736 4.86523 7.25947 4.87892C7.28383 4.97688 7.3311 5.06872 7.39797 5.14797C7.46485 5.22722 7.54969 5.29197 7.64653 5.33766C7.94566 5.4779 8.27633 5.55099 8.61173 5.55099C8.94712 5.55099 9.2778 5.4779 9.57692 5.33766C9.66168 5.29164 9.74001 5.23618 9.81015 5.17251Z" fill="#263238"/>
<path d="M8.61942 3.67258C9.37311 3.67258 9.98409 3.34602 9.98409 2.94319C9.98409 2.54035 9.37311 2.21379 8.61942 2.21379C7.86574 2.21379 7.25476 2.54035 7.25476 2.94319C7.25476 3.34602 7.86574 3.67258 8.61942 3.67258Z" fill="#455A64"/>
<path d="M10.1677 18.4077C9.15043 18.637 8.08843 18.637 7.07116 18.4077C5.33927 18.0178 4.47086 17.1737 4.46094 16.348V23.3621C4.46094 24.1924 5.33927 25.0319 7.07116 25.4264C8.08843 25.6557 9.15043 25.6557 10.1677 25.4264C11.8996 25.0319 12.768 24.1924 12.7779 23.3621V16.348C12.768 17.1737 11.8996 18.0178 10.1677 18.4077Z" fill="white"/>
<path d="M5.82063 24.9998V17.9857C4.92244 17.5269 4.4659 16.9443 4.46094 16.348V23.3621C4.4659 23.9584 4.92244 24.564 5.82063 24.9998Z" fill="#E0E0E0"/>
<path d="M10.4949 18.8846C10.4949 19.9397 9.72081 20.7975 8.7581 20.7975C7.79539 20.7975 7.02126 19.9397 7.02126 18.8846C7.02126 17.8295 7.80035 16.9716 8.7581 16.9716C9.71585 16.9716 10.4949 17.8249 10.4949 18.8846Z" fill="#407BFF"/>
<path d="M8.63436 20.426C8.43155 20.4026 8.23767 20.335 8.06866 20.2287C7.90183 20.1195 7.76014 19.9807 7.65182 19.8205C7.43391 19.497 7.3331 19.1178 7.36399 18.7378C7.38769 18.3523 7.54815 17.9847 7.82054 17.6919C7.66974 17.8225 7.54684 17.9781 7.45828 18.1506C7.37476 18.3302 7.32121 18.5205 7.29947 18.7149C7.26096 19.1099 7.36195 19.5059 7.5873 19.8434C7.70139 20.0108 7.85176 20.1545 8.02895 20.2654C8.20773 20.378 8.41417 20.4474 8.62941 20.4673C8.86153 20.4877 9.09522 20.448 9.30429 20.3526C9.46602 20.2698 9.60918 20.1593 9.7261 20.0269C9.59762 20.1468 9.44833 20.2461 9.28444 20.3205C9.08326 20.4128 8.85753 20.4494 8.63436 20.426ZM10.2223 18.7287C10.2181 18.6317 10.2065 18.5351 10.1876 18.4397C10.1542 18.2461 10.0836 18.0597 9.97919 17.8892C9.86959 17.7213 9.72029 17.5786 9.5425 17.4717C9.362 17.3653 9.15561 17.3022 8.94205 17.2882C8.8382 17.2768 8.73326 17.2768 8.62941 17.2882C8.52406 17.3013 8.42078 17.3259 8.32175 17.3616C8.13009 17.4334 7.9599 17.5466 7.8255 17.6919C7.9699 17.5581 8.14582 17.457 8.33952 17.3965C8.53323 17.336 8.73946 17.3178 8.94205 17.3433C9.14308 17.3646 9.33637 17.4273 9.50775 17.5268C9.67615 17.6295 9.81564 17.7679 9.91468 17.9305C10.1086 18.2633 10.1948 18.6408 10.1628 19.0177C10.1514 19.2063 10.1079 19.3921 10.0338 19.5681C9.96207 19.736 9.85968 19.8911 9.73107 20.0269C10.0226 19.7493 10.1984 19.3853 10.2273 18.9993C10.2322 18.9091 10.2305 18.8187 10.2223 18.7287Z" fill="#407BFF"/>
<path opacity="0.3" d="M8.63436 20.426C8.43155 20.4026 8.23767 20.335 8.06866 20.2287C7.90183 20.1195 7.76014 19.9807 7.65182 19.8205C7.43391 19.497 7.3331 19.1178 7.36399 18.7378C7.38769 18.3523 7.54815 17.9847 7.82054 17.6919C7.66974 17.8225 7.54684 17.9781 7.45828 18.1506C7.37476 18.3302 7.32121 18.5205 7.29947 18.7149C7.26096 19.1099 7.36195 19.5059 7.5873 19.8434C7.70139 20.0108 7.85176 20.1545 8.02895 20.2654C8.20773 20.378 8.41417 20.4474 8.62941 20.4673C8.86153 20.4877 9.09522 20.448 9.30429 20.3526C9.46602 20.2698 9.60918 20.1593 9.7261 20.0269C9.59762 20.1468 9.44833 20.2461 9.28444 20.3205C9.08326 20.4128 8.85753 20.4494 8.63436 20.426ZM10.2223 18.7287C10.2181 18.6317 10.2065 18.5351 10.1876 18.4397C10.1542 18.2461 10.0836 18.0597 9.97919 17.8892C9.86959 17.7213 9.72029 17.5786 9.5425 17.4717C9.362 17.3653 9.15561 17.3022 8.94205 17.2882C8.8382 17.2768 8.73326 17.2768 8.62941 17.2882C8.52406 17.3013 8.42078 17.3259 8.32175 17.3616C8.13009 17.4334 7.9599 17.5466 7.8255 17.6919C7.9699 17.5581 8.14582 17.457 8.33952 17.3965C8.53323 17.336 8.73946 17.3178 8.94205 17.3433C9.14308 17.3646 9.33637 17.4273 9.50775 17.5268C9.67615 17.6295 9.81564 17.7679 9.91468 17.9305C10.1086 18.2633 10.1948 18.6408 10.1628 19.0177C10.1514 19.2063 10.1079 19.3921 10.0338 19.5681C9.96207 19.736 9.85968 19.8911 9.73107 20.0269C10.0226 19.7493 10.1984 19.3853 10.2273 18.9993C10.2322 18.9091 10.2305 18.8187 10.2223 18.7287Z" fill="black"/>
<path d="M19.0999 25.0822C18.5958 24.8446 18.038 24.7207 17.4722 24.7207C16.9064 24.7207 16.3486 24.8446 15.8445 25.0822C15.6587 25.1582 15.4983 25.2785 15.3796 25.431C15.261 25.5834 15.1885 25.7623 15.1696 25.9492V26.1511C15.1882 26.3387 15.2604 26.5184 15.3791 26.6716C15.4977 26.8248 15.6584 26.946 15.8445 27.0227C16.3494 27.2578 16.9069 27.3803 17.4722 27.3803C18.0375 27.3803 18.595 27.2578 19.0999 27.0227C19.2844 26.9452 19.4438 26.8244 19.5622 26.6723C19.6806 26.5202 19.7539 26.3421 19.7748 26.1557V25.9309C19.7516 25.7475 19.6772 25.5728 19.5588 25.424C19.4405 25.2752 19.2823 25.1574 19.0999 25.0822Z" fill="#407BFF"/>
<path opacity="0.3" d="M19.0999 25.0822C18.5958 24.8446 18.038 24.7207 17.4722 24.7207C16.9064 24.7207 16.3486 24.8446 15.8445 25.0822C15.6587 25.1582 15.4983 25.2785 15.3796 25.431C15.261 25.5834 15.1885 25.7623 15.1696 25.9492V26.1511C15.1882 26.3387 15.2604 26.5184 15.3791 26.6716C15.4977 26.8248 15.6584 26.946 15.8445 27.0227C16.3494 27.2578 16.9069 27.3803 17.4722 27.3803C18.0375 27.3803 18.595 27.2578 19.0999 27.0227C19.2844 26.9452 19.4438 26.8244 19.5622 26.6723C19.6806 26.5202 19.7539 26.3421 19.7748 26.1557V25.9309C19.7516 25.7475 19.6772 25.5728 19.5588 25.424C19.4405 25.2752 19.2823 25.1574 19.0999 25.0822Z" fill="white"/>
<path d="M15.8446 26.8208C14.9464 26.3392 14.9464 25.5639 15.8446 25.0822C16.3487 24.8446 16.9064 24.7207 17.4723 24.7207C18.0381 24.7207 18.5959 24.8446 19.0999 25.0822C19.9981 25.5639 19.9981 26.3392 19.0999 26.8208C18.5951 27.056 18.0376 27.1785 17.4723 27.1785C16.9069 27.1785 16.3495 27.056 15.8446 26.8208Z" fill="#407BFF"/>
<path opacity="0.55" d="M15.8446 26.8208C14.9464 26.3392 14.9464 25.5639 15.8446 25.0822C16.3487 24.8446 16.9064 24.7207 17.4723 24.7207C18.0381 24.7207 18.5959 24.8446 19.0999 25.0822C19.9981 25.5639 19.9981 26.3392 19.0999 26.8208C18.5951 27.056 18.0376 27.1785 17.4723 27.1785C16.9069 27.1785 16.3495 27.056 15.8446 26.8208Z" fill="white"/>
<path opacity="0.3" d="M16.7974 25.3531C16.2367 25.4678 16.0878 25.8119 16.3856 26.1054C16.6725 26.2963 17.0202 26.3932 17.3735 26.3807C17.7267 26.3682 18.0654 26.2472 18.3358 26.0366L16.7974 25.3531Z" fill="#407BFF"/>
<path opacity="0.3" d="M18.4697 25.0226C19.1 25.1693 19.7203 26.2153 18.5342 26.6878C17.6712 26.9452 16.7424 26.9452 15.8793 26.6878C16.2931 26.8859 16.7458 27.0051 17.2104 27.0382C17.6751 27.0713 18.1421 27.0177 18.5839 26.8804C20.2165 26.3804 19.5962 25.1097 18.4697 25.0226Z" fill="white"/>
<path d="M19.9487 10.6504H14.9863C14.9863 10.6504 14.4901 14.8158 14.5397 16.7792C14.5399 17.2582 14.6778 17.7286 14.9394 18.1421C15.201 18.5556 15.5769 18.8974 16.0284 19.1325C16.3571 19.3014 16.6313 19.548 16.8231 19.847C17.0149 20.146 17.1174 20.4868 17.1201 20.8344V24.9218C17.1197 24.9937 17.0994 25.0643 17.0612 25.1269C17.023 25.1895 16.9681 25.2421 16.9018 25.2796C16.7584 25.3631 16.6378 25.4762 16.5495 25.6099V25.6374C16.4502 25.8117 16.5494 26.0135 16.7926 26.1558C17.0074 26.2554 17.2445 26.3073 17.4849 26.3073C17.7252 26.3073 17.9623 26.2554 18.1771 26.1558C18.4401 26.0135 18.5245 25.8117 18.4252 25.6374L18.3955 25.5869C18.3076 25.4637 18.1926 25.359 18.058 25.2796C17.9917 25.2421 17.9368 25.1895 17.8986 25.1269C17.8604 25.0643 17.8401 24.9937 17.8397 24.9218V20.8344C17.8424 20.4868 17.9449 20.146 18.1367 19.847C18.3285 19.548 18.6027 19.3014 18.9314 19.1325C19.3823 18.8967 19.7575 18.5547 20.019 18.1414C20.2805 17.728 20.4189 17.258 20.4201 16.7792C20.4499 14.8158 19.9487 10.6504 19.9487 10.6504Z" fill="#407BFF"/>
<path opacity="0.5" d="M19.9487 10.6504H14.9863C14.9863 10.6504 14.4901 14.8158 14.5397 16.7792C14.5399 17.2582 14.6778 17.7286 14.9394 18.1421C15.201 18.5556 15.5769 18.8974 16.0284 19.1325C16.3571 19.3014 16.6313 19.548 16.8231 19.847C17.0149 20.146 17.1174 20.4868 17.1201 20.8344V24.9218C17.1197 24.9937 17.0994 25.0643 17.0612 25.1269C17.023 25.1895 16.9681 25.2421 16.9018 25.2796C16.7584 25.3631 16.6378 25.4762 16.5495 25.6099V25.6374C16.4502 25.8117 16.5494 26.0135 16.7926 26.1558C17.0074 26.2554 17.2445 26.3073 17.4849 26.3073C17.7252 26.3073 17.9623 26.2554 18.1771 26.1558C18.4401 26.0135 18.5245 25.8117 18.4252 25.6374L18.3955 25.5869C18.3076 25.4637 18.1926 25.359 18.058 25.2796C17.9917 25.2421 17.9368 25.1895 17.8986 25.1269C17.8604 25.0643 17.8401 24.9937 17.8397 24.9218V20.8344C17.8424 20.4868 17.9449 20.146 18.1367 19.847C18.3285 19.548 18.6027 19.3014 18.9314 19.1325C19.3823 18.8967 19.7575 18.5547 20.019 18.1414C20.2805 17.728 20.4189 17.258 20.4201 16.7792C20.4499 14.8158 19.9487 10.6504 19.9487 10.6504Z" fill="white"/>
<path opacity="0.2" d="M16.5495 19.2054C15.9388 19.0067 15.3971 18.6597 14.9814 18.2008C15.2438 18.5813 15.6034 18.8964 16.0285 19.1182C16.3572 19.2872 16.6314 19.5337 16.8232 19.8328C17.015 20.1318 17.1175 20.4725 17.1202 20.8202C17.1202 19.8797 17.0904 19.4577 16.5495 19.2054Z" fill="#407BFF"/>
<path d="M17.4725 19.0911C17.1205 19.0948 16.7713 19.0343 16.4447 18.9131C16.1181 18.792 15.8205 18.6126 15.5689 18.3851C15.3173 18.1576 15.1166 17.8865 14.9783 17.5874C14.84 17.2882 14.7669 16.9668 14.763 16.6415C14.7183 14.9854 15.0955 11.655 15.1898 10.8568H19.775C19.8693 11.655 20.2713 14.9854 20.2018 16.6415C20.1979 16.9683 20.1241 17.2913 19.9846 17.5917C19.8451 17.8921 19.6426 18.1639 19.3889 18.3917C19.1352 18.6194 18.8352 18.7984 18.5063 18.9185C18.1774 19.0385 17.826 19.0972 17.4725 19.0911Z" fill="#407BFF"/>
<path opacity="0.3" d="M17.4725 19.0911C17.1205 19.0948 16.7713 19.0343 16.4447 18.9131C16.1181 18.792 15.8205 18.6126 15.5689 18.3851C15.3173 18.1576 15.1166 17.8865 14.9783 17.5874C14.84 17.2882 14.7669 16.9668 14.763 16.6415C14.7183 14.9854 15.0955 11.655 15.1898 10.8568H19.775C19.8693 11.655 20.2713 14.9854 20.2018 16.6415C20.1979 16.9683 20.1241 17.2913 19.9846 17.5917C19.8451 17.8921 19.6426 18.1639 19.3889 18.3917C19.1352 18.6194 18.8352 18.7984 18.5063 18.9185C18.1774 19.0385 17.826 19.0972 17.4725 19.0911Z" fill="white"/>
<path d="M20.0927 16.6365C20.0927 17.2789 19.8166 17.895 19.3252 18.3492C18.8339 18.8035 18.1674 19.0587 17.4725 19.0587C16.7776 19.0587 16.1111 18.8035 15.6198 18.3492C15.1284 17.895 14.8523 17.2789 14.8523 16.6365C14.8275 15.8475 14.9069 14.664 15.0012 13.563V13.5309C15.0409 13.2327 15.3536 12.9896 15.9193 12.8703C17.1162 12.6856 18.3446 12.9212 19.3632 13.5309L19.4972 13.6272C19.7428 13.8014 19.9176 14.047 19.9934 14.3245C19.9958 14.3428 19.9958 14.3613 19.9934 14.3795C20.0728 15.2374 20.1076 16.0585 20.0927 16.6365Z" fill="#407BFF"/>
<path opacity="0.85" d="M20.0927 16.6365C20.0927 17.2789 19.8166 17.895 19.3252 18.3492C18.8339 18.8035 18.1674 19.0587 17.4725 19.0587C16.7776 19.0587 16.1111 18.8035 15.6198 18.3492C15.1284 17.895 14.8523 17.2789 14.8523 16.6365C14.8275 15.8475 14.9069 14.664 15.0012 13.563V13.5309C15.0409 13.2327 15.3536 12.9896 15.9193 12.8703C17.1162 12.6856 18.3446 12.9212 19.3632 13.5309L19.4972 13.6272C19.7428 13.8014 19.9176 14.047 19.9934 14.3245C19.9958 14.3428 19.9958 14.3613 19.9934 14.3795C20.0728 15.2374 20.1076 16.0585 20.0927 16.6365Z" fill="white"/>
<path d="M19.6508 15.7187C19.6508 15.2279 19.5764 14.4205 19.5169 13.6453L19.3829 13.5489C19.1934 13.4244 18.9905 13.3183 18.7774 13.2324C18.9412 15.1774 19.0702 16.6316 18.7328 17.5629C18.5442 18.0721 18.0083 18.4804 17.7056 19.0217C17.8257 19.0119 17.9451 18.9951 18.0629 18.9712C18.1435 18.954 18.2231 18.9326 18.3011 18.907L18.3755 18.884L18.6782 18.618C19.6558 17.7464 19.7005 16.9115 19.6508 15.7187Z" fill="#F5F5F5"/>
<path d="M19.0803 15.0952C17.8523 15.2841 16.5927 15.0295 15.5619 14.3841C15.4101 14.3003 15.2807 14.1857 15.1836 14.0491C15.0865 13.9124 15.0241 13.7572 15.0012 13.5951V13.5309C15.0409 13.2327 15.3535 12.9896 15.9192 12.8703C17.1161 12.6856 18.3445 12.9212 19.3631 13.5309L19.4376 13.5813C19.7168 13.7426 19.9177 13.9973 19.9983 14.2924V14.3245C20.0331 14.6823 19.7204 14.9621 19.0803 15.0952Z" fill="#FAFAFA"/>
<path opacity="0.3" d="M18.6486 11.7835C18.8322 14.458 19.1448 16.3985 18.7131 17.5453C18.4451 18.2747 17.4725 18.7655 17.4725 19.8115V24.8576C17.4603 25.1326 17.5344 25.405 17.6859 25.642C17.795 25.876 17.4874 26.1787 16.9415 26.1008C17.1139 26.1726 17.3008 26.2097 17.4899 26.2097C17.6789 26.2097 17.8658 26.1726 18.0382 26.1008C18.3558 25.9356 18.3161 25.642 18.0382 25.4356C17.7603 25.2292 17.6859 25.3301 17.6859 24.5823V20.3344C17.6859 19.4858 18.0183 19.2197 18.7131 18.605C19.6559 17.7655 19.7056 16.9306 19.651 15.7379C19.5964 14.5452 19.3532 11.5267 19.3532 11.5267L18.6486 11.7835Z" fill="white"/>
<path d="M15.7207 11.5811C14.753 11.0674 14.753 10.2049 15.7207 9.71408C16.2633 9.45869 16.8635 9.32556 17.4724 9.32556C18.0813 9.32556 18.6816 9.45869 19.2242 9.71408C20.1918 10.2279 20.1918 11.0903 19.2242 11.5811C18.6816 11.8365 18.0813 11.9697 17.4724 11.9697C16.8635 11.9697 16.2633 11.8365 15.7207 11.5811Z" fill="#407BFF"/>
<path opacity="0.6" d="M15.7207 11.5811C14.753 11.0674 14.753 10.2049 15.7207 9.71408C16.2633 9.45869 16.8635 9.32556 17.4724 9.32556C18.0813 9.32556 18.6816 9.45869 19.2242 9.71408C20.1918 10.2279 20.1918 11.0903 19.2242 11.5811C18.6816 11.8365 18.0813 11.9697 17.4724 11.9697C16.8635 11.9697 16.2633 11.8365 15.7207 11.5811Z" fill="white"/>
<path d="M17.4724 11.7695C16.9002 11.782 16.3342 11.6571 15.8298 11.4071C15.651 11.3603 15.4936 11.2608 15.3815 11.1238C15.2694 10.9868 15.2087 10.8197 15.2087 10.6479C15.2087 10.476 15.2694 10.3089 15.3815 10.1719C15.4936 10.0349 15.651 9.93542 15.8298 9.88864C16.339 9.65041 16.9017 9.52628 17.4724 9.52628C18.0431 9.52628 18.6058 9.65041 19.1149 9.88864C19.2938 9.93542 19.4512 10.0349 19.5633 10.1719C19.6754 10.3089 19.736 10.476 19.736 10.6479C19.736 10.8197 19.6754 10.9868 19.5633 11.1238C19.4512 11.2608 19.2938 11.3603 19.1149 11.4071C18.6103 11.6565 18.0445 11.7814 17.4724 11.7695Z" fill="#407BFF"/>
<path opacity="0.3" d="M17.4724 11.7695C16.9002 11.782 16.3342 11.6571 15.8298 11.4071C15.651 11.3603 15.4936 11.2608 15.3815 11.1238C15.2694 10.9868 15.2087 10.8197 15.2087 10.6479C15.2087 10.476 15.2694 10.3089 15.3815 10.1719C15.4936 10.0349 15.651 9.93542 15.8298 9.88864C16.339 9.65041 16.9017 9.52628 17.4724 9.52628C18.0431 9.52628 18.6058 9.65041 19.1149 9.88864C19.2938 9.93542 19.4512 10.0349 19.5633 10.1719C19.6754 10.3089 19.736 10.476 19.736 10.6479C19.736 10.8197 19.6754 10.9868 19.5633 11.1238C19.4512 11.2608 19.2938 11.3603 19.1149 11.4071C18.6103 11.6565 18.0445 11.7814 17.4724 11.7695Z" fill="white"/>
<path d="M27.2185 27.7106C26.7136 27.4755 26.1562 27.353 25.5909 27.353C25.0255 27.353 24.4681 27.4755 23.9632 27.7106C23.777 27.7873 23.6164 27.9085 23.4977 28.0617C23.3791 28.2149 23.3068 28.3946 23.2883 28.5822V28.8024C23.3071 28.9894 23.3796 29.1683 23.4983 29.3207C23.6169 29.4731 23.7774 29.5935 23.9632 29.6694C24.4672 29.907 25.025 30.0309 25.5909 30.0309C26.1567 30.0309 26.7145 29.907 27.2185 29.6694C27.4037 29.5933 27.5634 29.4727 27.6812 29.3203C27.799 29.1678 27.8706 28.989 27.8885 28.8024C27.8885 28.7657 27.8885 28.6143 27.8885 28.5822C27.8709 28.3949 27.7995 28.2154 27.6818 28.0622C27.564 27.9089 27.4041 27.7876 27.2185 27.7106Z" fill="#407BFF"/>
<path opacity="0.3" d="M27.2185 27.7106C26.7136 27.4755 26.1562 27.353 25.5909 27.353C25.0255 27.353 24.4681 27.4755 23.9632 27.7106C23.777 27.7873 23.6164 27.9085 23.4977 28.0617C23.3791 28.2149 23.3068 28.3946 23.2883 28.5822V28.8024C23.3071 28.9894 23.3796 29.1683 23.4983 29.3207C23.6169 29.4731 23.7774 29.5935 23.9632 29.6694C24.4672 29.907 25.025 30.0309 25.5909 30.0309C26.1567 30.0309 26.7145 29.907 27.2185 29.6694C27.4037 29.5933 27.5634 29.4727 27.6812 29.3203C27.799 29.1678 27.8706 28.989 27.8885 28.8024C27.8885 28.7657 27.8885 28.6143 27.8885 28.5822C27.8709 28.3949 27.7995 28.2154 27.6818 28.0622C27.564 27.9089 27.4041 27.7876 27.2185 27.7106Z" fill="white"/>
<path d="M23.983 29.4492C23.0848 28.9905 23.0848 28.1923 23.983 27.7106C24.4879 27.4755 25.0453 27.353 25.6107 27.353C26.176 27.353 26.7335 27.4755 27.2383 27.7106C28.1365 28.1693 28.1365 28.9721 27.2383 29.4492C26.7343 29.6869 26.1765 29.8107 25.6107 29.8107C25.0448 29.8107 24.4871 29.6869 23.983 29.4492Z" fill="#407BFF"/>
<path opacity="0.55" d="M23.983 29.4492C23.0848 28.9905 23.0848 28.1923 23.983 27.7106C24.4879 27.4755 25.0453 27.353 25.6107 27.353C26.176 27.353 26.7335 27.4755 27.2383 27.7106C28.1365 28.1693 28.1365 28.9721 27.2383 29.4492C26.7343 29.6869 26.1765 29.8107 25.6107 29.8107C25.0448 29.8107 24.4871 29.6869 23.983 29.4492Z" fill="white"/>
<path opacity="0.3" d="M24.9259 27.9859C24.3701 28.096 24.2212 28.4446 24.519 28.7336C24.8049 28.9268 25.1531 29.0251 25.507 29.0126C25.8609 29.0001 26.2 28.8776 26.4692 28.6648L24.9259 27.9859Z" fill="#407BFF"/>
<path opacity="0.3" d="M26.6079 27.6559C27.2381 27.8026 27.8584 28.8486 26.6724 29.3165C25.8098 29.5765 24.8801 29.5765 24.0175 29.3165C24.4313 29.5147 24.8839 29.6338 25.3486 29.6669C25.8132 29.7 26.2803 29.6464 26.722 29.5092C28.3546 29.0137 27.7145 27.7384 26.6079 27.6559Z" fill="white"/>
<path d="M28.0871 13.2789H23.1247C23.1247 13.2789 22.6284 17.4443 22.678 19.4077C22.6777 19.8868 22.8155 20.3574 23.0771 20.771C23.3388 21.1846 23.7149 21.5263 24.1668 21.761C24.4951 21.9303 24.7691 22.177 24.9608 22.4759C25.1526 22.7748 25.2553 23.1154 25.2585 23.4629V27.5549C25.2577 27.6261 25.2372 27.6959 25.199 27.7577C25.1608 27.8195 25.1061 27.8713 25.0401 27.9081C24.8968 27.9917 24.7762 28.1047 24.6878 28.2384V28.2659C24.5886 28.4448 24.6878 28.6421 24.931 28.7843C25.1451 28.8861 25.3824 28.9392 25.6232 28.9392C25.864 28.9392 26.1014 28.8861 26.3155 28.7843C26.5785 28.6421 26.6629 28.4448 26.5636 28.2659L26.5338 28.22C26.446 28.0968 26.331 27.9921 26.1964 27.9127C26.1307 27.8745 26.0763 27.8218 26.0382 27.7593C26 27.6969 25.9794 27.6266 25.9781 27.5549V23.4629C25.9813 23.1154 26.084 22.7748 26.2757 22.4759C26.4675 22.177 26.7415 21.9303 27.0698 21.761C27.521 21.5256 27.8965 21.1837 28.1581 20.7703C28.4196 20.3568 28.5578 19.8866 28.5585 19.4077C28.5883 17.4351 28.0871 13.2789 28.0871 13.2789Z" fill="#407BFF"/>
<path opacity="0.5" d="M28.0871 13.2789H23.1247C23.1247 13.2789 22.6284 17.4443 22.678 19.4077C22.6777 19.8868 22.8155 20.3574 23.0771 20.771C23.3388 21.1846 23.7149 21.5263 24.1668 21.761C24.4951 21.9303 24.7691 22.177 24.9608 22.4759C25.1526 22.7748 25.2553 23.1154 25.2585 23.4629V27.5549C25.2577 27.6261 25.2372 27.6959 25.199 27.7577C25.1608 27.8195 25.1061 27.8713 25.0401 27.9081C24.8968 27.9917 24.7762 28.1047 24.6878 28.2384V28.2659C24.5886 28.4448 24.6878 28.6421 24.931 28.7843C25.1451 28.8861 25.3824 28.9392 25.6232 28.9392C25.864 28.9392 26.1014 28.8861 26.3155 28.7843C26.5785 28.6421 26.6629 28.4448 26.5636 28.2659L26.5338 28.22C26.446 28.0968 26.331 27.9921 26.1964 27.9127C26.1307 27.8745 26.0763 27.8218 26.0382 27.7593C26 27.6969 25.9794 27.6266 25.9781 27.5549V23.4629C25.9813 23.1154 26.084 22.7748 26.2757 22.4759C26.4675 22.177 26.7415 21.9303 27.0698 21.761C27.521 21.5256 27.8965 21.1837 28.1581 20.7703C28.4196 20.3568 28.5578 19.8866 28.5585 19.4077C28.5883 17.4351 28.0871 13.2789 28.0871 13.2789Z" fill="white"/>
<path opacity="0.2" d="M24.6879 21.8339C24.0761 21.637 23.534 21.2897 23.1198 20.8293C23.3822 21.2098 23.7418 21.5249 24.1669 21.7467C24.4952 21.916 24.7692 22.1627 24.9609 22.4616C25.1527 22.7606 25.2554 23.1011 25.2586 23.4487C25.2586 22.5083 25.2338 22.0908 24.6879 21.8339Z" fill="#407BFF"/>
<path d="M25.6108 21.7196C25.2589 21.7232 24.9097 21.6627 24.5831 21.5416C24.2564 21.4205 23.9588 21.241 23.7072 21.0136C23.4556 20.7861 23.255 20.515 23.1167 20.2158C22.9784 19.9167 22.9052 19.5953 22.9013 19.2699C22.8567 17.6139 23.2338 14.2789 23.3281 13.4807H27.8935C27.9878 14.2789 28.365 17.6093 28.3203 19.2699C28.3164 19.5953 28.2432 19.9167 28.105 20.2158C27.9667 20.515 27.766 20.7861 27.5144 21.0136C27.2628 21.241 26.9652 21.4205 26.6386 21.5416C26.312 21.6627 25.9627 21.7232 25.6108 21.7196Z" fill="#407BFF"/>
<path opacity="0.3" d="M25.6108 21.7196C25.2589 21.7232 24.9097 21.6627 24.5831 21.5416C24.2564 21.4205 23.9588 21.241 23.7072 21.0136C23.4556 20.7861 23.255 20.515 23.1167 20.2158C22.9784 19.9167 22.9052 19.5953 22.9013 19.2699C22.8567 17.6139 23.2338 14.2789 23.3281 13.4807H27.8935C27.9878 14.2789 28.365 17.6093 28.3203 19.2699C28.3164 19.5953 28.2432 19.9167 28.105 20.2158C27.9667 20.515 27.766 20.7861 27.5144 21.0136C27.2628 21.241 26.9652 21.4205 26.6386 21.5416C26.312 21.6627 25.9627 21.7232 25.6108 21.7196Z" fill="white"/>
<path d="M28.2109 19.2699C28.1814 19.8947 27.8923 20.4848 27.4037 20.9173C26.915 21.3498 26.2647 21.5912 25.5882 21.5912C24.9117 21.5912 24.2614 21.3498 23.7728 20.9173C23.2841 20.4848 22.995 19.8947 22.9656 19.2699C22.9656 18.4809 23.0251 17.2974 23.1194 16.1964V16.1643C23.1591 15.8707 23.4717 15.623 24.0375 15.5037C25.2344 15.3194 26.4626 15.555 27.4814 16.1643L27.6154 16.2652C27.8606 16.4377 28.0355 16.6818 28.1116 16.9579C28.114 16.9777 28.114 16.9977 28.1116 17.0175C28.2108 17.8662 28.2456 18.6782 28.2109 19.2699Z" fill="#407BFF"/>
<path opacity="0.85" d="M28.2109 19.2699C28.1814 19.8947 27.8923 20.4848 27.4037 20.9173C26.915 21.3498 26.2647 21.5912 25.5882 21.5912C24.9117 21.5912 24.2614 21.3498 23.7728 20.9173C23.2841 20.4848 22.995 19.8947 22.9656 19.2699C22.9656 18.4809 23.0251 17.2974 23.1194 16.1964V16.1643C23.1591 15.8707 23.4717 15.623 24.0375 15.5037C25.2344 15.3194 26.4626 15.555 27.4814 16.1643L27.6154 16.2652C27.8606 16.4377 28.0355 16.6818 28.1116 16.9579C28.114 16.9777 28.114 16.9977 28.1116 17.0175C28.2108 17.8662 28.2456 18.6782 28.2109 19.2699Z" fill="white"/>
<path d="M27.7895 18.3529C27.7895 17.8574 27.715 17.0546 27.6555 16.2794L27.5215 16.1784C27.332 16.0539 27.1292 15.9479 26.9161 15.8619C27.0749 17.8116 27.2089 19.2658 26.8714 20.197C26.6828 20.7062 26.1469 21.1145 25.8442 21.6512C25.9644 21.6415 26.0837 21.6246 26.2015 21.6007C26.2821 21.5851 26.3616 21.5652 26.4397 21.5411H26.4645H26.5389C26.6283 21.4539 26.7275 21.3668 26.8416 21.2704C27.7944 20.3759 27.8391 19.5456 27.7895 18.3529Z" fill="#F5F5F5"/>
<path d="M27.2184 17.7245C25.9903 17.9158 24.7298 17.661 23.7001 17.0134C23.5477 16.9301 23.418 16.8157 23.3208 16.679C23.2236 16.5422 23.1615 16.3867 23.1393 16.2244V16.1602C23.179 15.8666 23.4916 15.6189 24.0573 15.4996C25.2543 15.3153 26.4825 15.5509 27.5013 16.1602L27.5757 16.2106C27.8549 16.3719 28.0558 16.6267 28.1365 16.9217V16.9767C28.1712 17.2979 27.8586 17.596 27.2184 17.7245Z" fill="#FAFAFA"/>
<path opacity="0.3" d="M26.7867 14.4119C26.9703 17.0864 27.2829 19.0314 26.8512 20.1782C26.5832 20.9031 25.6106 21.3985 25.6106 22.4398V27.4859C25.5985 27.7624 25.6726 28.0363 25.824 28.275C25.9332 28.5089 25.6255 28.8071 25.0796 28.7108C25.2524 28.7812 25.4392 28.8175 25.628 28.8175C25.8168 28.8175 26.0035 28.7812 26.1763 28.7108C26.4939 28.5456 26.4542 28.252 26.1763 28.0456C25.8984 27.8392 25.824 27.9447 25.824 27.1924V22.9399C25.824 22.0912 26.1565 21.8251 26.8512 21.2104C27.7941 20.3709 27.8437 19.5406 27.7891 18.3479C27.7345 17.1552 27.4913 14.1367 27.4913 14.1367L26.7867 14.4119Z" fill="white"/>
<path d="M23.859 14.2237C22.8665 13.7054 22.8665 12.8705 23.859 12.3521C24.4022 12.0988 25.0022 11.9669 25.6107 11.9669C26.2191 11.9669 26.8191 12.0988 27.3624 12.3521C28.3301 12.8705 28.3301 13.7054 27.3624 14.2237C26.8198 14.4791 26.2196 14.6123 25.6107 14.6123C25.0018 14.6123 24.4016 14.4791 23.859 14.2237Z" fill="#407BFF"/>
<path opacity="0.6" d="M23.859 14.2237C22.8665 13.7054 22.8665 12.8705 23.859 12.3521C24.4022 12.0988 25.0022 11.9669 25.6107 11.9669C26.2191 11.9669 26.8191 12.0988 27.3624 12.3521C28.3301 12.8705 28.3301 13.7054 27.3624 14.2237C26.8198 14.4791 26.2196 14.6123 25.6107 14.6123C25.0018 14.6123 24.4016 14.4791 23.859 14.2237Z" fill="white"/>
<path d="M25.6108 14.3982C25.0391 14.4121 24.4732 14.2889 23.9683 14.0404C23.7903 13.9921 23.634 13.8918 23.5228 13.7545C23.4116 13.6172 23.3515 13.4504 23.3515 13.2789C23.3515 13.1074 23.4116 12.9405 23.5228 12.8032C23.634 12.666 23.7903 12.5657 23.9683 12.5174C24.4784 12.2819 25.0407 12.1594 25.6108 12.1594C26.181 12.1594 26.7433 12.2819 27.2534 12.5174C27.4314 12.5657 27.5877 12.666 27.6989 12.8032C27.8101 12.9405 27.8701 13.1074 27.8701 13.2789C27.8701 13.4504 27.8101 13.6172 27.6989 13.7545C27.5877 13.8918 27.4314 13.9921 27.2534 14.0404C26.7483 14.2883 26.1825 14.4115 25.6108 14.3982Z" fill="#407BFF"/>
<path opacity="0.3" d="M25.6108 14.3982C25.0391 14.4121 24.4732 14.2889 23.9683 14.0404C23.7903 13.9921 23.634 13.8918 23.5228 13.7545C23.4116 13.6172 23.3515 13.4504 23.3515 13.2789C23.3515 13.1074 23.4116 12.9405 23.5228 12.8032C23.634 12.666 23.7903 12.5657 23.9683 12.5174C24.4784 12.2819 25.0407 12.1594 25.6108 12.1594C26.181 12.1594 26.7433 12.2819 27.2534 12.5174C27.4314 12.5657 27.5877 12.666 27.6989 12.8032C27.8101 12.9405 27.8701 13.1074 27.8701 13.2789C27.8701 13.4504 27.8101 13.6172 27.6989 13.7545C27.5877 13.8918 27.4314 13.9921 27.2534 14.0404C26.7483 14.2883 26.1825 14.4115 25.6108 14.3982Z" fill="white"/>
<path d="M21.2191 31.5276C20.7143 31.2925 20.1568 31.17 19.5915 31.17C19.0261 31.17 18.4687 31.2925 17.9638 31.5276C17.778 31.6035 17.6175 31.7239 17.4989 31.8763C17.3802 32.0288 17.3078 32.2077 17.2889 32.3946V32.6148C17.3069 32.8026 17.379 32.9825 17.4977 33.1358C17.6164 33.289 17.7773 33.4101 17.9638 33.4864C18.4687 33.7216 19.0261 33.844 19.5915 33.844C20.1568 33.844 20.7143 33.7216 21.2191 33.4864C21.404 33.4099 21.5634 33.2892 21.6812 33.1368C21.7989 32.9845 21.8707 32.8059 21.8891 32.6194V32.3946C21.8707 32.2082 21.7989 32.0296 21.6812 31.8772C21.5634 31.7248 21.404 31.6042 21.2191 31.5276Z" fill="#407BFF"/>
<path opacity="0.3" d="M21.2191 31.5276C20.7143 31.2925 20.1568 31.17 19.5915 31.17C19.0261 31.17 18.4687 31.2925 17.9638 31.5276C17.778 31.6035 17.6175 31.7239 17.4989 31.8763C17.3802 32.0288 17.3078 32.2077 17.2889 32.3946V32.6148C17.3069 32.8026 17.379 32.9825 17.4977 33.1358C17.6164 33.289 17.7773 33.4101 17.9638 33.4864C18.4687 33.7216 19.0261 33.844 19.5915 33.844C20.1568 33.844 20.7143 33.7216 21.2191 33.4864C21.404 33.4099 21.5634 33.2892 21.6812 33.1368C21.7989 32.9845 21.8707 32.8059 21.8891 32.6194V32.3946C21.8707 32.2082 21.7989 32.0296 21.6812 31.8772C21.5634 31.7248 21.404 31.6042 21.2191 31.5276Z" fill="white"/>
<path d="M17.9636 33.2662C17.0654 32.8075 17.0654 32.0093 17.9636 31.5276C18.4685 31.2925 19.0259 31.17 19.5913 31.17C20.1566 31.17 20.714 31.2925 21.2189 31.5276C22.1171 32.0093 22.1171 32.7846 21.2189 33.2662C20.714 33.5014 20.1566 33.6238 19.5913 33.6238C19.0259 33.6238 18.4685 33.5014 17.9636 33.2662Z" fill="#407BFF"/>
<path opacity="0.55" d="M17.9636 33.2662C17.0654 32.8075 17.0654 32.0093 17.9636 31.5276C18.4685 31.2925 19.0259 31.17 19.5913 31.17C20.1566 31.17 20.714 31.2925 21.2189 31.5276C22.1171 32.0093 22.1171 32.7846 21.2189 33.2662C20.714 33.5014 20.1566 33.6238 19.5913 33.6238C19.0259 33.6238 18.4685 33.5014 17.9636 33.2662Z" fill="white"/>
<path opacity="0.3" d="M18.9065 31.7978C18.3507 31.9125 18.2018 32.2565 18.4995 32.5501C18.7865 32.7409 19.1342 32.8378 19.4875 32.8254C19.8407 32.8129 20.1794 32.6918 20.4498 32.4813L18.9065 31.7978Z" fill="#407BFF"/>
<path opacity="0.3" d="M20.5887 31.4677C21.2189 31.6145 21.8392 32.6604 20.6532 33.1329C19.7906 33.3929 18.861 33.3929 17.9983 33.1329C18.4121 33.3311 18.8648 33.4503 19.3294 33.4834C19.794 33.5165 20.2611 33.4628 20.7028 33.3256C22.3355 32.8302 21.7152 31.5549 20.5887 31.4677Z" fill="white"/>
<path d="M22.0673 17.0956H17.1049C17.1049 17.0956 16.6086 21.2609 16.6582 23.2243C16.6584 23.7034 16.7964 24.1738 17.058 24.5873C17.3196 25.0008 17.6954 25.3426 18.147 25.5777C18.4756 25.7466 18.7499 25.9932 18.9417 26.2922C19.1335 26.5912 19.236 26.932 19.2387 27.2796V31.3669C19.2383 31.4388 19.218 31.5094 19.1798 31.5721C19.1416 31.6347 19.0867 31.6872 19.0204 31.7247C18.877 31.8083 18.7564 31.9214 18.668 32.055V32.0826C18.5688 32.2569 18.668 32.4587 18.9112 32.6009C19.126 32.7006 19.3631 32.7525 19.6034 32.7525C19.8438 32.7525 20.0809 32.7006 20.2957 32.6009C20.5587 32.4587 20.6431 32.2569 20.5438 32.0826L20.514 32.0321C20.4262 31.9089 20.3112 31.8041 20.1766 31.7247C20.1102 31.6872 20.0554 31.6347 20.0171 31.5721C19.9789 31.5094 19.9587 31.4388 19.9582 31.3669V27.2796C19.9599 26.9318 20.062 26.5906 20.2539 26.2915C20.4458 25.9923 20.7206 25.7459 21.05 25.5777C21.5008 25.3419 21.8761 24.9999 22.1376 24.5866C22.3991 24.1732 22.5375 23.7032 22.5387 23.2243C22.5685 21.2609 22.0673 17.0956 22.0673 17.0956Z" fill="#407BFF"/>
<path opacity="0.5" d="M22.0673 17.0956H17.1049C17.1049 17.0956 16.6086 21.2609 16.6582 23.2243C16.6584 23.7034 16.7964 24.1738 17.058 24.5873C17.3196 25.0008 17.6954 25.3426 18.147 25.5777C18.4756 25.7466 18.7499 25.9932 18.9417 26.2922C19.1335 26.5912 19.236 26.932 19.2387 27.2796V31.3669C19.2383 31.4388 19.218 31.5094 19.1798 31.5721C19.1416 31.6347 19.0867 31.6872 19.0204 31.7247C18.877 31.8083 18.7564 31.9214 18.668 32.055V32.0826C18.5688 32.2569 18.668 32.4587 18.9112 32.6009C19.126 32.7006 19.3631 32.7525 19.6034 32.7525C19.8438 32.7525 20.0809 32.7006 20.2957 32.6009C20.5587 32.4587 20.6431 32.2569 20.5438 32.0826L20.514 32.0321C20.4262 31.9089 20.3112 31.8041 20.1766 31.7247C20.1102 31.6872 20.0554 31.6347 20.0171 31.5721C19.9789 31.5094 19.9587 31.4388 19.9582 31.3669V27.2796C19.9599 26.9318 20.062 26.5906 20.2539 26.2915C20.4458 25.9923 20.7206 25.7459 21.05 25.5777C21.5008 25.3419 21.8761 24.9999 22.1376 24.5866C22.3991 24.1732 22.5375 23.7032 22.5387 23.2243C22.5685 21.2609 22.0673 17.0956 22.0673 17.0956Z" fill="white"/>
<path opacity="0.2" d="M18.6681 25.6506C18.0573 25.4518 17.5157 25.1048 17.1 24.6459C17.3624 25.0265 17.7219 25.3416 18.1471 25.5634C18.4757 25.7323 18.75 25.9789 18.9418 26.2779C19.1336 26.577 19.2361 26.9177 19.2388 27.2653C19.2388 26.3249 19.209 25.9029 18.6681 25.6506Z" fill="#407BFF"/>
<path d="M19.591 25.5363C18.8812 25.5436 18.1971 25.2903 17.6891 24.8319C17.1812 24.3735 16.8907 23.7474 16.8815 23.0912C16.8369 21.4306 17.214 18.1002 17.3083 17.302H21.8737C21.968 18.1002 22.3452 21.4306 22.3005 23.0912C22.2913 23.7474 22.0009 24.3735 21.4929 24.8319C20.9849 25.2903 20.3009 25.5436 19.591 25.5363Z" fill="#407BFF"/>
<path opacity="0.3" d="M19.591 25.5363C18.8812 25.5436 18.1971 25.2903 17.6891 24.8319C17.1812 24.3735 16.8907 23.7474 16.8815 23.0912C16.8369 21.4306 17.214 18.1002 17.3083 17.302H21.8737C21.968 18.1002 22.3452 21.4306 22.3005 23.0912C22.2913 23.7474 22.0009 24.3735 21.4929 24.8319C20.9849 25.2903 20.3009 25.5436 19.591 25.5363Z" fill="white"/>
<path d="M22.2113 23.0825C22.1819 23.7073 21.8927 24.2974 21.4041 24.7299C20.9155 25.1623 20.2652 25.4037 19.5887 25.4037C18.9122 25.4037 18.2619 25.1623 17.7732 24.7299C17.2846 24.2974 16.9955 23.7073 16.966 23.0825C16.966 22.2935 17.0256 21.1099 17.1199 20.009V19.9768C17.1596 19.6787 17.4722 19.4355 18.0379 19.3163C19.2348 19.132 20.4631 19.3676 21.4818 19.9768L21.6158 20.0732C21.8606 20.2481 22.0352 20.4934 22.1121 20.7705C22.1145 20.7887 22.1145 20.8072 22.1121 20.8255V20.8484C22.1915 21.6833 22.2262 22.4816 22.2113 23.0825Z" fill="#407BFF"/>
<path opacity="0.85" d="M22.2113 23.0825C22.1819 23.7073 21.8927 24.2974 21.4041 24.7299C20.9155 25.1623 20.2652 25.4037 19.5887 25.4037C18.9122 25.4037 18.2619 25.1623 17.7732 24.7299C17.2846 24.2974 16.9955 23.7073 16.966 23.0825C16.966 22.2935 17.0256 21.1099 17.1199 20.009V19.9768C17.1596 19.6787 17.4722 19.4355 18.0379 19.3163C19.2348 19.132 20.4631 19.3676 21.4818 19.9768L21.6158 20.0732C21.8606 20.2481 22.0352 20.4934 22.1121 20.7705C22.1145 20.7887 22.1145 20.8072 22.1121 20.8255V20.8484C22.1915 21.6833 22.2262 22.4816 22.2113 23.0825Z" fill="white"/>
<path d="M21.7598 22.1649C21.7598 21.6741 21.6854 20.8667 21.6258 20.0915L21.4918 19.9951C21.3023 19.8706 21.0995 19.7645 20.8864 19.6786C21.0452 21.6236 21.1792 23.0824 20.8417 24.0091C20.6532 24.5183 20.1172 24.9265 19.8145 25.4679C19.9347 25.4581 20.054 25.4413 20.1718 25.4174L20.41 25.3578H20.4348H20.5093L20.812 25.0917C21.7598 24.1926 21.8193 23.3577 21.7598 22.1649Z" fill="#F5F5F5"/>
<path d="M21.1991 21.5637C19.9711 21.7526 18.7115 21.4981 17.6808 20.8527C17.5289 20.7688 17.3996 20.6543 17.3024 20.5177C17.2053 20.381 17.1429 20.2258 17.12 20.0637V19.9994C17.1597 19.7012 17.4723 19.4581 18.038 19.3388C19.235 19.1546 20.4632 19.3902 21.482 19.9994L21.5564 20.0499C21.8356 20.2111 22.0365 20.4659 22.1171 20.7609V20.7931C22.1519 21.105 21.8393 21.4078 21.1991 21.5637Z" fill="#FAFAFA"/>
<path opacity="0.3" d="M20.7674 18.2287C20.951 20.9032 21.2636 22.8482 20.8319 23.9905C20.5639 24.7199 19.5913 25.2107 19.5913 26.2567V31.3028C19.5791 31.5778 19.6532 31.8502 19.8047 32.0872C19.9139 32.3212 19.6062 32.6239 19.0603 32.523C19.2309 32.5984 19.417 32.6395 19.606 32.6434C19.7951 32.6474 19.9829 32.6142 20.157 32.546C20.4746 32.3808 20.4349 32.0872 20.157 31.8808C19.8791 31.6744 19.8047 31.7799 19.8047 31.0275V26.7796C19.8047 25.931 20.1372 25.6649 20.8319 25.0502C21.7748 24.2107 21.8244 23.3758 21.7698 22.1831C21.7152 20.9904 21.4721 17.9764 21.4721 17.9764L20.7674 18.2287Z" fill="white"/>
<path d="M17.8397 18.0319C16.8472 17.5136 16.8472 16.6557 17.8397 16.1603C18.3823 15.9049 18.9825 15.7718 19.5914 15.7718C20.2003 15.7718 20.8005 15.9049 21.3431 16.1603C22.3108 16.6741 22.3108 17.5136 21.3431 18.0319C20.7998 18.2852 20.1998 18.4171 19.5914 18.4171C18.9829 18.4171 18.3829 18.2852 17.8397 18.0319Z" fill="#407BFF"/>
<path opacity="0.6" d="M17.8397 18.0319C16.8472 17.5136 16.8472 16.6557 17.8397 16.1603C18.3823 15.9049 18.9825 15.7718 19.5914 15.7718C20.2003 15.7718 20.8005 15.9049 21.3431 16.1603C22.3108 16.6741 22.3108 17.5136 21.3431 18.0319C20.7998 18.2852 20.1998 18.4171 19.5914 18.4171C18.9829 18.4171 18.3829 18.2852 17.8397 18.0319Z" fill="white"/>
<path d="M19.5912 18.2146C19.0197 18.2263 18.4544 18.1031 17.9486 17.8568C17.7824 17.7909 17.6376 17.686 17.5288 17.5524C17.42 17.4188 17.3509 17.2612 17.3283 17.0953C17.3494 16.9289 17.418 16.7708 17.527 16.6369C17.636 16.5031 17.7815 16.3985 17.9486 16.3338C18.4578 16.0956 19.0205 15.9714 19.5912 15.9714C20.1619 15.9714 20.7245 16.0956 21.2337 16.3338C21.3996 16.3996 21.5439 16.5046 21.6519 16.6383C21.7599 16.7719 21.8279 16.9296 21.8491 17.0953C21.8269 17.2607 21.7586 17.418 21.6507 17.5515C21.5427 17.6851 21.399 17.7903 21.2337 17.8568C20.7278 18.1028 20.1626 18.2259 19.5912 18.2146Z" fill="#407BFF"/>
<path opacity="0.3" d="M19.5912 18.2146C19.0197 18.2263 18.4544 18.1031 17.9486 17.8568C17.7824 17.7909 17.6376 17.686 17.5288 17.5524C17.42 17.4188 17.3509 17.2612 17.3283 17.0953C17.3494 16.9289 17.418 16.7708 17.527 16.6369C17.636 16.5031 17.7815 16.3985 17.9486 16.3338C18.4578 16.0956 19.0205 15.9714 19.5912 15.9714C20.1619 15.9714 20.7245 16.0956 21.2337 16.3338C21.3996 16.3996 21.5439 16.5046 21.6519 16.6383C21.7599 16.7719 21.8279 16.9296 21.8491 17.0953C21.8269 17.2607 21.7586 17.418 21.6507 17.5515C21.5427 17.6851 21.399 17.7903 21.2337 17.8568C20.7278 18.1028 20.1626 18.2259 19.5912 18.2146Z" fill="white"/>
<path d="M68.7489 26.1781C68.7489 26.1781 70.6147 33.6188 69.8505 38.9127C69.3543 42.3348 69.3841 43.6789 69.2799 47.7067C69.2869 50.6714 69.4924 53.6328 69.8952 56.5741C63.6525 60.7853 45.4801 61.7532 41.7831 55.5832C41.7831 55.5832 42.19 52.0922 42.4282 45.5735C42.6069 40.7109 43.2222 33.6463 43.8376 31.3527C44.83 27.6506 46.423 25.7744 47.5891 25.0221C51.301 24.256 55.7771 23.8982 58.437 24.0817C61.9595 24.3557 65.427 25.0606 68.7489 26.1781Z" fill="#F5F5F5"/>
<path d="M53.4548 23.8892L53.5094 24.5819C53.5094 24.5819 52.775 26.371 51.8768 29.3298C50.8248 32.7933 51.1225 41.046 51.1225 41.046C51.1225 41.046 56.6159 34.3484 59.0376 30.7061C60.2849 28.9021 61.3878 27.0163 62.3376 25.0636V24.3113C62.3376 24.3113 68.1237 25.4719 69.7266 26.4673C70.214 28.7625 70.5455 31.0837 70.7191 33.4172C70.997 37.1789 69.8953 42.592 69.7266 45.0141C69.5579 47.4362 70.3568 57.8588 70.3568 57.8588C66.8236 60.1846 61.2607 63.0654 58.1542 62.8223C55.0478 62.5792 51.7825 58.212 50.6858 55.8311C48.3882 58.6524 44.3389 59.079 41.2572 57.7899C41.2572 57.7899 41.7535 53.12 42.0065 49.3538C42.2596 45.5875 42.5375 39.0046 43.0239 34.3026C43.5102 29.6005 45.2867 25.7333 47.49 24.8847C49.4416 24.3868 51.4381 24.0536 53.4548 23.8892Z" fill="#407BFF"/>
<path d="M62.1787 21.5362C63.9056 18.9764 65.5134 17.3479 66.7342 14.5175C67.2304 13.3706 67.9897 10.7283 67.3644 9.17318C66.9277 8.09056 66.238 7.22813 64.9924 7.17308C65.1351 6.62609 65.1184 6.05391 64.9441 5.51481C64.7697 4.97571 64.444 4.48896 63.9999 4.10412C63.669 3.77949 63.2459 3.54752 62.779 3.43475C62.3121 3.32199 61.8203 3.33298 61.3599 3.46648C61.322 3.08395 61.1684 2.71901 60.9167 2.41341C60.6649 2.10781 60.3252 1.8739 59.9363 1.73845C59.5475 1.60299 59.1253 1.57147 58.7179 1.64748C58.3106 1.72349 57.9347 1.90396 57.6331 2.16825C57.4321 1.78031 57.1102 1.45681 56.7087 1.23936C56.3072 1.02191 55.8446 0.920442 55.3802 0.948005C54.8909 0.968386 54.4183 1.11909 54.0195 1.38198C53.6207 1.64486 53.3125 2.00872 53.1322 2.42973C52.4742 1.83677 51.6157 1.47077 50.7006 1.39298C50.2444 1.36082 49.7878 1.45159 49.3862 1.65431C48.9846 1.85704 48.6552 2.16303 48.4378 2.53524C48.0656 3.27839 48.2939 4.15 48.5321 4.93903C48.328 4.78328 48.0782 4.68737 47.8148 4.66356C47.5514 4.63976 47.2863 4.68914 47.0535 4.80539C46.8206 4.92165 46.6306 5.09949 46.5076 5.31615C46.3847 5.53282 46.3345 5.77846 46.3635 6.02165C46.4542 6.32055 46.5042 6.62876 46.5124 6.93912C46.4891 7.0785 46.4223 7.20857 46.3203 7.31339C46.2182 7.41822 46.0853 7.49324 45.9378 7.52928C45.7903 7.56531 45.6347 7.56079 45.4899 7.51626C45.3452 7.47173 45.2176 7.38913 45.1229 7.27859C45.0472 7.52644 45.0401 7.78791 45.1023 8.03895C45.1645 8.29 45.2939 8.52257 45.4787 8.71531C45.6634 8.90805 45.8977 9.05477 46.1598 9.14199C46.4219 9.22921 46.7036 9.25413 46.9788 9.21446C46.9222 9.43151 46.9336 9.659 47.0119 9.87025C47.0901 10.0815 47.2318 10.2677 47.4205 10.4072C47.7297 10.6023 48.1071 10.6826 48.4775 10.632C48.4775 10.632 62.1043 21.4719 62.1787 21.5362Z" fill="#263238"/>
<path d="M48.3087 18.408C48.6709 20.5181 49.5245 21.5274 51.033 22.0779C51.847 22.3282 52.7013 22.4477 53.5589 22.4311L53.5093 24.5688C51.1273 28.6149 59.9604 28.0369 62.3374 25.0275L62.392 18.5226C62.392 18.5226 63.2952 19.6236 64.9923 18.752C65.6805 18.3465 66.1964 17.7341 66.4531 17.018C66.7098 16.3018 66.6916 15.5258 66.4016 14.8206C65.7218 13.2013 64.0594 13.7426 63.5284 14.1876C62.9974 14.6325 62.3771 15.394 61.9503 15.3344C61.2854 15.2473 61.1564 14.7243 61.0224 14.3298C60.7249 13.33 60.6274 12.2884 60.7346 11.2562C60.3028 11.0177 59.7024 10.7746 59.5436 10.2745C58.9729 8.43958 59.6676 7.95332 60.0944 7.19641C58.4171 6.02662 55.7275 7.8524 53.7673 7.97626C51.5243 8.12305 51.0926 6.92116 49.8718 6.99915C49.2041 8.09758 48.7648 9.30187 48.5767 10.5498C48.1747 12.9444 47.8124 15.5225 48.3087 18.408Z" fill="#FFBDA7"/>
<path d="M53.559 22.449C55.3455 22.4719 58.9829 21.9444 60.0102 21.0728C61.0374 20.2012 61.5832 18.3708 61.5832 18.3708C61.5832 18.3708 61.2954 20.4122 60.4766 21.4122C59.6578 22.4123 57.8416 22.8756 56.6953 23.0591C55.7623 23.2105 54.0701 23.3206 53.5441 23.3389L53.559 22.449Z" fill="#F0997A"/>
<path d="M55.4249 13.5127C55.4687 13.6526 55.5562 13.7774 55.6766 13.8714C55.7969 13.9654 55.9446 14.0245 56.1011 14.0411C56.2577 14.0577 56.416 14.0312 56.5563 13.9649C56.6965 13.8985 56.8124 13.7953 56.8894 13.6682C56.9664 13.5412 57.001 13.3959 56.9889 13.2507C56.9768 13.1054 56.9186 12.9668 56.8214 12.8521C56.7243 12.7374 56.5927 12.6518 56.4431 12.6061C56.2935 12.5604 56.1326 12.5566 55.9807 12.5952C55.7768 12.6507 55.6044 12.7778 55.5006 12.9493C55.3967 13.1207 55.3695 13.3229 55.4249 13.5127Z" fill="#263238"/>
<path d="M49.5491 11.2834L51.286 10.554C51.2406 10.4466 51.1719 10.3488 51.0842 10.2668C50.9964 10.1849 50.8913 10.1204 50.7755 10.0774C50.6598 10.0344 50.5357 10.0138 50.4109 10.0169C50.2862 10.02 50.1635 10.0467 50.0503 10.0953C49.8164 10.1946 49.6334 10.374 49.5399 10.5957C49.4464 10.8174 49.4497 11.0639 49.5491 11.2834Z" fill="#263238"/>
<path d="M51.3509 13.0317C51.3115 13.1221 51.2532 13.2044 51.1793 13.2739C51.1055 13.3435 51.0176 13.3989 50.9206 13.437C50.8236 13.4751 50.7194 13.4952 50.614 13.4961C50.5086 13.497 50.4041 13.4787 50.3063 13.4423C50.2086 13.4058 50.1195 13.3519 50.0443 13.2837C49.9691 13.2154 49.9091 13.1342 49.8679 13.0445C49.8267 12.9548 49.8049 12.8585 49.8039 12.7611C49.803 12.6637 49.8227 12.567 49.8622 12.4766C49.8996 12.3843 49.9565 12.2997 50.0296 12.2279C50.1027 12.156 50.1905 12.0983 50.288 12.0582C50.3854 12.0181 50.4905 11.9963 50.5972 11.9941C50.7039 11.9919 50.8099 12.0093 50.9092 12.0454C51.0085 12.0831 51.0988 12.1386 51.1748 12.2086C51.2508 12.2787 51.311 12.3619 51.3521 12.4536C51.3931 12.5453 51.4141 12.6436 51.4139 12.7428C51.4137 12.842 51.3923 12.9402 51.3509 13.0317Z" fill="#263238"/>
<path d="M56.1791 10.8939L57.8663 11.949C57.944 11.8501 57.9996 11.7379 58.0297 11.6188C58.0598 11.4998 58.0639 11.3764 58.0417 11.2559C58.0195 11.1353 57.9715 11.0202 57.9005 10.917C57.8295 10.8139 57.7369 10.725 57.6281 10.6554C57.3997 10.5155 57.1218 10.4623 56.852 10.5067C56.5822 10.5511 56.3413 10.6898 56.1791 10.8939Z" fill="#263238"/>
<path d="M55.8863 17.2246L53.2066 17.8301C53.2509 18.0041 53.3341 18.1675 53.4509 18.31C53.5677 18.4524 53.7155 18.5706 53.8847 18.6571C54.0539 18.7435 54.2409 18.7962 54.4335 18.8118C54.6261 18.8274 54.8201 18.8055 55.003 18.7476C55.1711 18.7041 55.3281 18.6297 55.4644 18.5288C55.6006 18.4278 55.7134 18.3024 55.7959 18.1602C55.8784 18.0179 55.929 17.8617 55.9445 17.7009C55.96 17.5401 55.9402 17.3781 55.8863 17.2246Z" fill="#B16668"/>
<path d="M54.2437 18.7518C54.3079 18.425 54.5016 18.1319 54.787 17.93C55.0724 17.7281 55.4289 17.6319 55.787 17.66H55.916C55.9068 17.9023 55.8129 18.1352 55.6482 18.3238C55.4836 18.5124 55.2571 18.6465 55.0029 18.706C54.7577 18.7781 54.4971 18.7938 54.2437 18.7518Z" fill="#F28F8F"/>
<path d="M53.8766 11.8758L53.1719 16.2384L50.6361 15.243L53.8766 11.8758Z" fill="#F0997A"/>
<path d="M58.3975 54.8776L58.1494 73.7547C63.1615 74.2134 69.7168 72.0574 71.0914 71.1628C71.4437 64.0386 71.0914 51.4921 71.0914 51.4921L58.3975 54.8776Z" fill="#E0E0E0"/>
<path d="M69.0168 26.6416C71.761 27.3893 74.0636 28.1875 74.8427 32.9354C75.8351 39.1146 76.3661 46.9361 76.2619 48.8124C76.0783 52.1245 75.056 53.0419 72.4359 53.6521C65.9004 55.1751 59.0969 55.2347 57.1963 55.9457C56.7795 56.0971 56.3577 56.2347 55.9259 56.3494C54.2384 56.8244 52.4646 56.9804 50.7104 56.8082C49.4614 56.6579 48.2552 56.2873 47.1573 55.7164C46.8348 55.5329 46.7008 55.1796 46.4229 54.9549C46.145 54.7301 45.8076 54.675 45.5594 54.464C45.0632 54.0374 45.1823 53.23 44.7208 52.7713C44.5124 52.5694 44.1948 52.4364 44.1005 52.1703C44.0677 52.0047 44.105 51.8337 44.2048 51.6928C44.3045 51.5519 44.4591 51.4519 44.6364 51.4134C44.9959 51.3517 45.3664 51.3754 45.7133 51.4822C47.5217 51.9142 49.3913 52.086 51.2563 51.9914C51.5778 51.9804 51.8956 51.9247 52.1992 51.8263C52.2707 51.8083 52.3363 51.7742 52.39 51.7269C52.4437 51.6797 52.4839 51.6208 52.5068 51.5556C52.5515 51.3217 52.2389 51.1932 52.0106 51.1428C51.2513 50.9914 50.2489 50.9455 49.5691 50.6152C49.1969 50.4363 48.3136 49.7711 48.9438 49.4133C49.0579 49.3561 49.1862 49.3276 49.316 49.3307C50.1497 49.2803 50.9933 49.3537 51.822 49.2619C52.639 49.1159 53.4734 49.0711 54.3032 49.1289C54.9843 49.2612 55.6493 49.4563 56.2882 49.7115C56.9722 49.9442 57.6986 50.0517 58.427 50.028C59.3873 49.9092 60.3328 49.7048 61.2506 49.4179C63.7318 48.7436 65.558 47.9866 67.9945 47.2481L66.4661 37.3485C66.4661 37.3485 64.5705 29.1096 69.0168 26.6416Z" fill="#FFBDA7"/>
<path d="M68.6497 25.9768C70.2327 26.4952 71.9596 27.1053 73.4235 28.3302C74.9867 29.6422 75.205 31.656 75.8253 37.1196C76.3911 42.0877 76.9022 47.3127 76.7583 49.478C76.6144 51.6432 76.3017 52.735 74.2473 53.5195C72.1928 54.3039 64.0396 55.1159 64.0396 55.1159C64.0396 55.1159 64.6946 52.3634 63.9751 50.7716C63.2555 49.1798 61.9058 49.2211 61.9058 49.2211L67.7515 47.0696L65.8707 36.7021C65.8707 36.7021 64.377 29.1238 68.6497 25.9768Z" fill="#EBEBEB"/>
<path d="M66.7046 51.1112C66.498 50.1344 66.0325 49.2203 65.3499 48.4506C65.2754 48.3588 65.2208 48.4964 65.2754 48.5607C65.8577 49.3209 66.2415 50.1955 66.3969 51.1158C66.4809 51.5702 66.5092 52.0318 66.4813 52.492C66.4662 52.7168 66.4364 52.9404 66.392 53.1618C66.3338 53.3511 66.3203 53.5498 66.3523 53.7444C66.3523 53.7857 66.4217 53.8774 66.4813 53.827C66.7989 53.5288 66.7939 52.9095 66.8088 52.515C66.8325 52.0449 66.7975 51.5739 66.7046 51.1112Z" fill="#E0E0E0"/>
<path d="M67.7514 47.0695C69.7711 46.7759 72.4111 47.9136 73.0662 48.7026C72.5699 46.5924 69.0565 45.8905 67.6422 46.2071L67.7514 47.0695Z" fill="#E0E0E0"/>
<path d="M59.6575 49.8224C60.6053 49.5838 61.444 50.561 61.5184 53.4281C61.5928 56.2952 61.5184 69.0619 61.5184 69.0619C64.6943 69.2041 70.8279 66.8828 72.5995 65.791C72.7483 61.9652 72.5995 59.2357 72.5995 55.4098C72.5995 51.5839 73.1801 46.7213 67.6371 46.4919C64.3718 47.359 59.5434 49.4783 59.067 49.6618C58.5906 49.8453 58.5707 50.0105 58.5707 50.0105C58.9402 49.9912 59.3055 49.928 59.6575 49.8224Z" fill="#FAFAFA"/>
<path d="M67.672 46.7117C72.4657 46.9319 72.416 50.7302 72.3714 54.4093C72.3714 54.7442 72.3714 55.0837 72.3714 55.4094C72.3714 56.7305 72.3714 57.9187 72.4061 59.0793C72.4409 61.2124 72.4706 63.2308 72.3764 65.6805C70.4708 66.8044 64.8831 68.8641 61.8163 68.8641H61.7667C61.7667 67.176 61.8312 56.0699 61.7667 53.4368C61.6774 50.0834 60.5807 49.5834 59.9356 49.5834H59.881C62.4147 48.4821 65.02 47.5276 67.6819 46.7255M67.6521 46.5053C64.3869 47.3723 59.5584 49.4871 59.082 49.6751C58.6056 49.8632 58.5858 50.0238 58.5858 50.0238C58.9486 50.0029 59.3071 49.9398 59.6527 49.8357C59.7398 49.8122 59.83 49.7999 59.9207 49.799C60.7544 49.799 61.4491 50.8449 61.5136 53.4414C61.5881 56.3085 61.5136 69.0752 61.5136 69.0752H61.8014C65.0469 69.0752 70.8727 66.8595 72.5947 65.7998C72.7436 61.9739 72.5947 59.2444 72.5947 55.4185C72.5947 51.5927 73.1753 46.73 67.6323 46.5007L67.6521 46.5053Z" fill="#E0E0E0"/>
<path d="M62.337 25.0644L62.3668 23.3487C61.812 24.1118 61.0219 24.7032 60.099 25.0461C58.4118 25.7709 55.742 25.9406 55.742 25.9406L54.8984 27.3581L54.5957 25.6837C54.337 25.5935 54.1056 25.4472 53.9208 25.2571C53.7324 25.0624 53.5919 24.8324 53.5089 24.5827L53.5387 23.601C53.3355 24.2298 53.1698 24.8684 53.0424 25.514C52.9581 26.1103 52.9879 27.4177 55.0274 27.8077C57.067 28.1976 61.0418 27.3443 62.337 25.0644Z" fill="#E0E0E0"/>
<path d="M54.1394 28.0318C54.2744 27.909 54.3686 27.753 54.4108 27.5823C54.453 27.4116 54.4415 27.2333 54.3776 27.0685C53.6382 25.8253 51.9857 25.6326 51.5441 25.8024C50.7551 26.1005 50.765 28.6236 51.5838 28.8897C52.4026 29.1557 54.1593 28.1786 54.1394 28.0318Z" fill="#407BFF"/>
<path opacity="0.2" d="M54.1394 28.0318C54.2744 27.909 54.3686 27.753 54.4108 27.5823C54.453 27.4116 54.4415 27.2333 54.3776 27.0685C53.6382 25.8253 51.9857 25.6326 51.5441 25.8024C50.7551 26.1005 50.765 28.6236 51.5838 28.8897C52.4026 29.1557 54.1593 28.1786 54.1394 28.0318Z" fill="black"/>
<path opacity="0.1" d="M53.9257 27.3993C53.5684 27.2525 52.0896 26.5552 52.0003 26.835C51.8862 27.1882 53.6081 27.5185 53.6081 27.5185C53.6081 27.5185 51.901 27.624 52.0102 28.0048C52.0846 28.2617 53.8116 27.702 53.8116 27.702L53.9257 27.3993Z" fill="black"/>
<path d="M54.0152 27.1242L53.9358 27.1976C53.8286 27.3135 53.7529 27.4514 53.7149 27.5998C53.677 27.7482 53.6778 27.9028 53.7175 28.0509C53.778 28.1811 53.8712 28.296 53.9895 28.3862C54.1077 28.4763 54.2475 28.5391 54.3973 28.5692C54.5867 28.6194 54.7857 28.6306 54.9803 28.6021C55.1749 28.5735 55.3604 28.506 55.5238 28.4041C55.6646 28.3024 55.7698 28.1646 55.8263 28.008C55.8828 27.8513 55.888 27.6827 55.8414 27.5233C55.633 26.8398 54.5561 26.6838 54.0152 27.1242Z" fill="#407BFF"/>
<path opacity="0.3" d="M54.0152 27.1242L53.9358 27.1976C53.8286 27.3135 53.7529 27.4514 53.7149 27.5998C53.677 27.7482 53.6778 27.9028 53.7175 28.0509C53.778 28.1811 53.8712 28.296 53.9895 28.3862C54.1077 28.4763 54.2475 28.5391 54.3973 28.5692C54.5867 28.6194 54.7857 28.6306 54.9803 28.6021C55.1749 28.5735 55.3604 28.506 55.5238 28.4041C55.6646 28.3024 55.7698 28.1646 55.8263 28.008C55.8828 27.8513 55.888 27.6827 55.8414 27.5233C55.633 26.8398 54.5561 26.6838 54.0152 27.1242Z" fill="black"/>
<path d="M55.4543 27.4494C55.6081 26.9907 57.5633 25.7062 58.7345 26.4631C59.3448 26.8576 58.9429 29.2155 58.2382 29.4908C57.216 29.8715 55.7024 28.9632 55.4394 28.2476C55.38 28.1213 55.3506 27.9847 55.3532 27.847C55.3558 27.7093 55.3902 27.5737 55.4543 27.4494Z" fill="#407BFF"/>
<path opacity="0.2" d="M55.4543 27.4494C55.6081 26.9907 57.5633 25.7062 58.7345 26.4631C59.3448 26.8576 58.9429 29.2155 58.2382 29.4908C57.216 29.8715 55.7024 28.9632 55.4394 28.2476C55.38 28.1213 55.3506 27.9847 55.3532 27.847C55.3558 27.7093 55.3902 27.5737 55.4543 27.4494Z" fill="black"/>
<path opacity="0.1" d="M55.3752 27.6744C55.3675 27.74 55.3675 27.8061 55.3752 27.8717C55.5141 28.0001 57.2163 28.6102 57.256 28.3304C57.2957 28.0506 55.7027 27.734 55.7027 27.734C55.7027 27.734 57.5487 27.445 57.4445 27.1423C57.3602 26.9588 55.5787 27.5276 55.3752 27.6744Z" fill="black"/>
</svg>
