<svg width="231" height="223" viewBox="0 0 231 223" fill="none" xmlns="http://www.w3.org/2000/svg">
<g filter="url(#filter0_d_1_1320)">
<path d="M200.808 12.6104C199.589 11.3599 197.449 10.2089 193.791 10.1189C185.527 9.91992 187.725 15.7129 185.527 17.0819C183.328 18.4508 182.704 16.2861 180.487 17.6787C178.27 19.0713 179.278 21.8565 177.468 22.2544C175.659 22.6522 173.235 20.4497 171.017 21.8707C168.8 23.2917 168.8 24.4569 167.792 24.4569C166.784 24.4569 164.768 23.6612 163.559 24.4569C162.349 25.2527 160.938 26.2474 160.938 26.2474H182.58" stroke="#263238" stroke-linecap="round" stroke-linejoin="round"/>
<path d="M203.083 16.1864C202.887 16.0917 202.68 15.997 202.459 15.9022C202.362 15.1594 202.108 14.4448 201.716 13.8038" stroke="#263238" stroke-linecap="round" stroke-linejoin="round"/>
<path d="M185.349 26.2332H211.929C211.929 26.2332 212.534 24.4427 210.316 23.2491C208.099 22.0554 207.096 23.0501 206.29 22.0554C205.57 21.1696 207.888 19.0239 204.135 16.7361" stroke="#263238" stroke-linecap="round" stroke-linejoin="round"/>
<path d="M54.0277 20.9233C53.5477 20.4496 52.727 19.9759 51.3015 19.9759C48.0954 19.9001 48.9545 22.1406 48.0954 22.6806C47.2363 23.2206 47.0011 22.3727 46.1371 22.9127C45.2732 23.4527 45.6572 24.5326 44.966 24.689C44.2749 24.8453 43.3198 23.9927 42.4607 24.5326C41.6015 25.0726 41.6015 25.5368 41.208 25.5368C40.8144 25.5368 40.0369 25.2289 39.5665 25.5368C39.0962 25.8447 38.549 26.2331 38.549 26.2331H46.9483" stroke="#263238" stroke-linecap="round" stroke-linejoin="round"/>
<path d="M54.9108 22.3443L54.666 22.2353C54.6307 21.9465 54.5324 21.6685 54.3781 21.4206" stroke="#263238" stroke-linecap="round" stroke-linejoin="round"/>
<path d="M48.0281 26.2331H58.3424C58.3981 25.9979 58.3655 25.7508 58.2508 25.5375C58.1361 25.3241 57.947 25.159 57.7185 25.0726C56.8594 24.5989 56.4658 24.9968 56.1538 24.5989C55.8419 24.2011 56.773 23.4195 55.3187 22.5337" stroke="#263238" stroke-linecap="round" stroke-linejoin="round"/>
<path d="M169.635 7.79304C169.155 7.31936 168.339 6.84569 166.909 6.84569C163.727 6.75096 164.562 8.99143 163.727 9.5551C162.892 10.1188 162.633 9.24248 161.769 9.7872C160.905 10.3319 161.289 11.4072 160.598 11.5635C159.906 11.7198 158.951 10.8672 158.092 11.4072C157.233 11.9471 157.209 12.3971 156.816 12.3971C156.422 12.3971 155.644 12.0892 155.174 12.3971C154.704 12.705 154.157 13.0934 154.157 13.0934H162.556" stroke="#263238" stroke-linecap="round" stroke-linejoin="round"/>
<path d="M170.518 9.17623L170.274 9.06728C170.238 8.77839 170.14 8.50047 169.986 8.25256" stroke="#263238" stroke-linecap="round" stroke-linejoin="round"/>
<path d="M163.636 13.084H173.95C174.006 12.8489 173.973 12.6017 173.858 12.3884C173.744 12.1751 173.555 12.0099 173.326 11.9235C172.467 11.4499 172.073 11.8478 171.761 11.4499C171.449 11.052 172.366 10.2846 170.926 9.39413" stroke="#263238" stroke-linecap="round" stroke-linejoin="round"/>
<path d="M121.011 191.446C168.459 191.446 206.923 153.485 206.923 106.658C206.923 59.8313 168.459 21.8707 121.011 21.8707C73.5626 21.8707 35.0983 59.8313 35.0983 106.658C35.0983 153.485 73.5626 191.446 121.011 191.446Z" stroke="#263238" stroke-linejoin="round" stroke-dasharray="2 2"/>
<path d="M185.147 208.474H204.216" stroke="#263238" stroke-miterlimit="10"/>
<path d="M30.9034 208.474H181.754" stroke="#263238" stroke-miterlimit="10"/>
<path d="M190.681 157.464C190.502 157.466 190.325 157.422 190.168 157.336C190.041 157.27 189.929 157.18 189.838 157.071C189.747 156.962 189.679 156.836 189.638 156.701C189.596 156.566 189.582 156.424 189.597 156.283C189.611 156.143 189.653 156.006 189.721 155.882L193.278 149.317C193.42 149.077 193.651 148.901 193.922 148.826C194.193 148.751 194.483 148.782 194.731 148.913C194.98 149.044 195.167 149.265 195.254 149.529C195.341 149.793 195.321 150.081 195.198 150.331L191.636 156.896C191.544 157.067 191.407 157.21 191.239 157.31C191.07 157.41 190.878 157.464 190.681 157.464Z" fill="#263238"/>
<path d="M204.451 157.464C204.254 157.464 204.06 157.412 203.891 157.312C203.722 157.211 203.584 157.068 203.491 156.896L199.93 150.331C199.807 150.081 199.787 149.793 199.874 149.529C199.961 149.265 200.148 149.044 200.396 148.913C200.645 148.782 200.935 148.751 201.206 148.826C201.476 148.901 201.707 149.077 201.85 149.317L205.406 155.882C205.474 156.006 205.517 156.143 205.531 156.283C205.545 156.424 205.531 156.566 205.49 156.701C205.448 156.836 205.38 156.962 205.289 157.071C205.198 157.18 205.086 157.27 204.96 157.336C204.804 157.421 204.629 157.465 204.451 157.464Z" fill="#263238"/>
<path d="M197.564 153.03C202.948 153.03 207.312 148.723 207.312 143.41C207.312 138.097 202.948 133.79 197.564 133.79C192.18 133.79 187.816 138.097 187.816 143.41C187.816 148.723 192.18 153.03 197.564 153.03Z" fill="#407BFF" stroke="#263238" stroke-linecap="round" stroke-linejoin="round"/>
<path d="M197.564 151.657C202.179 151.657 205.92 147.965 205.92 143.41C205.92 138.856 202.179 135.164 197.564 135.164C192.949 135.164 189.208 138.856 189.208 143.41C189.208 147.965 192.949 151.657 197.564 151.657Z" fill="white" stroke="#263238" stroke-linecap="round" stroke-linejoin="round"/>
<path d="M197.717 137.305C197.717 137.305 197.564 144.021 197.564 143.41L199.263 146.769" stroke="#263238" stroke-miterlimit="10"/>
<path d="M203.083 133.335C202.898 132.064 202.255 130.902 201.271 130.061C200.288 129.22 199.031 128.758 197.729 128.758C196.428 128.758 195.171 129.22 194.188 130.061C193.204 130.902 192.561 132.064 192.376 133.335H203.083Z" fill="white" stroke="#263238" stroke-linecap="round" stroke-linejoin="round"/>
<path d="M197.564 144.021C197.906 144.021 198.183 143.748 198.183 143.41C198.183 143.073 197.906 142.799 197.564 142.799C197.222 142.799 196.945 143.073 196.945 143.41C196.945 143.748 197.222 144.021 197.564 144.021Z" fill="#263238" stroke="#263238" stroke-miterlimit="10"/>
<path d="M214.449 94.9014C214.45 96.2944 214.172 97.6737 213.632 98.9607C213.092 100.248 212.301 101.417 211.303 102.402C210.305 103.387 209.12 104.168 207.816 104.701C206.512 105.234 205.114 105.508 203.703 105.507C203.102 105.509 202.503 105.459 201.912 105.355C199.412 104.934 197.144 103.653 195.509 101.74C193.873 99.8268 192.976 97.4044 192.976 94.9014C192.976 92.3985 193.873 89.9761 195.509 88.063C197.144 86.1498 199.412 84.8692 201.912 84.4475C202.504 84.3481 203.103 84.2989 203.703 84.3007C205.114 84.3 206.511 84.5738 207.815 85.1062C209.118 85.6387 210.303 86.4194 211.301 87.4039C212.299 88.3883 213.091 89.5572 213.631 90.8436C214.171 92.1301 214.449 93.5089 214.449 94.9014Z" fill="#407BFF" stroke="#263238" stroke-linecap="round" stroke-linejoin="round"/>
<path d="M202.656 84.2722C207.36 85.3995 210.868 89.9136 210.868 94.9014C210.868 97.4075 209.969 99.8326 208.329 101.746C206.69 103.66 204.416 104.939 201.912 105.355" stroke="#263238" stroke-linecap="round" stroke-linejoin="round"/>
<path d="M196.076 87.261C197.905 87.261 200.703 87.8531 203.093 90.7378C207.043 95.4982 212.304 95.9482 214.06 91.6046" stroke="#263238" stroke-linecap="round" stroke-linejoin="round"/>
<path d="M193.004 95.7161C193.004 95.7161 207.6 102.314 214.444 94.9014" stroke="#263238" stroke-linecap="round" stroke-linejoin="round"/>
<path d="M197.113 103.143C198.993 103.39 200.905 103.142 202.656 102.423C206.165 100.908 209.28 100.116 210.768 101.125C210.978 101.249 211.161 101.412 211.306 101.607C211.451 101.801 211.555 102.023 211.612 102.258" stroke="#263238" stroke-linecap="round" stroke-linejoin="round"/>
<path d="M193.484 52.8676C193.484 57.6043 189.573 62.5968 185.805 62.5968C184.883 62.5968 182.498 62.5968 181.649 62.2794C177.003 60.5079 175.208 56.1217 175.208 52.3039C175.208 50.3239 175.812 48.164 177.401 46.8424C179.508 45.0898 181.831 46.1935 184.279 46.1935C186.41 46.1935 189.395 45.3314 190.998 46.5156C193.096 48.0029 193.484 50.5181 193.484 52.8676Z" fill="white" stroke="#263238" stroke-linejoin="round"/>
<path d="M190.979 49.694C190.672 50.2245 189.741 50.2624 188.901 49.784C188.061 49.3055 187.634 48.4908 187.941 47.965C188.248 47.4393 189.179 47.3966 190.019 47.8751C190.859 48.3535 191.291 49.1682 190.979 49.694Z" fill="white" stroke="#263238" stroke-linejoin="round"/>
<path d="M183.813 46.9182L183.976 46.544L186.256 41.3005L184.744 41.0684L183.232 46.3451L183.813 46.9182Z" fill="#263238" stroke="#263238" stroke-linejoin="round"/>
<path d="M184.164 43.361C184.164 43.361 183.117 41.0684 181.605 40.7273C180.094 40.3863 175.913 42.3331 175.913 42.3331C175.913 42.3331 178.001 43.8204 179.628 44.2799C181.255 44.7394 184.164 43.361 184.164 43.361Z" fill="#407BFF" stroke="#263238" stroke-linejoin="round"/>
<path d="M126.583 37.6014C126.247 35.7304 125.772 30.8563 126.18 29.0753C126.421 27.9871 126.511 26.8717 126.449 25.7596V19.1708C126.644 18.2895 126.621 17.3746 126.381 16.504C125.974 15.083 122.863 12.0941 122.863 12.0941V11.0283H122.667L121.807 10.9762H121.558H121.308L120.449 11.0094H120.252V12.0751C120.252 12.0751 117.142 15.083 116.734 16.485C116.499 17.3636 116.484 18.2853 116.691 19.1708V25.7169C116.628 26.8291 116.719 27.9445 116.96 29.0326C117.368 30.8326 116.893 35.7067 116.557 37.5587C116.221 39.4108 116.355 40.8318 117.435 41.3481C118.337 41.7934 120.795 41.4997 121.582 41.386C122.374 41.4997 124.826 41.7934 125.729 41.3481C126.77 40.8745 126.924 39.4724 126.583 37.6014Z" fill="white" stroke="#263238" stroke-linejoin="round"/>
<path d="M125.263 29.4116C125.46 28.4775 125.534 27.5223 125.484 26.5695V23.3912H117.651V26.5695C117.601 27.5223 117.675 28.4775 117.872 29.4116C118.193 30.951 117.814 35.0956 117.545 36.6966C117.277 38.2977 117.382 39.4866 118.251 39.9413C118.976 40.3202 120.944 40.0692 121.577 39.9745C122.211 40.0692 124.179 40.3202 124.903 39.9413C125.772 39.4676 125.863 38.2929 125.609 36.6966C125.354 35.1004 124.942 30.951 125.263 29.4116Z" fill="#407BFF"/>
<path d="M123.166 9.48889H119.916V11.2936H123.166V9.48889Z" fill="#263238" stroke="#263238" stroke-linejoin="round"/>
<path d="M116.869 18.5029H126.343" stroke="#263238" stroke-linejoin="round"/>
<path d="M120.694 25.1816H125.935" stroke="#263238" stroke-linejoin="round"/>
<path d="M117.21 25.1816H118.784" stroke="#263238" stroke-linejoin="round"/>
<path d="M53.0247 50.7268H55.3861L57.9587 45.9901L60.5696 51.6742L61.016 50.5042H64.2845L67.7642 42.7028L70.0056 49.9689H74.0996C75.2428 48.6565 75.8415 46.9664 75.7756 45.2369C75.7097 43.5074 74.9843 41.8663 73.7445 40.6423C72.4384 39.3534 70.6671 38.6293 68.8201 38.6293C66.9731 38.6293 65.2018 39.3534 63.8957 40.6423L63.1758 41.3528L62.4559 40.6376C61.1406 39.3964 59.3854 38.7125 57.5657 38.7324C55.7461 38.7522 54.0066 39.4742 52.7195 40.7438C51.4324 42.0134 50.7 43.7298 50.679 45.5256C50.658 47.3214 51.3501 49.054 52.6071 50.3526L53.0247 50.7268Z" fill="#407BFF" stroke="#263238" stroke-linejoin="round"/>
<path d="M69.1034 51.1292L67.5579 46.1083L65.0814 51.6645H61.856L60.6801 54.767L57.8724 48.6803L56.1157 51.9297H54.2439L63.1759 60.7448L72.9239 51.1292H69.1034Z" fill="#407BFF" stroke="#263238" stroke-linejoin="round"/>
<path d="M30.5771 91.5763C30.5771 91.5763 30.1403 90.1553 28.8204 89.8427C27.5005 89.5301 24.7216 89.9848 24.2848 88.398C23.848 86.8112 25.8927 87.2422 25.4559 85.9396C25.0191 84.637 21.7986 84.6418 21.0643 82.1834C20.3299 79.725 21.3571 77.1293 23.2577 77.9961C25.1583 78.863 26.0415 82.4723 26.771 83.917C27.5005 85.3617 27.3565 82.4723 29.406 82.1834C31.4554 81.8945 33.5048 83.486 32.1897 85.4991C30.8746 87.5122 30.9226 89.0943 31.1626 90.1222C31.3306 90.8374 31.3738 90.7806 31.3738 90.7806L30.5771 91.5763Z" fill="#407BFF" stroke="#263238" stroke-linejoin="round"/>
<path d="M23.2625 81.7332C22.857 81.1513 22.5671 80.4987 22.4082 79.8101" stroke="#263238" stroke-miterlimit="10"/>
<path d="M31.057 91.235C30.7392 89.9737 30.1036 88.8119 29.2092 87.8578C27.6781 86.1667 25.6959 85.0157 24.1216 82.9647C23.9921 82.7989 23.8769 82.6426 23.7665 82.491" stroke="#263238" stroke-miterlimit="10"/>
<path d="M35.1702 89.2221C35.1702 89.2221 28.4796 90.5437 28.4796 96.8009C28.4796 103.058 46.5404 115.274 47.8795 112.977C49.2186 110.679 42.6432 96.9856 40.9681 94.0299C39.2931 91.0742 37.498 88.8905 35.1702 89.2221Z" fill="white" stroke="#263238" stroke-miterlimit="10"/>
<path d="M30.4332 101.395C30.4332 101.395 32.7754 97.9281 34.9688 96.9192" stroke="#263238" stroke-miterlimit="10"/>
<path d="M42.1393 97.9283C40.5009 98.604 39.0098 99.585 37.7477 100.818" stroke="#263238" stroke-miterlimit="10"/>
<path d="M38.938 108.619C39.6528 106.98 40.8851 105.612 42.4513 104.721" stroke="#263238" stroke-miterlimit="10"/>
<path d="M38.482 94.8967L37.0181 95.7635" stroke="#263238" stroke-miterlimit="10"/>
<path d="M44.4815 103.707L43.4592 103.996" stroke="#263238" stroke-miterlimit="10"/>
<path d="M42.1488 153.755C48.166 153.755 53.0439 148.941 53.0439 143.003C53.0439 137.065 48.166 132.251 42.1488 132.251C36.1317 132.251 31.2538 137.065 31.2538 143.003C31.2538 148.941 36.1317 153.755 42.1488 153.755Z" fill="#407BFF" stroke="#263238" stroke-linecap="round" stroke-linejoin="round"/>
<path d="M44.9853 135.552C44.9853 137.39 43.291 141.35 42.1487 141.35C41.0064 141.35 39.3122 137.39 39.3122 135.552C39.3122 133.714 41.0064 133.184 42.1487 133.184C43.291 133.184 44.9853 133.705 44.9853 135.552Z" fill="white" stroke="#263238" stroke-linecap="round" stroke-linejoin="round"/>
<path d="M37.0179 136.845C38.6306 137.764 41.4287 140.791 40.8576 141.767C40.2864 142.743 35.7988 142.615 34.1814 141.696C32.5639 140.777 32.9431 139.057 33.5142 138.082C34.0854 137.106 35.4101 135.926 37.0179 136.845Z" fill="white" stroke="#263238" stroke-linecap="round" stroke-linejoin="round"/>
<path d="M34.1815 144.306C35.7941 143.387 40.4209 142.582 40.9777 143.557C41.5344 144.533 38.6355 148.237 37.0228 149.156C35.4102 150.075 34.0855 148.9 33.5143 147.925C32.9432 146.949 32.5688 145.225 34.1815 144.306Z" fill="white" stroke="#263238" stroke-linecap="round" stroke-linejoin="round"/>
<path d="M39.3122 150.464C39.3122 148.626 41.0064 144.145 42.1487 144.145C43.291 144.145 44.9853 148.626 44.9853 150.464C44.9853 152.301 43.291 152.832 42.1487 152.832C41.0064 152.832 39.3122 152.301 39.3122 150.464Z" fill="white" stroke="#263238" stroke-linecap="round" stroke-linejoin="round"/>
<path d="M47.2746 149.156C45.662 148.237 43.0078 144.77 43.5838 143.794C44.1597 142.818 48.4985 143.387 50.1112 144.306C51.7239 145.225 51.3543 146.944 50.7831 147.925C50.212 148.905 48.8873 150.075 47.2746 149.156Z" fill="white" stroke="#263238" stroke-linecap="round" stroke-linejoin="round"/>
<path d="M50.116 141.71C48.4985 142.629 44.1549 143.027 43.5838 142.051C43.0126 141.075 45.662 137.788 47.2746 136.841C48.8873 135.893 50.212 137.101 50.7831 138.077C51.3543 139.053 51.7286 140.763 50.116 141.71Z" fill="white" stroke="#263238" stroke-linecap="round" stroke-linejoin="round"/>
<path d="M202.364 180.286C202.364 180.286 202.767 178.841 202.781 178.746C202.935 177.648 202.58 175.431 201.447 174.9C201.257 174.816 201.05 174.771 200.842 174.77C200.633 174.77 200.426 174.812 200.235 174.895C200.044 174.978 199.873 175.1 199.733 175.253C199.593 175.405 199.487 175.585 199.422 175.781C199.119 176.605 199.503 177.614 199.959 178.311C200.497 179.13 202.364 180.286 202.364 180.286Z" fill="#263238"/>
<path d="M180.046 179.807C180.948 180.196 183.156 180.148 183.156 180.148C183.156 180.148 182.676 178.727 182.637 178.637C182.157 177.638 180.622 175.985 179.378 176.151C179.172 176.184 178.976 176.26 178.801 176.374C178.627 176.488 178.478 176.636 178.366 176.81C178.253 176.983 178.179 177.178 178.147 177.382C178.116 177.586 178.128 177.794 178.183 177.993C178.39 178.846 179.278 179.476 180.046 179.807Z" fill="#263238"/>
<path d="M180.809 186.117C181.769 186.249 183.713 185.686 183.866 185.643C184.19 186.754 184.59 187.843 185.061 188.902C185.335 189.522 185.628 190.138 185.925 190.749C185.748 190.493 185.584 190.276 185.56 190.233C184.826 189.395 182.906 188.201 181.749 188.684C181.559 188.77 181.39 188.895 181.252 189.049C181.113 189.204 181.01 189.386 180.947 189.583C180.885 189.78 180.865 189.988 180.889 190.193C180.913 190.398 180.981 190.595 181.087 190.773C181.514 191.54 182.527 191.919 183.372 192.038C184.216 192.156 185.901 191.711 186.347 191.588C186.463 191.82 186.578 192.061 186.698 192.289C187.269 193.411 187.84 194.524 188.373 195.638C188.56 196.031 188.728 196.424 188.896 196.812C188.738 196.585 188.603 196.391 188.579 196.362C187.845 195.524 185.925 194.33 184.768 194.818C184.579 194.904 184.409 195.028 184.271 195.182C184.133 195.337 184.029 195.518 183.967 195.715C183.904 195.911 183.884 196.118 183.908 196.323C183.932 196.528 184 196.725 184.106 196.902C184.538 197.67 185.546 198.049 186.391 198.172C187.235 198.295 188.757 197.888 189.27 197.741C189.434 198.148 189.597 198.555 189.75 198.958C189.837 199.233 189.942 199.493 190.014 199.773C190.086 200.052 190.173 200.327 190.25 200.602C190.379 201.132 190.514 201.677 190.629 202.198C190.71 202.558 190.777 202.904 190.849 203.25C190.672 202.861 190.298 202.098 190.259 202.042C189.664 201.094 187.951 199.635 186.731 199.943C186.531 200 186.345 200.097 186.186 200.23C186.026 200.362 185.897 200.526 185.806 200.711C185.716 200.897 185.666 201.099 185.66 201.304C185.654 201.51 185.692 201.714 185.772 201.904C186.074 202.728 187.029 203.254 187.831 203.501C188.714 203.766 190.667 203.501 190.912 203.501C191.027 204.074 191.137 204.637 191.229 205.168C191.43 206.276 191.579 207.28 191.709 208.138H192.525C192.385 207.247 192.203 206.2 191.968 205.035C191.853 204.448 191.713 203.823 191.569 203.183C192.157 202.951 192.731 202.686 193.288 202.387C193.931 203.074 195.577 203.879 195.793 203.984C195.567 204.528 195.347 205.054 195.126 205.547C194.699 206.523 194.291 207.389 193.926 208.138H194.814C195.121 207.451 195.462 206.684 195.812 205.836C196.043 205.282 196.292 204.689 196.513 204.074C196.748 204.126 198.682 204.514 199.585 204.311C200.405 204.131 201.394 203.671 201.759 202.89C201.852 202.705 201.905 202.502 201.913 202.296C201.922 202.09 201.886 201.884 201.809 201.693C201.731 201.501 201.614 201.327 201.464 201.183C201.314 201.04 201.135 200.928 200.938 200.857C199.748 200.464 197.929 201.805 197.262 202.691C197.223 202.743 196.859 203.363 196.638 203.756C196.734 203.505 196.83 203.283 196.921 203.003C197.113 202.492 197.286 201.975 197.478 201.421C197.559 201.151 197.641 200.876 197.727 200.597C197.814 200.317 197.876 200.029 197.948 199.74C198.111 199.067 198.241 198.38 198.361 197.684C198.812 197.845 200.434 198.404 201.274 198.347C202.114 198.29 203.16 197.982 203.645 197.248C203.766 197.081 203.85 196.89 203.892 196.689C203.933 196.487 203.931 196.28 203.886 196.079C203.841 195.878 203.753 195.689 203.629 195.524C203.505 195.359 203.347 195.222 203.165 195.121C202.047 194.553 200.045 195.595 199.249 196.381C199.201 196.433 198.692 197.054 198.418 197.404C198.486 196.983 198.558 196.566 198.61 196.14C198.764 194.908 198.884 193.658 199.004 192.412C199.042 192.033 199.086 191.654 199.124 191.27C199.287 191.332 201.202 192.033 202.143 191.967C202.978 191.91 204.024 191.607 204.509 190.872C204.63 190.705 204.714 190.515 204.756 190.313C204.797 190.112 204.795 189.904 204.75 189.703C204.705 189.503 204.617 189.314 204.493 189.149C204.369 188.984 204.211 188.846 204.029 188.746C202.911 188.177 200.909 189.219 200.113 190.006C200.055 190.067 199.326 190.953 199.153 191.199C199.244 190.366 199.34 189.527 199.47 188.712C199.638 187.605 199.88 186.51 200.194 185.435C200.266 185.463 202.263 186.207 203.228 186.136C204.063 186.079 205.109 185.776 205.594 185.042C205.715 184.874 205.799 184.684 205.84 184.482C205.882 184.281 205.88 184.073 205.835 183.872C205.789 183.672 205.702 183.483 205.578 183.318C205.453 183.153 205.295 183.015 205.114 182.915C203.996 182.346 201.994 183.388 201.197 184.175C201.145 184.227 200.593 184.909 200.333 185.24L200.271 185.207C200.615 184.134 201.057 183.094 201.591 182.1C201.874 181.546 202.181 181.034 202.488 180.542C202.844 180.717 204.485 181.489 205.368 181.541C206.251 181.593 207.288 181.385 207.845 180.707C207.983 180.553 208.086 180.371 208.148 180.174C208.21 179.978 208.23 179.77 208.205 179.566C208.181 179.361 208.113 179.164 208.006 178.987C207.899 178.81 207.756 178.657 207.586 178.538C206.539 177.851 204.432 178.675 203.554 179.367C203.506 179.405 203.074 179.841 202.748 180.158C202.887 179.94 203.031 179.713 203.17 179.504C203.698 178.723 204.226 178.036 204.701 177.434C204.975 177.098 205.229 176.795 205.469 176.515C205.911 176.515 207.686 176.454 208.469 176.094C209.251 175.734 210.091 175.085 210.278 174.228C210.328 174.027 210.334 173.819 210.298 173.617C210.261 173.414 210.181 173.221 210.064 173.05C209.947 172.88 209.795 172.735 209.617 172.627C209.44 172.518 209.242 172.447 209.035 172.418C207.782 172.285 206.299 173.977 205.839 174.99C205.8 175.075 205.359 176.515 205.359 176.515H205.383C205.147 176.781 204.903 177.065 204.629 177.387C204.149 177.979 203.592 178.652 203.05 179.424C202.451 180.251 201.903 181.113 201.409 182.005C200.849 182.998 200.38 184.038 200.007 185.113C200.007 185.113 200.007 185.141 200.007 185.155C200.007 184.79 200.007 183.772 200.007 183.696C199.863 182.597 198.927 180.556 197.694 180.333C197.483 180.287 197.264 180.286 197.053 180.332C196.842 180.377 196.643 180.468 196.471 180.597C196.299 180.726 196.157 180.89 196.056 181.078C195.954 181.267 195.896 181.475 195.884 181.688C195.812 182.564 196.455 183.436 197.079 183.985C197.785 184.61 199.743 185.212 199.897 185.259C199.546 186.363 199.27 187.488 199.071 188.627C198.951 189.29 198.85 189.963 198.759 190.64C198.759 190.328 198.759 190.043 198.759 190.006C198.615 188.907 197.679 186.865 196.446 186.643C196.239 186.61 196.029 186.621 195.827 186.675C195.625 186.729 195.437 186.823 195.275 186.953C195.113 187.083 194.981 187.246 194.886 187.43C194.792 187.614 194.738 187.815 194.728 188.021C194.656 188.897 195.299 189.769 195.923 190.323C196.547 190.877 198.217 191.427 198.654 191.564C198.625 191.825 198.586 192.085 198.558 192.341C198.404 193.587 198.26 194.832 198.078 196.045C198.015 196.476 197.934 196.893 197.857 197.314C197.857 197.035 197.857 196.798 197.857 196.765C197.713 195.666 196.782 193.624 195.543 193.402C195.337 193.37 195.126 193.381 194.925 193.434C194.723 193.488 194.535 193.583 194.373 193.713C194.211 193.843 194.078 194.005 193.984 194.189C193.89 194.373 193.835 194.574 193.825 194.78C193.753 195.652 194.396 196.528 195.02 197.078C195.644 197.627 197.151 198.129 197.674 198.3C197.583 198.726 197.492 199.152 197.387 199.564C197.305 199.844 197.247 200.119 197.151 200.393C197.055 200.668 196.974 200.938 196.883 201.208C196.695 201.72 196.503 202.25 196.307 202.747C196.172 203.088 196.038 203.415 195.903 203.747C195.971 203.321 196.086 202.487 196.086 202.416C196.074 201.44 195.808 200.485 195.313 199.64C195.323 199.533 195.323 199.425 195.313 199.318C195.287 199.113 195.218 198.917 195.109 198.74C195.001 198.564 194.857 198.412 194.685 198.295C194.514 198.177 194.319 198.097 194.114 198.058C193.908 198.02 193.697 198.025 193.494 198.072C192.28 198.39 191.507 200.493 191.449 201.601C191.449 201.667 191.488 202.378 191.526 202.828C191.464 202.567 191.406 202.312 191.339 202.046C191.214 201.516 191.07 200.99 190.917 200.422C190.835 200.152 190.753 199.877 190.667 199.602C190.581 199.327 190.47 199.048 190.374 198.764C190.134 198.115 189.856 197.471 189.568 196.826C190.048 196.713 191.699 196.296 192.371 195.789C193.043 195.282 193.739 194.463 193.734 193.587C193.739 193.381 193.701 193.176 193.621 192.985C193.541 192.795 193.421 192.624 193.269 192.482C193.118 192.34 192.938 192.232 192.741 192.163C192.544 192.095 192.334 192.068 192.126 192.085C190.878 192.218 189.794 194.183 189.563 195.268C189.563 195.334 189.477 196.13 189.443 196.571C189.266 196.182 189.088 195.799 188.896 195.415C188.339 194.302 187.735 193.198 187.144 192.099L186.607 191.081C186.77 191.043 188.762 190.607 189.51 190.02C190.173 189.518 190.878 188.694 190.873 187.817C190.88 187.611 190.842 187.406 190.762 187.215C190.682 187.025 190.562 186.853 190.41 186.711C190.259 186.569 190.078 186.461 189.881 186.393C189.684 186.324 189.474 186.298 189.266 186.316C188.018 186.448 186.933 188.414 186.707 189.499C186.707 189.579 186.583 190.726 186.573 191.019C186.179 190.271 185.791 189.522 185.445 188.769C184.966 187.755 184.556 186.711 184.216 185.643C184.293 185.643 186.371 185.169 187.139 184.577C187.807 184.075 188.512 183.251 188.502 182.375C188.508 182.169 188.469 181.964 188.389 181.773C188.309 181.583 188.19 181.411 188.038 181.269C187.886 181.127 187.706 181.018 187.509 180.949C187.312 180.88 187.103 180.852 186.895 180.868C185.647 181.006 184.562 182.972 184.336 184.056C184.336 184.127 184.24 185.004 184.212 185.416H184.14C183.828 184.331 183.615 183.222 183.501 182.1C183.429 181.484 183.396 180.892 183.381 180.314C183.775 180.267 185.584 180.03 186.333 179.58C187.082 179.13 187.84 178.41 187.931 177.539C187.961 177.334 187.945 177.125 187.887 176.926C187.828 176.727 187.728 176.543 187.591 176.385C187.455 176.228 187.287 176.1 187.097 176.012C186.908 175.923 186.701 175.875 186.491 175.871C185.239 175.871 183.938 177.704 183.612 178.756C183.612 178.817 183.468 179.419 183.381 179.86C183.381 179.599 183.381 179.329 183.381 179.078C183.381 178.131 183.444 177.283 183.501 176.52C183.54 176.089 183.583 175.701 183.626 175.336C183.991 175.09 185.44 174.076 185.892 173.351C186.343 172.627 186.683 171.627 186.371 170.812C186.302 170.618 186.191 170.44 186.047 170.29C185.903 170.14 185.729 170.022 185.535 169.944C185.342 169.865 185.134 169.827 184.925 169.834C184.716 169.84 184.51 169.889 184.322 169.979C183.209 170.552 182.911 172.769 183.098 173.863C183.098 173.958 183.535 175.407 183.554 175.393H183.578C183.53 175.743 183.477 176.118 183.434 176.53C183.357 177.287 183.281 178.15 183.257 179.092C183.222 180.106 183.246 181.122 183.329 182.133C183.419 183.267 183.61 184.391 183.9 185.491V185.529C183.703 185.222 183.117 184.383 183.069 184.326C182.335 183.488 180.415 182.294 179.258 182.777C179.068 182.863 178.899 182.988 178.761 183.143C178.622 183.298 178.519 183.479 178.456 183.676C178.394 183.873 178.374 184.081 178.398 184.286C178.422 184.491 178.49 184.689 178.596 184.866C178.951 185.619 179.978 185.998 180.809 186.117Z" fill="#263238"/>
<path opacity="0.3" d="M180.046 179.807C180.948 180.196 183.156 180.148 183.156 180.148C183.156 180.148 182.676 178.727 182.637 178.637C182.157 177.638 180.622 175.985 179.378 176.151C179.172 176.184 178.976 176.26 178.801 176.374C178.627 176.488 178.478 176.636 178.366 176.81C178.253 176.983 178.179 177.178 178.147 177.382C178.116 177.586 178.128 177.794 178.183 177.993C178.39 178.846 179.278 179.476 180.046 179.807Z" fill="#263238"/>
<path opacity="0.3" d="M202.364 180.286C202.364 180.286 202.767 178.841 202.781 178.746C202.935 177.648 202.58 175.431 201.447 174.9C201.257 174.816 201.05 174.771 200.842 174.77C200.633 174.77 200.426 174.812 200.235 174.895C200.044 174.978 199.873 175.1 199.733 175.253C199.593 175.405 199.487 175.585 199.422 175.781C199.119 176.605 199.503 177.614 199.959 178.311C200.497 179.13 202.364 180.286 202.364 180.286Z" fill="#263238"/>
<path opacity="0.3" d="M180.809 186.117C181.769 186.249 183.713 185.686 183.866 185.643C184.19 186.754 184.59 187.843 185.061 188.902C185.335 189.522 185.628 190.138 185.925 190.749C185.748 190.493 185.584 190.276 185.56 190.233C184.826 189.395 182.906 188.201 181.749 188.684C181.559 188.77 181.39 188.895 181.252 189.049C181.113 189.204 181.01 189.386 180.947 189.583C180.885 189.78 180.865 189.988 180.889 190.193C180.913 190.398 180.981 190.595 181.087 190.773C181.514 191.54 182.527 191.919 183.372 192.038C184.216 192.156 185.901 191.711 186.347 191.588C186.463 191.82 186.578 192.061 186.698 192.289C187.269 193.411 187.84 194.524 188.373 195.638C188.56 196.031 188.728 196.424 188.896 196.812C188.738 196.585 188.603 196.391 188.579 196.362C187.845 195.524 185.925 194.33 184.768 194.818C184.579 194.904 184.409 195.028 184.271 195.182C184.133 195.337 184.029 195.518 183.967 195.715C183.904 195.911 183.884 196.118 183.908 196.323C183.932 196.528 184 196.725 184.106 196.902C184.538 197.67 185.546 198.049 186.391 198.172C187.235 198.295 188.757 197.888 189.27 197.741C189.434 198.148 189.597 198.555 189.75 198.958C189.837 199.233 189.942 199.493 190.014 199.773C190.086 200.052 190.173 200.327 190.25 200.602C190.379 201.132 190.514 201.677 190.629 202.198C190.71 202.558 190.777 202.904 190.849 203.25C190.672 202.861 190.298 202.098 190.259 202.042C189.664 201.094 187.951 199.635 186.731 199.943C186.531 200 186.345 200.097 186.186 200.23C186.026 200.362 185.897 200.526 185.806 200.711C185.716 200.897 185.666 201.099 185.66 201.304C185.654 201.51 185.692 201.714 185.772 201.904C186.074 202.728 187.029 203.254 187.831 203.501C188.714 203.766 190.667 203.501 190.912 203.501C191.027 204.074 191.137 204.637 191.229 205.168C191.43 206.276 191.579 207.28 191.709 208.138H192.525C192.385 207.247 192.203 206.2 191.968 205.035C191.853 204.448 191.713 203.823 191.569 203.183C192.157 202.951 192.731 202.686 193.288 202.387C193.931 203.074 195.577 203.879 195.793 203.984C195.567 204.528 195.347 205.054 195.126 205.547C194.699 206.523 194.291 207.389 193.926 208.138H194.814C195.121 207.451 195.462 206.684 195.812 205.836C196.043 205.282 196.292 204.689 196.513 204.074C196.748 204.126 198.682 204.514 199.585 204.311C200.405 204.131 201.394 203.671 201.759 202.89C201.852 202.705 201.905 202.502 201.913 202.296C201.922 202.09 201.886 201.884 201.809 201.693C201.731 201.501 201.614 201.327 201.464 201.183C201.314 201.04 201.135 200.928 200.938 200.857C199.748 200.464 197.929 201.805 197.262 202.691C197.223 202.743 196.859 203.363 196.638 203.756C196.734 203.505 196.83 203.283 196.921 203.003C197.113 202.492 197.286 201.975 197.478 201.421C197.559 201.151 197.641 200.876 197.727 200.597C197.814 200.317 197.876 200.029 197.948 199.74C198.111 199.067 198.241 198.38 198.361 197.684C198.812 197.845 200.434 198.404 201.274 198.347C202.114 198.29 203.16 197.982 203.645 197.248C203.766 197.081 203.85 196.89 203.892 196.689C203.933 196.487 203.931 196.28 203.886 196.079C203.841 195.878 203.753 195.689 203.629 195.524C203.505 195.359 203.347 195.222 203.165 195.121C202.047 194.553 200.045 195.595 199.249 196.381C199.201 196.433 198.692 197.054 198.418 197.404C198.486 196.983 198.558 196.566 198.61 196.14C198.764 194.908 198.884 193.658 199.004 192.412C199.042 192.033 199.086 191.654 199.124 191.27C199.287 191.332 201.202 192.033 202.143 191.967C202.978 191.91 204.024 191.607 204.509 190.872C204.63 190.705 204.714 190.515 204.756 190.313C204.797 190.112 204.795 189.904 204.75 189.703C204.705 189.503 204.617 189.314 204.493 189.149C204.369 188.984 204.211 188.846 204.029 188.746C202.911 188.177 200.909 189.219 200.113 190.006C200.055 190.067 199.326 190.953 199.153 191.199C199.244 190.366 199.34 189.527 199.47 188.712C199.638 187.605 199.88 186.51 200.194 185.435C200.266 185.463 202.263 186.207 203.228 186.136C204.063 186.079 205.109 185.776 205.594 185.042C205.715 184.874 205.799 184.684 205.84 184.482C205.882 184.281 205.88 184.073 205.835 183.872C205.789 183.672 205.702 183.483 205.578 183.318C205.453 183.153 205.295 183.015 205.114 182.915C203.996 182.346 201.994 183.388 201.197 184.175C201.145 184.227 200.593 184.909 200.333 185.24L200.271 185.207C200.615 184.134 201.057 183.094 201.591 182.1C201.874 181.546 202.181 181.034 202.488 180.542C202.844 180.717 204.485 181.489 205.368 181.541C206.251 181.593 207.288 181.385 207.845 180.707C207.983 180.553 208.086 180.371 208.148 180.174C208.21 179.978 208.23 179.77 208.205 179.566C208.181 179.361 208.113 179.164 208.006 178.987C207.899 178.81 207.756 178.657 207.586 178.538C206.539 177.851 204.432 178.675 203.554 179.367C203.506 179.405 203.074 179.841 202.748 180.158C202.887 179.94 203.031 179.713 203.17 179.504C203.698 178.723 204.226 178.036 204.701 177.434C204.975 177.098 205.229 176.795 205.469 176.515C205.911 176.515 207.686 176.454 208.469 176.094C209.251 175.734 210.091 175.085 210.278 174.228C210.328 174.027 210.334 173.819 210.298 173.617C210.261 173.414 210.181 173.221 210.064 173.05C209.947 172.88 209.795 172.735 209.617 172.627C209.44 172.518 209.242 172.447 209.035 172.418C207.782 172.285 206.299 173.977 205.839 174.99C205.8 175.075 205.359 176.515 205.359 176.515H205.383C205.147 176.781 204.903 177.065 204.629 177.387C204.149 177.979 203.592 178.652 203.05 179.424C202.451 180.251 201.903 181.113 201.409 182.005C200.849 182.998 200.38 184.038 200.007 185.113C200.007 185.113 200.007 185.141 200.007 185.155C200.007 184.79 200.007 183.772 200.007 183.696C199.863 182.597 198.927 180.556 197.694 180.333C197.483 180.287 197.264 180.286 197.053 180.332C196.842 180.377 196.643 180.468 196.471 180.597C196.299 180.726 196.157 180.89 196.056 181.078C195.954 181.267 195.896 181.475 195.884 181.688C195.812 182.564 196.455 183.436 197.079 183.985C197.785 184.61 199.743 185.212 199.897 185.259C199.546 186.363 199.27 187.488 199.071 188.627C198.951 189.29 198.85 189.963 198.759 190.64C198.759 190.328 198.759 190.043 198.759 190.006C198.615 188.907 197.679 186.865 196.446 186.643C196.239 186.61 196.029 186.621 195.827 186.675C195.625 186.729 195.437 186.823 195.275 186.953C195.113 187.083 194.981 187.246 194.886 187.43C194.792 187.614 194.738 187.815 194.728 188.021C194.656 188.897 195.299 189.769 195.923 190.323C196.547 190.877 198.217 191.427 198.654 191.564C198.625 191.825 198.586 192.085 198.558 192.341C198.404 193.587 198.26 194.832 198.078 196.045C198.015 196.476 197.934 196.893 197.857 197.314C197.857 197.035 197.857 196.798 197.857 196.765C197.713 195.666 196.782 193.624 195.543 193.402C195.337 193.37 195.126 193.381 194.925 193.434C194.723 193.488 194.535 193.583 194.373 193.713C194.211 193.843 194.078 194.005 193.984 194.189C193.89 194.373 193.835 194.574 193.825 194.78C193.753 195.652 194.396 196.528 195.02 197.078C195.644 197.627 197.151 198.129 197.674 198.3C197.583 198.726 197.492 199.152 197.387 199.564C197.305 199.844 197.247 200.119 197.151 200.393C197.055 200.668 196.974 200.938 196.883 201.208C196.695 201.72 196.503 202.25 196.307 202.747C196.172 203.088 196.038 203.415 195.903 203.747C195.971 203.321 196.086 202.487 196.086 202.416C196.074 201.44 195.808 200.485 195.313 199.64C195.323 199.533 195.323 199.425 195.313 199.318C195.287 199.113 195.218 198.917 195.109 198.74C195.001 198.564 194.857 198.412 194.685 198.295C194.514 198.177 194.319 198.097 194.114 198.058C193.908 198.02 193.697 198.025 193.494 198.072C192.28 198.39 191.507 200.493 191.449 201.601C191.449 201.667 191.488 202.378 191.526 202.828C191.464 202.567 191.406 202.312 191.339 202.046C191.214 201.516 191.07 200.99 190.917 200.422C190.835 200.152 190.753 199.877 190.667 199.602C190.581 199.327 190.47 199.048 190.374 198.764C190.134 198.115 189.856 197.471 189.568 196.826C190.048 196.713 191.699 196.296 192.371 195.789C193.043 195.282 193.739 194.463 193.734 193.587C193.739 193.381 193.701 193.176 193.621 192.985C193.541 192.795 193.421 192.624 193.269 192.482C193.118 192.34 192.938 192.232 192.741 192.163C192.544 192.095 192.334 192.068 192.126 192.085C190.878 192.218 189.794 194.183 189.563 195.268C189.563 195.334 189.477 196.13 189.443 196.571C189.266 196.182 189.088 195.799 188.896 195.415C188.339 194.302 187.735 193.198 187.144 192.099L186.607 191.081C186.77 191.043 188.762 190.607 189.51 190.02C190.173 189.518 190.878 188.694 190.873 187.817C190.88 187.611 190.842 187.406 190.762 187.215C190.682 187.025 190.562 186.853 190.41 186.711C190.259 186.569 190.078 186.461 189.881 186.393C189.684 186.324 189.474 186.298 189.266 186.316C188.018 186.448 186.933 188.414 186.707 189.499C186.707 189.579 186.583 190.726 186.573 191.019C186.179 190.271 185.791 189.522 185.445 188.769C184.966 187.755 184.556 186.711 184.216 185.643C184.293 185.643 186.371 185.169 187.139 184.577C187.807 184.075 188.512 183.251 188.502 182.375C188.508 182.169 188.469 181.964 188.389 181.773C188.309 181.583 188.19 181.411 188.038 181.269C187.886 181.127 187.706 181.018 187.509 180.949C187.312 180.88 187.103 180.852 186.895 180.868C185.647 181.006 184.562 182.972 184.336 184.056C184.336 184.127 184.24 185.004 184.212 185.416H184.14C183.828 184.331 183.615 183.222 183.501 182.1C183.429 181.484 183.396 180.892 183.381 180.314C183.775 180.267 185.584 180.03 186.333 179.58C187.082 179.13 187.84 178.41 187.931 177.539C187.961 177.334 187.945 177.125 187.887 176.926C187.828 176.727 187.728 176.543 187.591 176.385C187.455 176.228 187.287 176.1 187.097 176.012C186.908 175.923 186.701 175.875 186.491 175.871C185.239 175.871 183.938 177.704 183.612 178.756C183.612 178.817 183.468 179.419 183.381 179.86C183.381 179.599 183.381 179.329 183.381 179.078C183.381 178.131 183.444 177.283 183.501 176.52C183.54 176.089 183.583 175.701 183.626 175.336C183.991 175.09 185.44 174.076 185.892 173.351C186.343 172.627 186.683 171.627 186.371 170.812C186.302 170.618 186.191 170.44 186.047 170.29C185.903 170.14 185.729 170.022 185.535 169.944C185.342 169.865 185.134 169.827 184.925 169.834C184.716 169.84 184.51 169.889 184.322 169.979C183.209 170.552 182.911 172.769 183.098 173.863C183.098 173.958 183.535 175.407 183.554 175.393H183.578C183.53 175.743 183.477 176.118 183.434 176.53C183.357 177.287 183.281 178.15 183.257 179.092C183.222 180.106 183.246 181.122 183.329 182.133C183.419 183.267 183.61 184.391 183.9 185.491V185.529C183.703 185.222 183.117 184.383 183.069 184.326C182.335 183.488 180.415 182.294 179.258 182.777C179.068 182.863 178.899 182.988 178.761 183.143C178.622 183.298 178.519 183.479 178.456 183.676C178.394 183.873 178.374 184.081 178.398 184.286C178.422 184.491 178.49 184.689 178.596 184.866C178.951 185.619 179.978 185.998 180.809 186.117Z" fill="#263238"/>
<path d="M49.3099 180.286C49.3099 180.286 49.7131 178.841 49.7275 178.746C49.8811 177.648 49.5259 175.431 48.3932 174.9C48.2029 174.816 47.9966 174.771 47.7879 174.77C47.5791 174.77 47.3725 174.812 47.1815 174.895C46.9904 174.978 46.8193 175.1 46.6791 175.253C46.5389 175.405 46.4328 175.585 46.3678 175.781C46.0654 176.605 46.4494 177.614 46.9053 178.311C47.4429 179.13 49.3099 180.286 49.3099 180.286Z" fill="#263238"/>
<path d="M26.9918 179.807C27.8941 180.196 30.0971 180.148 30.1019 180.148C30.1067 180.148 29.622 178.727 29.5836 178.637C29.1036 177.638 27.5677 175.985 26.3247 176.151C26.1185 176.184 25.9219 176.26 25.7474 176.374C25.573 176.488 25.4246 176.636 25.312 176.81C25.1993 176.983 25.1249 177.178 25.0935 177.382C25.062 177.586 25.0743 177.794 25.1296 177.993C25.3359 178.846 26.2239 179.476 26.9918 179.807Z" fill="#263238"/>
<path d="M27.7501 186.117C28.71 186.249 30.6587 185.686 30.8123 185.643C31.1365 186.755 31.5357 187.843 32.0073 188.902C32.2793 189.534 32.5673 190.149 32.8713 190.749C32.6937 190.494 32.5305 190.276 32.5017 190.233C31.7674 189.395 29.8523 188.201 28.6956 188.684C28.5056 188.77 28.336 188.895 28.1978 189.05C28.0596 189.204 27.9559 189.386 27.8935 189.583C27.8311 189.78 27.8112 189.988 27.8353 190.193C27.8594 190.398 27.9269 190.595 28.0333 190.773C28.4605 191.54 29.4732 191.919 30.3131 192.038C31.153 192.156 32.8473 191.711 33.2936 191.588C33.4088 191.82 33.524 192.061 33.644 192.289C34.2152 193.411 34.7863 194.525 35.3143 195.638C35.5014 196.031 35.6742 196.424 35.8422 196.812C35.6838 196.585 35.5446 196.391 35.5206 196.362C34.7863 195.524 32.8713 194.33 31.7146 194.818C31.5247 194.904 31.3551 195.028 31.217 195.182C31.0788 195.337 30.9752 195.518 30.9127 195.715C30.8502 195.911 30.8304 196.118 30.8544 196.323C30.8785 196.528 30.9459 196.725 31.0522 196.902C31.4794 197.67 32.4921 198.049 33.332 198.172C34.172 198.295 35.6982 197.888 36.2118 197.741C36.375 198.148 36.5382 198.555 36.6917 198.958C36.7781 199.233 36.8837 199.493 36.9557 199.773C37.0277 200.052 37.1141 200.327 37.1909 200.602C37.3205 201.132 37.4549 201.677 37.5701 202.198C37.6517 202.558 37.7189 202.904 37.7908 203.25C37.6085 202.861 37.2389 202.099 37.2005 202.042C36.6053 201.094 34.8919 199.635 33.6728 199.943C33.4733 200.001 33.2883 200.099 33.1296 200.232C32.971 200.365 32.8423 200.529 32.7519 200.714C32.6615 200.898 32.6113 201.1 32.6045 201.305C32.5978 201.51 32.6347 201.714 32.7129 201.904C33.0201 202.729 33.9752 203.254 34.7767 203.501C35.6598 203.766 37.6133 203.501 37.858 203.501C37.9732 204.074 38.0836 204.637 38.1748 205.168C38.3716 206.276 38.5252 207.281 38.6548 208.138H39.4755C39.3315 207.247 39.1539 206.201 38.9187 205.035C38.7988 204.448 38.6644 203.823 38.5204 203.183C39.1084 202.951 39.6821 202.686 40.2386 202.387C40.8818 203.074 42.528 203.88 42.744 203.984C42.5184 204.528 42.2929 205.054 42.0769 205.547C41.6497 206.523 41.2417 207.389 40.877 208.138H41.7649C42.0721 207.451 42.4128 206.684 42.7632 205.836C42.9936 205.282 43.2432 204.69 43.464 204.074C43.6991 204.126 45.6334 204.514 46.5357 204.311C47.3516 204.131 48.3451 203.671 48.7099 202.89C48.8029 202.705 48.8555 202.503 48.864 202.296C48.8726 202.09 48.8369 201.884 48.7595 201.693C48.6821 201.501 48.5645 201.327 48.4145 201.183C48.2646 201.04 48.0856 200.929 47.8892 200.858C46.6989 200.464 44.8798 201.805 44.2127 202.691C44.1743 202.743 43.8095 203.363 43.5887 203.756C43.6847 203.505 43.7807 203.283 43.8719 203.003C44.0639 202.492 44.2367 201.975 44.4287 201.421C44.5103 201.151 44.5919 200.876 44.6782 200.597C44.7646 200.318 44.8222 200.029 44.899 199.74C45.0622 199.067 45.1918 198.38 45.3118 197.684C45.7629 197.845 47.3852 198.404 48.2251 198.347C49.0651 198.29 50.1114 197.982 50.5961 197.248C50.7172 197.081 50.8013 196.89 50.8428 196.689C50.8843 196.487 50.8823 196.28 50.837 196.079C50.7918 195.878 50.7042 195.689 50.58 195.524C50.4558 195.359 50.2977 195.222 50.1162 195.121C48.9979 194.553 46.9964 195.595 46.1997 196.381C46.1517 196.433 45.643 197.054 45.3694 197.404C45.4366 196.983 45.5086 196.566 45.5614 196.14C45.715 194.908 45.8301 193.658 45.9549 192.412C45.9933 192.033 46.0365 191.654 46.0749 191.27C46.2381 191.332 48.1483 192.033 49.0891 191.967C49.929 191.91 50.9753 191.607 51.4601 190.873C51.5811 190.705 51.6652 190.515 51.7067 190.313C51.7482 190.112 51.7462 189.904 51.701 189.703C51.6557 189.503 51.5681 189.314 51.4439 189.149C51.3197 188.984 51.1617 188.846 50.9801 188.746C49.8618 188.177 47.8604 189.219 47.0636 190.006C47.006 190.067 46.2765 190.953 46.1037 191.199C46.1901 190.366 46.2909 189.527 46.4205 188.713C46.5887 187.605 46.8308 186.51 47.1452 185.435C47.2172 185.463 49.2138 186.207 50.1786 186.136C51.0137 186.079 52.06 185.776 52.5448 185.042C52.6658 184.874 52.7499 184.684 52.7914 184.482C52.8329 184.281 52.8309 184.073 52.7857 183.872C52.7404 183.672 52.6528 183.483 52.5286 183.318C52.4044 183.153 52.2464 183.016 52.0648 182.915C50.9465 182.346 48.9451 183.388 48.1483 184.175C48.0955 184.227 47.5436 184.909 47.2844 185.241L47.222 185.207C47.5658 184.134 48.0076 183.094 48.5419 182.1C48.8251 181.546 49.1323 181.034 49.4394 180.542C49.7946 180.717 51.4361 181.489 52.3192 181.541C53.2023 181.593 54.239 181.385 54.7958 180.707C54.9336 180.553 55.037 180.371 55.0991 180.174C55.1612 179.978 55.1806 179.77 55.1562 179.566C55.1318 179.361 55.064 179.164 54.9572 178.987C54.8504 178.81 54.7071 178.657 54.5366 178.538C53.4903 177.851 51.3833 178.675 50.5049 179.367C50.4569 179.405 50.025 179.841 49.6938 180.158L50.121 179.504C50.6489 178.723 51.1769 178.036 51.652 177.434C51.9256 177.098 52.18 176.795 52.42 176.515C52.8615 176.515 54.6374 176.454 55.4149 176.094C56.1924 175.734 57.042 175.085 57.2292 174.228C57.2788 174.027 57.2852 173.819 57.248 173.616C57.2108 173.413 57.1308 173.219 57.0132 173.049C56.8955 172.878 56.7429 172.734 56.5651 172.625C56.3873 172.517 56.1884 172.446 55.9813 172.418C54.7334 172.286 53.2503 173.977 52.7895 174.99C52.7511 175.076 52.3096 176.515 52.3096 176.515C52.0744 176.781 51.8296 177.065 51.556 177.387C51.0761 177.979 50.5193 178.652 49.9722 179.424C49.3763 180.252 48.8298 181.114 48.3355 182.005C47.7762 182.998 47.3072 184.038 46.934 185.113C46.934 185.113 46.934 185.141 46.934 185.155C46.934 184.791 46.934 183.772 46.934 183.696C46.7901 182.597 45.8541 180.556 44.6206 180.333C44.4143 180.301 44.2035 180.312 44.0018 180.366C43.8001 180.419 43.6121 180.514 43.45 180.644C43.2879 180.774 43.1554 180.937 43.061 181.12C42.9667 181.304 42.9126 181.506 42.9024 181.712C42.8304 182.588 43.4736 183.46 44.0975 184.009C44.803 184.634 46.7613 185.236 46.9149 185.283C46.5621 186.386 46.2863 187.511 46.0893 188.651C45.9693 189.314 45.8685 189.987 45.7773 190.664C45.7773 190.351 45.7773 190.067 45.7773 190.029C45.6334 188.93 44.7022 186.889 43.464 186.666C43.258 186.635 43.0476 186.646 42.8465 186.7C42.6454 186.754 42.458 186.849 42.2965 186.979C42.1349 187.109 42.0029 187.271 41.9088 187.455C41.8148 187.638 41.7608 187.839 41.7505 188.045C41.6785 188.921 42.3169 189.793 42.9456 190.347C43.5743 190.901 45.235 191.45 45.6766 191.588C45.6478 191.848 45.6094 192.109 45.5806 192.365C45.427 193.61 45.283 194.856 45.1006 196.069C45.0334 196.5 44.9566 196.917 44.8798 197.338C44.8798 197.059 44.8798 196.822 44.8798 196.789C44.7358 195.69 43.7999 193.648 42.5664 193.426C42.3556 193.376 42.1364 193.373 41.9241 193.416C41.7119 193.459 41.5117 193.547 41.3375 193.674C41.1633 193.801 41.0194 193.964 40.9159 194.152C40.8123 194.34 40.7515 194.548 40.7378 194.761C40.6658 195.633 41.3089 196.509 41.9329 197.059C42.5568 197.608 44.0639 198.11 44.5871 198.281C44.4959 198.707 44.4047 199.133 44.2991 199.545C44.2175 199.825 44.1599 200.1 44.0639 200.374C43.9679 200.649 43.8815 200.919 43.7951 201.189C43.6079 201.701 43.416 202.231 43.2192 202.729C43.0848 203.07 42.9504 203.396 42.816 203.728C42.8832 203.302 42.9984 202.468 42.9984 202.397C42.9864 201.422 42.7203 200.466 42.2257 199.621C42.2354 199.514 42.2354 199.406 42.2257 199.299C42.1971 199.094 42.1249 198.896 42.0135 198.721C41.9022 198.545 41.7544 198.394 41.5798 198.279C41.4053 198.163 41.2079 198.085 41.0007 198.051C40.7935 198.016 40.5812 198.025 40.3778 198.077C39.1587 198.394 38.3908 200.498 38.3332 201.606C38.3332 201.672 38.3716 202.383 38.41 202.833C38.3476 202.572 38.29 202.316 38.2228 202.051C38.098 201.521 37.954 200.995 37.8004 200.426C37.7189 200.156 37.6373 199.882 37.5509 199.607C37.4645 199.332 37.3541 199.053 37.2581 198.769C37.0181 198.12 36.7397 197.475 36.447 196.831C36.9269 196.718 38.5828 196.301 39.2499 195.794C39.9171 195.287 40.6226 194.468 40.6178 193.591C40.6232 193.385 40.5846 193.181 40.5045 192.99C40.4245 192.8 40.3047 192.628 40.1531 192.487C40.0014 192.345 39.8213 192.237 39.6243 192.168C39.4274 192.1 39.218 192.073 39.0099 192.09C37.7573 192.222 36.6725 194.188 36.447 195.273C36.447 195.339 36.3606 196.135 36.327 196.576C36.1494 196.187 35.9718 195.803 35.7798 195.42C35.2183 194.307 34.6183 193.203 34.028 192.104L33.4856 191.086C33.6536 191.048 35.6454 190.612 36.3942 190.025C37.0565 189.523 37.762 188.698 37.7572 187.822C37.7634 187.616 37.7253 187.411 37.6455 187.22C37.5657 187.029 37.446 186.858 37.2942 186.716C37.1424 186.574 36.9619 186.465 36.7646 186.397C36.5673 186.329 36.3577 186.303 36.1494 186.321C34.9015 186.453 33.8168 188.419 33.5912 189.504C33.5912 189.584 33.4664 190.73 33.4568 191.024C33.0633 190.276 32.6745 189.527 32.3241 188.774C31.8489 187.759 31.4401 186.715 31.1002 185.648C31.177 185.648 33.2552 185.174 34.0232 184.582C34.6855 184.08 35.3911 183.256 35.3863 182.38C35.3916 182.173 35.353 181.968 35.273 181.778C35.193 181.587 35.0733 181.416 34.9217 181.274C34.7702 181.132 34.5901 181.023 34.3931 180.954C34.1962 180.885 33.9867 180.857 33.7784 180.873C32.5305 181.011 31.4458 182.976 31.2202 184.061C31.2202 184.132 31.1242 185.008 31.0954 185.421H31.0234C30.7098 184.337 30.4961 183.227 30.3851 182.105C30.3131 181.489 30.2795 180.897 30.2651 180.319C30.6587 180.272 32.4681 180.035 33.2168 179.585C33.9656 179.135 34.7239 178.415 34.8151 177.543C34.8443 177.338 34.8292 177.13 34.7706 176.931C34.712 176.732 34.6113 176.548 34.4752 176.39C34.3392 176.232 34.1707 176.105 33.9811 176.017C33.7915 175.928 33.585 175.88 33.3752 175.876C32.1177 175.876 30.8219 177.709 30.4955 178.761C30.4955 178.822 30.3515 179.424 30.2651 179.864C30.2651 179.604 30.2651 179.334 30.2651 179.083C30.2651 178.135 30.3227 177.288 30.3851 176.525C30.4235 176.094 30.4619 175.705 30.5099 175.341C30.8699 175.094 32.3241 174.081 32.7753 173.356C33.2264 172.631 33.5672 171.632 33.2552 170.817C33.185 170.623 33.0742 170.446 32.93 170.296C32.7858 170.147 32.6115 170.029 32.4183 169.951C32.2252 169.872 32.0174 169.834 31.8085 169.84C31.5997 169.846 31.3943 169.895 31.2058 169.984C30.0923 170.557 29.7947 172.773 29.9819 173.868C29.9819 173.962 30.4187 175.412 30.4379 175.398H30.4619C30.4091 175.748 30.3611 176.122 30.3179 176.534C30.2411 177.292 30.1643 178.154 30.1403 179.097C30.1058 180.111 30.1299 181.126 30.2123 182.138C30.2999 183.266 30.4895 184.383 30.7787 185.477V185.515C30.5819 185.207 29.9963 184.369 29.9435 184.312C29.2092 183.474 27.2942 182.28 26.1375 182.763C25.9474 182.849 25.7778 182.974 25.6396 183.129C25.5014 183.283 25.3978 183.465 25.3353 183.662C25.2729 183.859 25.2531 184.067 25.2771 184.272C25.3012 184.477 25.3687 184.675 25.4751 184.852C25.8975 185.619 26.939 185.998 27.7501 186.117Z" fill="#263238"/>
<path opacity="0.3" d="M26.9918 179.807C27.8941 180.196 30.0971 180.148 30.1019 180.148C30.1067 180.148 29.622 178.727 29.5836 178.637C29.1036 177.638 27.5677 175.985 26.3247 176.151C26.1185 176.184 25.9219 176.26 25.7474 176.374C25.573 176.488 25.4246 176.636 25.312 176.81C25.1993 176.983 25.1249 177.178 25.0935 177.382C25.062 177.586 25.0743 177.794 25.1296 177.993C25.3359 178.846 26.2239 179.476 26.9918 179.807Z" fill="#263238"/>
<path opacity="0.3" d="M49.3099 180.286C49.3099 180.286 49.7131 178.841 49.7275 178.746C49.8811 177.648 49.5259 175.431 48.3932 174.9C48.2029 174.816 47.9966 174.771 47.7879 174.77C47.5791 174.77 47.3725 174.812 47.1815 174.895C46.9904 174.978 46.8193 175.1 46.6791 175.253C46.5389 175.405 46.4328 175.585 46.3678 175.781C46.0654 176.605 46.4494 177.614 46.9053 178.311C47.4429 179.13 49.3099 180.286 49.3099 180.286Z" fill="#263238"/>
<path opacity="0.3" d="M27.7501 186.117C28.71 186.249 30.6587 185.686 30.8123 185.643C31.1365 186.755 31.5357 187.843 32.0073 188.902C32.2793 189.534 32.5673 190.149 32.8713 190.749C32.6937 190.494 32.5305 190.276 32.5017 190.233C31.7674 189.395 29.8523 188.201 28.6956 188.684C28.5056 188.77 28.336 188.895 28.1978 189.05C28.0596 189.204 27.9559 189.386 27.8935 189.583C27.8311 189.78 27.8112 189.988 27.8353 190.193C27.8594 190.398 27.9269 190.595 28.0333 190.773C28.4605 191.54 29.4732 191.919 30.3131 192.038C31.153 192.156 32.8473 191.711 33.2936 191.588C33.4088 191.82 33.524 192.061 33.644 192.289C34.2152 193.411 34.7863 194.525 35.3143 195.638C35.5014 196.031 35.6742 196.424 35.8422 196.812C35.6838 196.585 35.5446 196.391 35.5206 196.362C34.7863 195.524 32.8713 194.33 31.7146 194.818C31.5247 194.904 31.3551 195.028 31.217 195.182C31.0788 195.337 30.9752 195.518 30.9127 195.715C30.8502 195.911 30.8304 196.118 30.8544 196.323C30.8785 196.528 30.9459 196.725 31.0522 196.902C31.4794 197.67 32.4921 198.049 33.332 198.172C34.172 198.295 35.6982 197.888 36.2118 197.741C36.375 198.148 36.5382 198.555 36.6917 198.958C36.7781 199.233 36.8837 199.493 36.9557 199.773C37.0277 200.052 37.1141 200.327 37.1909 200.602C37.3205 201.132 37.4549 201.677 37.5701 202.198C37.6517 202.558 37.7189 202.904 37.7908 203.25C37.6085 202.861 37.2389 202.099 37.2005 202.042C36.6053 201.094 34.8919 199.635 33.6728 199.943C33.4733 200.001 33.2883 200.099 33.1296 200.232C32.971 200.365 32.8423 200.529 32.7519 200.714C32.6615 200.898 32.6113 201.1 32.6045 201.305C32.5978 201.51 32.6347 201.714 32.7129 201.904C33.0201 202.729 33.9752 203.254 34.7767 203.501C35.6598 203.766 37.6133 203.501 37.858 203.501C37.9732 204.074 38.0836 204.637 38.1748 205.168C38.3716 206.276 38.5252 207.281 38.6548 208.138H39.4755C39.3315 207.247 39.1539 206.201 38.9187 205.035C38.7988 204.448 38.6644 203.823 38.5204 203.183C39.1084 202.951 39.6821 202.686 40.2386 202.387C40.8818 203.074 42.528 203.88 42.744 203.984C42.5184 204.528 42.2929 205.054 42.0769 205.547C41.6497 206.523 41.2417 207.389 40.877 208.138H41.7649C42.0721 207.451 42.4128 206.684 42.7632 205.836C42.9936 205.282 43.2432 204.69 43.464 204.074C43.6991 204.126 45.6334 204.514 46.5357 204.311C47.3516 204.131 48.3451 203.671 48.7099 202.89C48.8029 202.705 48.8555 202.503 48.864 202.296C48.8726 202.09 48.8369 201.884 48.7595 201.693C48.6821 201.501 48.5645 201.327 48.4145 201.183C48.2646 201.04 48.0856 200.929 47.8892 200.858C46.6989 200.464 44.8798 201.805 44.2127 202.691C44.1743 202.743 43.8095 203.363 43.5887 203.756C43.6847 203.505 43.7807 203.283 43.8719 203.003C44.0639 202.492 44.2367 201.975 44.4287 201.421C44.5103 201.151 44.5919 200.876 44.6782 200.597C44.7646 200.318 44.8222 200.029 44.899 199.74C45.0622 199.067 45.1918 198.38 45.3118 197.684C45.7629 197.845 47.3852 198.404 48.2251 198.347C49.0651 198.29 50.1114 197.982 50.5961 197.248C50.7172 197.081 50.8013 196.89 50.8428 196.689C50.8843 196.487 50.8823 196.28 50.837 196.079C50.7918 195.878 50.7042 195.689 50.58 195.524C50.4558 195.359 50.2977 195.222 50.1162 195.121C48.9979 194.553 46.9964 195.595 46.1997 196.381C46.1517 196.433 45.643 197.054 45.3694 197.404C45.4366 196.983 45.5086 196.566 45.5614 196.14C45.715 194.908 45.8301 193.658 45.9549 192.412C45.9933 192.033 46.0365 191.654 46.0749 191.27C46.2381 191.332 48.1483 192.033 49.0891 191.967C49.929 191.91 50.9753 191.607 51.4601 190.873C51.5811 190.705 51.6652 190.515 51.7067 190.313C51.7482 190.112 51.7462 189.904 51.701 189.703C51.6557 189.503 51.5681 189.314 51.4439 189.149C51.3197 188.984 51.1617 188.846 50.9801 188.746C49.8618 188.177 47.8604 189.219 47.0636 190.006C47.006 190.067 46.2765 190.953 46.1037 191.199C46.1901 190.366 46.2909 189.527 46.4205 188.713C46.5887 187.605 46.8308 186.51 47.1452 185.435C47.2172 185.463 49.2138 186.207 50.1786 186.136C51.0137 186.079 52.06 185.776 52.5448 185.042C52.6658 184.874 52.7499 184.684 52.7914 184.482C52.8329 184.281 52.8309 184.073 52.7857 183.872C52.7404 183.672 52.6528 183.483 52.5286 183.318C52.4044 183.153 52.2464 183.016 52.0648 182.915C50.9465 182.346 48.9451 183.388 48.1483 184.175C48.0955 184.227 47.5436 184.909 47.2844 185.241L47.222 185.207C47.5658 184.134 48.0076 183.094 48.5419 182.1C48.8251 181.546 49.1323 181.034 49.4394 180.542C49.7946 180.717 51.4361 181.489 52.3192 181.541C53.2023 181.593 54.239 181.385 54.7958 180.707C54.9336 180.553 55.037 180.371 55.0991 180.174C55.1612 179.978 55.1806 179.77 55.1562 179.566C55.1318 179.361 55.064 179.164 54.9572 178.987C54.8504 178.81 54.7071 178.657 54.5366 178.538C53.4903 177.851 51.3833 178.675 50.5049 179.367C50.4569 179.405 50.025 179.841 49.6938 180.158L50.121 179.504C50.6489 178.723 51.1769 178.036 51.652 177.434C51.9256 177.098 52.18 176.795 52.42 176.515C52.8615 176.515 54.6374 176.454 55.4149 176.094C56.1924 175.734 57.042 175.085 57.2292 174.228C57.2788 174.027 57.2852 173.819 57.248 173.616C57.2108 173.413 57.1308 173.219 57.0132 173.049C56.8955 172.878 56.7429 172.734 56.5651 172.625C56.3873 172.517 56.1884 172.446 55.9813 172.418C54.7334 172.286 53.2503 173.977 52.7895 174.99C52.7511 175.076 52.3096 176.515 52.3096 176.515C52.0744 176.781 51.8296 177.065 51.556 177.387C51.0761 177.979 50.5193 178.652 49.9722 179.424C49.3763 180.252 48.8298 181.114 48.3355 182.005C47.7762 182.998 47.3072 184.038 46.934 185.113C46.934 185.113 46.934 185.141 46.934 185.155C46.934 184.791 46.934 183.772 46.934 183.696C46.7901 182.597 45.8541 180.556 44.6206 180.333C44.4143 180.301 44.2035 180.312 44.0018 180.366C43.8001 180.419 43.6121 180.514 43.45 180.644C43.2879 180.774 43.1554 180.937 43.061 181.12C42.9667 181.304 42.9126 181.506 42.9024 181.712C42.8304 182.588 43.4736 183.46 44.0975 184.009C44.803 184.634 46.7613 185.236 46.9149 185.283C46.5621 186.386 46.2863 187.511 46.0893 188.651C45.9693 189.314 45.8685 189.987 45.7773 190.664C45.7773 190.351 45.7773 190.067 45.7773 190.029C45.6334 188.93 44.7022 186.889 43.464 186.666C43.258 186.635 43.0476 186.646 42.8465 186.7C42.6454 186.754 42.458 186.849 42.2965 186.979C42.1349 187.109 42.0029 187.271 41.9088 187.455C41.8148 187.638 41.7608 187.839 41.7505 188.045C41.6785 188.921 42.3169 189.793 42.9456 190.347C43.5743 190.901 45.235 191.45 45.6766 191.588C45.6478 191.848 45.6094 192.109 45.5806 192.365C45.427 193.61 45.283 194.856 45.1006 196.069C45.0334 196.5 44.9566 196.917 44.8798 197.338C44.8798 197.059 44.8798 196.822 44.8798 196.789C44.7358 195.69 43.7999 193.648 42.5664 193.426C42.3556 193.376 42.1364 193.373 41.9241 193.416C41.7119 193.459 41.5117 193.547 41.3375 193.674C41.1633 193.801 41.0194 193.964 40.9159 194.152C40.8123 194.34 40.7515 194.548 40.7378 194.761C40.6658 195.633 41.3089 196.509 41.9329 197.059C42.5568 197.608 44.0639 198.11 44.5871 198.281C44.4959 198.707 44.4047 199.133 44.2991 199.545C44.2175 199.825 44.1599 200.1 44.0639 200.374C43.9679 200.649 43.8815 200.919 43.7951 201.189C43.6079 201.701 43.416 202.231 43.2192 202.729C43.0848 203.07 42.9504 203.396 42.816 203.728C42.8832 203.302 42.9984 202.468 42.9984 202.397C42.9864 201.422 42.7203 200.466 42.2257 199.621C42.2354 199.514 42.2354 199.406 42.2257 199.299C42.1971 199.094 42.1249 198.896 42.0135 198.721C41.9022 198.545 41.7544 198.394 41.5798 198.279C41.4053 198.163 41.2079 198.085 41.0007 198.051C40.7935 198.016 40.5812 198.025 40.3778 198.077C39.1587 198.394 38.3908 200.498 38.3332 201.606C38.3332 201.672 38.3716 202.383 38.41 202.833C38.3476 202.572 38.29 202.316 38.2228 202.051C38.098 201.521 37.954 200.995 37.8004 200.426C37.7189 200.156 37.6373 199.882 37.5509 199.607C37.4645 199.332 37.3541 199.053 37.2581 198.769C37.0181 198.12 36.7397 197.475 36.447 196.831C36.9269 196.718 38.5828 196.301 39.2499 195.794C39.9171 195.287 40.6226 194.468 40.6178 193.591C40.6232 193.385 40.5846 193.181 40.5045 192.99C40.4245 192.8 40.3047 192.628 40.1531 192.487C40.0014 192.345 39.8213 192.237 39.6243 192.168C39.4274 192.1 39.218 192.073 39.0099 192.09C37.7573 192.222 36.6725 194.188 36.447 195.273C36.447 195.339 36.3606 196.135 36.327 196.576C36.1494 196.187 35.9718 195.803 35.7798 195.42C35.2183 194.307 34.6183 193.203 34.028 192.104L33.4856 191.086C33.6536 191.048 35.6454 190.612 36.3942 190.025C37.0565 189.523 37.762 188.698 37.7572 187.822C37.7634 187.616 37.7253 187.411 37.6455 187.22C37.5657 187.029 37.446 186.858 37.2942 186.716C37.1424 186.574 36.9619 186.465 36.7646 186.397C36.5673 186.329 36.3577 186.303 36.1494 186.321C34.9015 186.453 33.8168 188.419 33.5912 189.504C33.5912 189.584 33.4664 190.73 33.4568 191.024C33.0633 190.276 32.6745 189.527 32.3241 188.774C31.8489 187.759 31.4401 186.715 31.1002 185.648C31.177 185.648 33.2552 185.174 34.0232 184.582C34.6855 184.08 35.3911 183.256 35.3863 182.38C35.3916 182.173 35.353 181.968 35.273 181.778C35.193 181.587 35.0733 181.416 34.9217 181.274C34.7702 181.132 34.5901 181.023 34.3931 180.954C34.1962 180.885 33.9867 180.857 33.7784 180.873C32.5305 181.011 31.4458 182.976 31.2202 184.061C31.2202 184.132 31.1242 185.008 31.0954 185.421H31.0234C30.7098 184.337 30.4961 183.227 30.3851 182.105C30.3131 181.489 30.2795 180.897 30.2651 180.319C30.6587 180.272 32.4681 180.035 33.2168 179.585C33.9656 179.135 34.7239 178.415 34.8151 177.543C34.8443 177.338 34.8292 177.13 34.7706 176.931C34.712 176.732 34.6113 176.548 34.4752 176.39C34.3392 176.232 34.1707 176.105 33.9811 176.017C33.7915 175.928 33.585 175.88 33.3752 175.876C32.1177 175.876 30.8219 177.709 30.4955 178.761C30.4955 178.822 30.3515 179.424 30.2651 179.864C30.2651 179.604 30.2651 179.334 30.2651 179.083C30.2651 178.135 30.3227 177.288 30.3851 176.525C30.4235 176.094 30.4619 175.705 30.5099 175.341C30.8699 175.094 32.3241 174.081 32.7753 173.356C33.2264 172.631 33.5672 171.632 33.2552 170.817C33.185 170.623 33.0742 170.446 32.93 170.296C32.7858 170.147 32.6115 170.029 32.4183 169.951C32.2252 169.872 32.0174 169.834 31.8085 169.84C31.5997 169.846 31.3943 169.895 31.2058 169.984C30.0923 170.557 29.7947 172.773 29.9819 173.868C29.9819 173.962 30.4187 175.412 30.4379 175.398H30.4619C30.4091 175.748 30.3611 176.122 30.3179 176.534C30.2411 177.292 30.1643 178.154 30.1403 179.097C30.1058 180.111 30.1299 181.126 30.2123 182.138C30.2999 183.266 30.4895 184.383 30.7787 185.477V185.515C30.5819 185.207 29.9963 184.369 29.9435 184.312C29.2092 183.474 27.2942 182.28 26.1375 182.763C25.9474 182.849 25.7778 182.974 25.6396 183.129C25.5014 183.283 25.3978 183.465 25.3353 183.662C25.2729 183.859 25.2531 184.067 25.2771 184.272C25.3012 184.477 25.3687 184.675 25.4751 184.852C25.8975 185.619 26.939 185.998 27.7501 186.117Z" fill="#263238"/>
<path d="M156.7 201.274L160.06 207.323C161.288 207.597 162.575 207.429 163.688 206.85C165.565 205.86 167.567 204.377 168.944 203.884C170.321 203.392 174.449 200.796 175.577 198.821C176.705 196.846 177.074 195.505 175.198 195.979C173.596 196.413 171.967 196.742 170.321 196.964C168.57 197.215 164.941 196.964 164.941 196.964L156.7 201.274Z" fill="white" stroke="#263238" stroke-miterlimit="10"/>
<path d="M113.567 199.38C114.553 200.851 115.829 202.111 117.32 203.084C119.576 204.443 123.329 205.31 123.079 206.542C122.83 207.773 120.2 208.763 117.579 208.394C114.053 207.744 110.582 206.837 107.193 205.68C105.69 205.059 104.817 204.936 104.817 203.951C104.817 202.965 107.572 196.05 107.572 196.05L113.567 199.38Z" fill="white" stroke="#263238" stroke-miterlimit="10"/>
<path d="M127.922 89.606C127.922 89.606 123.29 94.7691 121.534 98.1321C119.777 101.495 112.578 112.527 113.581 114.19C114.584 115.852 119.748 121.167 122.388 122.953C125.028 124.738 127.332 126.661 127.332 126.661L129.328 125.174C129.328 125.174 125.69 120.115 123.569 116.681C121.447 113.247 120.171 111.471 120.171 111.471C120.171 111.471 126.036 104.366 127.528 102.514C129.021 100.662 129.544 92.5665 129.611 91.8418C129.679 91.1171 129.103 88.6587 127.922 89.606Z" fill="white" stroke="#263238" stroke-miterlimit="10"/>
<path d="M143.981 64.5488C143.981 64.5488 145.618 66.2872 145.757 68.1298C145.896 69.9724 145.402 71.7486 146.588 72.5302C147.773 73.3117 149.165 73.4775 148.455 74.0033C147.744 74.5291 146.434 75.5096 146.434 75.5096C146.434 75.5096 145.853 81.1226 145.248 81.4163C144.644 81.71 139.667 82.321 139.667 82.321C139.667 82.321 137.886 85.2957 138.265 87.0009C138.644 88.7061 141.697 94.3049 143.583 97.758C145.469 101.211 145.575 102.561 144.826 105.962C144.077 109.363 141.716 123.819 141.841 126.164C141.966 128.509 143.717 131.967 143.717 131.967C143.717 131.967 153.729 159.132 154.852 162.215C155.976 165.299 155.606 172.589 156.355 175.303C157.103 178.017 161.985 187.528 162.738 189.257C163.492 190.986 166.333 194.728 166.333 194.728L166.957 195.965C166.957 195.965 165.205 197.447 163.204 198.925C161.597 200.096 159.816 201.013 157.924 201.644C157.051 201.89 155.923 202.26 155.923 202.26C155.923 202.26 152.083 195.552 150.576 191.972C149.069 188.391 146.573 184.44 146.074 179.258C145.575 174.076 143.948 169.377 142.57 165.304C141.193 161.23 136.691 154.068 136.691 154.068C136.691 154.068 133.062 168.392 130.183 171.85C127.303 175.308 123.18 184.563 120.55 189.257C117.92 193.951 116.672 195.06 116.422 197.281C116.281 198.586 115.988 199.87 115.549 201.109C115.549 201.109 111.167 200.247 108.916 198.764C107.426 197.75 106.044 196.592 104.788 195.306C104.788 195.306 111.027 182.095 114.046 176.293C117.065 170.49 120.675 157.649 120.799 156.782C120.924 155.916 122.177 148.635 122.676 147.029C123.175 145.424 123.305 145.301 123.18 144.438C123.055 143.576 119.676 138.39 121.049 133.326C122.422 128.263 126.156 123.294 126.156 123.294C126.156 123.294 128.344 115.715 128.325 113.726C128.306 111.736 126.204 107.194 125.623 102.779C125.042 98.3643 125.321 92.0313 127.341 88.9098C129.362 85.7883 132.621 80.8574 132.803 79.7253C132.986 78.5932 133.605 77.0632 132.064 73.217C130.523 69.3708 134.157 66.0077 136.686 64.582C139.215 63.1562 143.981 64.5488 143.981 64.5488Z" fill="white" stroke="#263238" stroke-miterlimit="10"/>
<path d="M144.356 72.7527C144.592 72.7527 144.783 72.2819 144.783 71.7012C144.783 71.1204 144.592 70.6496 144.356 70.6496C144.12 70.6496 143.929 71.1204 143.929 71.7012C143.929 72.2819 144.12 72.7527 144.356 72.7527Z" fill="#263238"/>
<path d="M143.223 69.9534C143.223 69.9534 144.073 68.9729 144.927 69.8113" stroke="#263238" stroke-miterlimit="10"/>
<path d="M146.06 77.3758C145.631 77.433 145.194 77.3553 144.813 77.1538C144.431 76.9523 144.123 76.6371 143.933 76.2532" stroke="#263238" stroke-miterlimit="10"/>
<path d="M140.843 138.138L137.089 152.585" stroke="#263238" stroke-miterlimit="10"/>
<path d="M150.101 171.722C150.101 171.722 149.328 181.849 148.848 185.288" stroke="#263238" stroke-miterlimit="10"/>
<path d="M151.603 177.529C151.603 177.529 150.475 185.553 150.475 186.292" stroke="#263238" stroke-miterlimit="10"/>
<path d="M137.204 72.8427C137.204 72.8427 135.093 69.7781 133.499 71.9996C131.906 74.2211 133.336 76.4663 134.233 76.7742C134.451 76.8681 134.687 76.9166 134.925 76.9166C135.162 76.9166 135.398 76.8681 135.616 76.7742C135.083 78.3439 134.306 79.8221 133.312 81.1557C131.714 83.2541 127.476 85.2956 124.039 84.6798C120.603 84.064 114.128 77.9726 115.371 72.8048C116.614 67.6371 117.929 65.0698 119.427 64.9561C120.924 64.8424 121.827 66.7655 123.569 66.6376C125.311 66.5097 127.447 59.793 133.619 58.4762C139.791 57.1594 145.033 60.1199 145.69 62.1756C146.348 64.2314 145.431 65.4155 144.807 65.4582C144.183 65.5008 141.702 64.1982 140.267 65.1692C138.831 66.1403 139.787 67.1871 139.979 68.0397C140.171 68.8923 138.716 69.617 138.783 70.4791C138.851 71.3412 139.047 72.317 138.548 72.3738C138.079 72.4622 137.626 72.6204 137.204 72.8427Z" fill="#263238" stroke="#263238" stroke-miterlimit="10"/>
<path d="M143.569 97.758C143.089 96.8722 142.522 95.8633 141.951 94.7786C141.764 94.8715 141.56 94.9293 141.351 94.9491C139.729 95.0675 136.072 89.7624 132.405 87.6782C130.667 86.6882 129.299 86.8967 128.34 87.3893C128.172 87.6545 128.004 87.9103 127.86 88.1614C128.603 87.845 129.414 87.7141 130.221 87.7802C131.028 87.8463 131.806 88.1073 132.486 88.5403C136.033 90.6339 138.87 95.0059 139.599 98.0469C140.329 101.088 136.811 106.052 132.131 107.26C129.175 108.022 127.231 106.876 125.978 104.64C126.784 108.43 128.335 112.025 128.378 113.725C128.378 115.705 126.209 123.294 126.209 123.294C126.209 123.294 126.017 123.625 125.729 124.194C131.637 125.908 139.095 126.733 141.985 126.164C142.302 121.749 144.221 108.894 144.865 105.962C145.575 102.561 145.488 101.211 143.569 97.758Z" fill="#263238" stroke="#263238" stroke-miterlimit="10"/>
<path d="M130.888 89.0281C130.888 89.0281 134.286 89.1513 135.985 91.747C137.684 94.3427 145.407 105.299 146.487 106.336C147.567 107.373 149.088 109.24 149.088 109.24C149.088 109.24 161.111 102.296 163.247 100.657C165.383 99.0179 167.423 96.1427 167.423 96.1427C167.423 96.1427 167.653 94.1438 167.73 93.5185C167.807 92.8933 169.678 92.7559 169.678 92.7559C169.678 92.7559 170.941 91.1786 171.949 91.2307C172.957 91.2828 173.192 92.7464 173.192 92.7464C173.192 92.7464 174.492 95.0059 174.574 96.1143C174.656 97.2226 172.328 99.6194 171.358 100.065C170.441 100.417 169.495 100.693 168.531 100.889C168.531 100.889 160.794 109.747 158.231 112.413C155.929 114.696 153.337 116.673 150.518 118.296C149.559 118.742 145.637 116.795 144.989 116.473C144.341 116.151 127.888 100.884 127.888 100.884" fill="white"/>
<path d="M130.888 89.0281C130.888 89.0281 134.286 89.1513 135.985 91.747C137.684 94.3427 145.407 105.299 146.487 106.336C147.567 107.373 149.088 109.24 149.088 109.24C149.088 109.24 161.111 102.296 163.247 100.657C165.383 99.0179 167.423 96.1427 167.423 96.1427C167.423 96.1427 167.653 94.1438 167.73 93.5185C167.807 92.8933 169.678 92.7559 169.678 92.7559C169.678 92.7559 170.941 91.1786 171.949 91.2307C172.957 91.2828 173.192 92.7464 173.192 92.7464C173.192 92.7464 174.492 95.0059 174.574 96.1143C174.656 97.2226 172.328 99.6194 171.358 100.065C170.441 100.417 169.495 100.693 168.531 100.889C168.531 100.889 160.794 109.747 158.231 112.413C155.929 114.696 153.337 116.673 150.518 118.296C149.559 118.742 145.637 116.795 144.989 116.473C144.341 116.151 127.888 100.884 127.888 100.884" stroke="#263238" stroke-miterlimit="10"/>
<path d="M104.692 94.3042C104.692 94.3042 108.916 100.888 110.821 103.711C112.394 105.894 114.125 107.961 116 109.898C116 109.898 119.403 106.937 122.129 104.251C124.855 101.566 126.214 96.99 126.214 96.99C126.214 96.99 124.577 94.1479 124.577 93.6316C124.577 93.1153 126.079 91.4812 126.497 91.0785C126.647 90.9569 126.822 90.8696 127.011 90.823C127.199 90.7763 127.396 90.7713 127.586 90.8085C127.779 90.6142 128.014 90.4649 128.273 90.3714C128.532 90.278 128.809 90.2429 129.084 90.2685C130.173 90.2685 132.76 92.8264 133.034 94.7069C133.307 96.5873 131.402 98.6052 130.581 99.8131C129.76 101.021 126.089 107.747 124.586 110.973C123.084 114.198 118.049 119.712 116.427 119.973C114.805 120.233 106.89 113.654 105.935 112.446C104.98 111.238 105.935 101.424 105.254 99.8083C104.572 98.1931 104.692 94.3042 104.692 94.3042Z" fill="white" stroke="#263238" stroke-miterlimit="10"/>
<path d="M127.591 90.8086C127.591 90.8086 130.994 93.3617 129.636 93.9017C129.456 93.978 129.263 94.0175 129.068 94.0178C128.873 94.0181 128.679 93.9792 128.5 93.9034C128.32 93.8276 128.158 93.7166 128.023 93.5771C127.888 93.4375 127.784 93.2724 127.716 93.0917C127.716 93.0917 129.079 94.7069 128.537 96.0522" stroke="#263238" stroke-miterlimit="10"/>
<path d="M128.815 94.1671C128.815 94.1671 130.735 96.0617 131.695 96.1849" stroke="#263238" stroke-miterlimit="10"/>
<path d="M86.0459 142.297C86.0459 142.297 81.5487 159.349 80.0512 161.244C78.5537 163.138 71.3352 169.443 69.9721 173.086C68.609 176.728 62.0096 191.085 61.1936 193.373C60.3777 195.661 59.6962 196.329 59.6962 196.329L65.4173 199.422C65.4173 199.422 71.4695 188.409 74.7381 184.378C78.0066 180.347 82.2302 174.023 85.2299 171.068C88.2297 168.112 97.0801 155.877 97.0801 155.877L86.0459 142.297Z" fill="white" stroke="#263238" stroke-miterlimit="10"/>
<path d="M97.0801 155.872L86.041 142.297C86.041 142.297 82.067 157.388 80.3439 160.77C82.6588 163.481 85.7699 165.416 89.2472 166.307C92.8516 161.708 97.0801 155.872 97.0801 155.872Z" fill="#263238" stroke="#263238" stroke-miterlimit="10"/>
<path d="M65.4173 199.417C65.4173 199.417 66.8188 196.978 68.465 193.733C66.2286 193.082 64.0995 192.116 62.144 190.863C61.664 192.222 61.3712 192.862 61.1841 193.368C60.3633 195.656 59.6866 196.324 59.6866 196.324L65.4173 199.417Z" fill="white" stroke="#263238" stroke-miterlimit="10"/>
<path d="M67.8651 201.567C67.8651 201.567 67.3227 201.302 67.1835 199.147C67.0443 196.992 66.7756 195.519 65.9596 196.864L65.1437 198.209L59.8306 195.116C59.8306 195.116 58.8706 195.921 58.8706 196.731C58.8706 197.541 55.0598 201.165 55.8757 202.24C56.6916 203.315 59.5522 203.315 62.4127 205.201C65.2733 207.086 65.8204 208.043 69.3625 208.156C72.9046 208.27 73.5814 207.081 73.5814 206.408C73.5814 205.736 70.7016 204.661 69.7705 203.718C69.0966 203.035 68.4605 202.318 67.8651 201.567Z" fill="white" stroke="#263238" stroke-miterlimit="10"/>
<path d="M73.5862 206.408C73.5862 206.238 73.4086 206.048 73.1062 205.835C72.4103 206.276 70.8648 206.91 67.9851 206.541C63.7614 206.006 63.7614 204.793 61.448 202.78C59.893 201.425 57.6084 200.8 56.2645 200.535C55.8277 201.25 55.5925 201.885 55.8613 202.24C56.6772 203.315 59.5378 203.315 62.3984 205.201C65.2589 207.086 65.8061 208.043 69.3481 208.156C72.8902 208.27 73.5862 207.076 73.5862 206.408Z" fill="white" stroke="#263238" stroke-miterlimit="10"/>
<path d="M84.4091 132.482C84.4091 132.482 82.9117 137.319 85.6378 144.177C88.364 151.036 99.5278 162.996 103.07 165.966L106.612 168.927C106.612 168.927 107.159 176.979 111.109 182.502L124.591 201.326L129.088 197.963C129.088 197.963 125.412 193.662 124.322 189.494C123.233 185.325 117.373 172.825 116.422 168.652C115.472 164.479 111.925 157.227 111.517 156.554C111.109 155.882 103.732 142.183 103.732 142.183L104.841 135.552L84.4091 132.482Z" fill="white" stroke="#263238" stroke-miterlimit="10"/>
<path d="M102.576 165.526C103.641 164.105 106.708 160.879 113.231 160.083C112.396 158.236 111.685 156.824 111.517 156.545C111.109 155.872 103.732 142.183 103.732 142.183L104.841 135.552L84.4091 132.463C84.4091 132.463 82.9117 137.3 85.6378 144.158C88.244 150.742 98.5919 161.987 102.576 165.526Z" fill="#263238" stroke="#263238" stroke-miterlimit="10"/>
<path d="M120.325 195.348C122.724 198.716 124.591 201.312 124.591 201.312L129.089 197.949C127.623 196.172 126.367 194.236 125.345 192.179C123.856 193.496 122.16 194.566 120.325 195.348Z" fill="white" stroke="#263238" stroke-miterlimit="10"/>
<path d="M128.815 194.183C128.815 194.183 126.775 192.288 127.044 194.723C127.313 197.158 128.133 197.949 128.133 197.949C128.133 197.949 122.551 200.502 123.094 201.714C123.417 202.433 123.83 203.109 124.323 203.728C124.323 203.728 127.73 208.971 129.223 208.436C130.716 207.901 133.312 204.538 135.626 203.462C137.939 202.387 140.804 198.754 141.486 196.604C142.167 194.453 141.755 193.648 140.123 194.586C138.491 195.524 136.307 196.741 133.854 196.741C132.343 196.72 130.874 196.251 129.636 195.396L128.815 194.183Z" fill="white" stroke="#263238" stroke-miterlimit="10"/>
<path d="M141.107 194.207C141.094 194.244 141.085 194.282 141.078 194.32C140.257 197.949 135.626 200.502 133.447 202.52C131.661 204.168 128.239 206.451 127.053 207.223C127.86 208.043 128.671 208.644 129.223 208.436C130.725 207.896 133.312 204.537 135.626 203.462C137.939 202.387 140.804 198.754 141.486 196.603C141.999 194.983 141.889 194.126 141.107 194.207Z" fill="white" stroke="#263238" stroke-miterlimit="10"/>
<path d="M109.285 62.5114C110.031 63.8658 110.528 65.3394 110.754 66.8645C111.071 69.2328 110.965 70.6017 111.911 71.7433C112.856 72.8848 113.701 73.6096 113.49 74.2301C113.279 74.8506 111.805 75.58 111.805 75.58C111.805 75.58 110.548 80.6625 109.405 81.4915C108.263 82.3204 104.356 81.2878 104.356 81.2878C103.414 82.7007 102.937 84.3669 102.993 86.0577C103.099 88.8571 105.393 93.2149 106.775 97.26C108.158 101.305 108.354 104.73 106.986 110.125C105.619 115.52 105.095 127.139 105.201 130.251C105.307 133.363 105.302 135.021 105.302 135.021C105.302 135.021 106.881 136.783 99.6287 136.783C92.3765 136.783 85.5419 134.088 84.8076 133.775C84.3932 133.628 84.0503 133.332 83.8477 132.947C83.8477 132.947 85.5275 114.791 85.0043 113.341C84.4812 111.892 83.9532 105.237 83.9532 105.237C83.9532 105.237 84.1596 93.9254 87.4185 89.6718C90.6775 85.4182 94.4643 83.552 95.8274 81.3731C96.6482 79.9614 96.9467 78.3122 96.6721 76.7074C94.2296 74.7222 92.4073 72.0944 91.4166 69.1286C89.7319 64.1503 94.4643 58.7552 97.9296 57.5094C101.395 56.2637 108.546 57.9263 109.597 59.172C110.649 60.4178 109.285 62.5114 109.285 62.5114Z" fill="white" stroke="#263238" stroke-miterlimit="10"/>
<path d="M109.597 59.1909C108.546 57.9452 101.4 56.2826 97.9296 57.5283C94.4595 58.7741 89.7319 64.1598 91.4166 69.1475C92.4073 72.1133 94.2296 74.7411 96.6721 76.7263C96.6721 76.7263 96.7009 76.8731 96.7297 77.1242C97.615 76.8618 98.4745 76.521 99.2975 76.1058C98.8785 75.7982 98.4911 75.4507 98.1408 75.0684C97.8288 74.6516 96.9841 71.7527 98.6688 71.2269C100.353 70.7012 100.771 71.8522 101.069 72.4727C101.366 73.0932 102.225 72.4727 102.542 72.1601C102.859 71.8475 102.648 69.4649 102.648 69.4649C103.438 68.87 104.177 68.2109 104.855 67.4944C105.815 66.4571 102.225 64.0698 102.225 64.0698C102.225 64.0698 104.855 63.9655 106.223 63.7571C107.301 63.5113 108.331 63.0921 109.271 62.5161C109.271 62.5161 110.649 60.4367 109.597 59.1909Z" fill="#263238" stroke="#263238" stroke-miterlimit="10"/>
<path d="M104.342 81.2877L101.716 80.042L103.502 82.8414L104.342 81.2877Z" fill="#263238" stroke="#263238" stroke-miterlimit="10"/>
<path d="M110.337 71.0896C110.38 71.6628 110.25 72.1365 110.049 72.1554C109.847 72.1744 109.645 71.7196 109.602 71.1465C109.559 70.5733 109.684 70.0997 109.885 70.0855C110.087 70.0712 110.289 70.5212 110.337 71.0896Z" fill="#263238"/>
<path d="M108.652 69.1477C108.652 69.1477 109.391 68.0061 110.125 68.6314" stroke="#263238" stroke-miterlimit="10"/>
<path d="M110.649 77.0342C110.649 77.0342 109.074 76.409 109.074 75.9969" stroke="#263238" stroke-miterlimit="10"/>
<path d="M105.292 135.021C105.292 135.021 105.292 133.363 105.187 130.251C105.081 127.139 105.604 115.52 106.972 110.125C108.34 104.73 108.129 101.305 106.761 97.2601C106.315 95.9338 105.763 94.5744 105.22 93.2434C102.768 93.7455 99.9839 90.0745 98.304 87.313C97.7518 86.3561 96.9299 85.5781 95.9381 85.0736C94.9463 84.5691 93.8274 84.3597 92.7173 84.471H92.6885C92.3429 84.7599 91.983 85.0583 91.6086 85.3804C92.8927 85.6876 94.0844 86.2913 95.0858 87.142C96.0871 87.9927 96.8693 89.066 97.3681 90.2734C99.4127 95.1144 96.0098 101.168 91.9206 103.063C88.9448 104.436 85.6811 103.167 84.1309 102.381C83.9917 104.105 83.9725 105.275 83.9725 105.275C83.9725 105.275 84.4956 111.906 85.0236 113.365C85.5515 114.824 83.8669 132.97 83.8669 132.97C84.0696 133.356 84.4124 133.652 84.8268 133.799C85.5611 134.112 92.3957 136.807 99.6479 136.807C106.9 136.807 105.292 135.021 105.292 135.021Z" fill="#407BFF" stroke="#263238" stroke-miterlimit="10"/>
<path d="M93.2643 86.6402C93.2643 86.6402 87.8168 86.3702 85.4986 89.1933C83.1804 92.0164 72.0166 108.955 71.4695 110.3C70.9223 111.645 72.2854 113.658 72.2854 113.658C72.2854 113.658 89.3143 128.717 89.8566 128.849C90.399 128.982 93.5379 132.615 94.4882 132.885C95.4386 133.155 98.5775 132.345 98.9854 131.938C99.3934 131.53 101.299 129.787 100.483 129.095C99.667 128.404 99.1198 128.02 99.1198 127.618C99.1198 127.215 99.5278 125.723 98.0303 125.467C96.5329 125.211 91.9013 125.197 91.9013 125.197C91.9013 125.197 89.5879 122.511 86.5881 118.343C84.8651 115.965 83.2741 113.497 81.8221 110.949L94.3539 98.9841" fill="white"/>
<path d="M93.2643 86.6402C93.2643 86.6402 87.8168 86.3702 85.4986 89.1933C83.1804 92.0164 72.0166 108.955 71.4695 110.3C70.9223 111.645 72.2854 113.658 72.2854 113.658C72.2854 113.658 89.3143 128.717 89.8566 128.849C90.399 128.982 93.5379 132.615 94.4882 132.885C95.4386 133.155 98.5775 132.345 98.9854 131.938C99.3934 131.53 101.299 129.787 100.483 129.095C99.667 128.404 99.1198 128.02 99.1198 127.618C99.1198 127.215 99.5278 125.723 98.0303 125.467C96.5329 125.211 91.9013 125.197 91.9013 125.197C91.9013 125.197 89.5879 122.511 86.5881 118.343C84.8651 115.965 83.2741 113.497 81.8221 110.949L94.3539 98.9841" stroke="#263238" stroke-miterlimit="10"/>
</g>
<defs>
<filter id="filter0_d_1_1320" x="10.326" y="0.342773" width="214.623" height="222.635" filterUnits="userSpaceOnUse" color-interpolation-filters="sRGB">
<feFlood flood-opacity="0" result="BackgroundImageFix"/>
<feColorMatrix in="SourceAlpha" type="matrix" values="0 0 0 0 0 0 0 0 0 0 0 0 0 0 0 0 0 0 127 0" result="hardAlpha"/>
<feOffset dy="4"/>
<feGaussianBlur stdDeviation="5"/>
<feComposite in2="hardAlpha" operator="out"/>
<feColorMatrix type="matrix" values="0 0 0 0 0 0 0 0 0 0 0 0 0 0 0 0 0 0 0.25 0"/>
<feBlend mode="normal" in2="BackgroundImageFix" result="effect1_dropShadow_1_1320"/>
<feBlend mode="normal" in="SourceGraphic" in2="effect1_dropShadow_1_1320" result="shape"/>
</filter>
</defs>
</svg>
