<svg width="289" height="56" viewBox="0 0 289 56" fill="none" xmlns="http://www.w3.org/2000/svg">
<g clip-path="url(#clip0_1_170)">
<path d="M71.615 15.4006V28.3074H86.5003V15.4006H90.4697V46.3438H86.5003V31.9478H71.615V46.3438H67.6455V15.4006H71.615ZM116.271 35.0918C116.271 43.3653 110.648 46.8403 105.19 46.8403C99.2355 46.8403 94.6045 42.3725 94.6045 35.4227C94.6045 27.9765 99.4009 23.6742 105.52 23.6742C111.971 23.6742 116.271 28.3074 116.271 35.0918ZM98.7393 35.2572C98.7393 40.0559 101.551 43.8618 105.52 43.8618C109.324 43.8618 112.302 40.2214 112.302 35.2572C112.302 31.4514 110.482 26.6527 105.686 26.6527C100.889 26.6527 98.7393 31.1204 98.7393 35.2572ZM120.24 30.1276C120.24 27.811 120.24 25.9908 120.075 24.1706H123.548L123.714 27.811H124.044C125.368 25.6599 127.352 23.6742 130.991 23.6742C133.968 23.6742 136.283 25.4944 137.276 28.142C137.937 26.8182 138.764 25.9908 139.757 25.3289C141.08 24.3361 142.568 23.8397 144.718 23.8397C147.696 23.8397 151.996 25.8254 151.996 33.437V46.3438H148.026V33.768C148.026 29.4657 146.538 26.9837 143.23 26.9837C140.914 26.9837 139.095 28.6384 138.434 30.624C138.268 31.1204 138.103 31.9478 138.103 32.6097V46.3438H134.133V33.1061C134.133 29.6312 132.645 26.9837 129.502 26.9837C127.021 26.9837 125.202 28.9693 124.541 30.955C124.375 31.6169 124.21 32.2787 124.21 32.9406V46.3438H120.24V30.1276ZM159.769 35.7537C159.935 41.3797 163.408 43.5308 167.543 43.5308C170.52 43.5308 172.174 43.0344 173.828 42.3725L174.489 45.351C173.001 46.0129 170.52 46.8403 167.046 46.8403C160.1 46.8403 155.965 42.207 155.965 35.4227C155.965 28.6384 159.935 23.1778 166.55 23.1778C173.993 23.1778 175.978 29.6312 175.978 33.768C175.978 34.5953 175.812 35.2572 175.812 35.7537H159.769ZM171.843 32.7752C171.843 30.1276 170.685 26.1563 166.22 26.1563C162.085 26.1563 160.265 29.9621 159.935 32.7752H171.843Z" fill="#221E1F"/>
<path d="M185.074 36.4155L181.766 46.3438H177.632L188.382 14.9042H193.344L204.094 46.3438H199.794L196.486 36.4155H185.074ZM195.329 33.2715L192.186 24.1706C191.525 22.1849 191.028 20.1993 190.532 18.3791H190.367C189.871 20.1993 189.374 22.1849 188.713 24.0051L185.57 33.1061C185.901 33.2715 195.329 33.2715 195.329 33.2715ZM207.898 23.6742L210.875 35.0917C211.537 37.5738 212.199 39.8904 212.529 42.207H212.695C213.191 39.8904 214.018 37.5738 214.68 35.0917L218.318 23.6742H221.791L225.265 34.9263C226.092 37.5738 226.753 40.0559 227.249 42.3725H227.415C227.746 40.0559 228.407 37.7393 229.234 35.0917L232.377 23.6742H236.511L229.234 46.3438H225.43L221.957 35.5881C221.13 33.1061 220.468 30.7895 219.972 28.1419C219.476 30.7895 218.649 33.2715 217.987 35.5881L214.349 46.3438H210.545L203.764 23.6742H207.898ZM255.201 40.8832C255.201 42.8689 255.366 44.6891 255.531 46.3438H251.727L251.397 43.5308C250.074 45.351 247.758 46.8402 244.45 46.8402C239.819 46.8402 237.504 43.5308 237.504 40.3868C237.504 34.9263 242.3 31.9478 251.066 31.9478V31.4513C251.066 29.6312 250.57 26.1563 245.939 26.1563C243.789 26.1563 241.639 26.8181 239.985 27.811L238.992 25.1634C240.812 24.0051 243.623 23.1778 246.435 23.1778C253.381 23.1778 255.035 27.811 255.035 32.4442L255.201 40.8832ZM251.231 34.7608C246.766 34.5953 241.639 35.4227 241.639 39.8904C241.639 42.5379 243.458 43.8617 245.443 43.8617C248.42 43.8617 250.239 42.0415 250.9 40.0559C251.066 39.5595 251.066 39.2285 251.066 38.7321V34.7608H251.231ZM261.982 23.6742L266.944 37.0774C267.44 38.5666 267.936 40.3868 268.432 41.7106H268.597C268.928 40.3868 269.424 38.5666 270.086 37.0774L274.552 23.8396H278.852L272.732 39.8904C270.086 46.6747 268.101 50.6461 264.959 53.4591C262.974 55.2793 260.989 55.9412 259.832 56.1066L258.839 52.6317C259.832 52.3008 261.155 51.6389 262.478 50.6461C263.636 49.8187 264.959 48.164 265.951 46.0129C266.117 45.5164 266.282 45.1855 266.282 45.02C266.282 44.8546 266.117 44.5236 265.951 43.8617L257.516 23.6742H261.982ZM288.279 26.1563C288.279 27.811 286.956 29.1347 285.302 29.1347C283.648 29.1347 282.325 27.811 282.325 26.1563C282.325 24.5015 283.648 23.1778 285.468 23.1778C286.956 23.1778 288.279 24.5015 288.279 26.1563ZM282.987 26.1563C282.987 27.48 283.979 28.4729 285.302 28.4729C286.625 28.4729 287.618 27.48 287.618 26.1563C287.618 24.8325 286.625 23.8396 285.302 23.8396C283.979 23.8396 282.987 24.8325 282.987 26.1563ZM284.806 27.6455H284.144V24.667C284.475 24.667 284.806 24.5015 285.302 24.5015C285.798 24.5015 286.129 24.667 286.294 24.667C286.46 24.8325 286.625 24.9979 286.625 25.3289C286.625 25.6598 286.294 25.9908 285.964 25.9908C286.294 25.9908 286.46 26.3217 286.46 26.6527C286.625 27.1491 286.625 27.3146 286.625 27.3146H285.964C285.798 27.1491 285.798 26.9836 285.798 26.6527C285.798 26.3217 285.633 26.1563 285.137 26.1563H284.806V27.6455ZM284.806 25.9908H285.137C285.467 25.9908 285.798 25.8253 285.798 25.4944C285.798 25.1634 285.633 24.9979 285.137 24.9979H284.806V25.9908Z" fill="#2A6EBB"/>
<path d="M19.1855 3.81763L7.77346 17.3863V37.4084L18.6894 35.7537C18.6894 35.7537 20.6741 35.4227 20.8395 37.4084C21.0049 39.5595 19.0202 39.5595 19.0202 39.5595L7.60806 41.3797V45.5165L31.7554 49.8188V17.8827L19.1855 3.81763ZM24.8089 31.1205C23.6511 32.7752 21.8318 33.768 19.8471 33.9335H19.5163C17.5316 33.9335 15.7123 32.9406 14.3892 31.4514C13.066 29.9622 12.2391 27.811 12.0737 25.4944V24.8325C12.0737 22.5159 12.7352 20.3648 14.0584 18.8755C15.3815 17.3863 17.0354 16.228 19.0202 16.0625H19.3509C21.3356 16.0625 23.155 17.0554 24.4781 18.5446C25.8012 20.0338 26.6282 22.185 26.7936 24.5016V25.1635C26.7936 27.4801 25.9666 29.4657 24.8089 31.1205ZM36.5518 31.9478V39.725L42.3405 38.7322V31.2859L36.5518 31.9478ZM23.3204 19.5374C22.1626 18.2137 20.8395 17.5518 19.3509 17.5518H19.1855C17.697 17.5518 16.3739 18.3791 15.3815 19.7029C14.3892 21.0267 13.7276 22.8469 13.7276 24.8325V25.3289C13.893 27.3146 14.5546 29.1348 15.7123 30.4586C16.87 31.7823 18.1932 32.4442 19.6817 32.4442H19.8471C21.3356 32.4442 22.6588 31.6169 23.6511 30.2931C24.6435 28.9693 25.3051 27.1491 25.3051 25.1635V24.6671C25.1397 22.5159 24.4781 20.6957 23.3204 19.5374ZM15.2161 25.1635C15.0507 22.185 16.7047 19.5374 18.8548 19.372C17.5316 20.1993 16.7047 22.5159 16.87 24.998C17.0354 27.6455 18.0278 29.7967 19.5163 30.4586C17.3662 30.624 15.3815 28.3074 15.2161 25.1635ZM44.656 21.0267V28.4729L49.4524 27.811V20.5303L44.656 21.0267ZM44.656 38.2357L49.4524 37.4084V30.1276L44.656 30.7895V38.2357Z" fill="white"/>
<path d="M42.0097 0.0117188H15.7123L0.33078 18.2136L5.78873 17.8827V37.5738L1.65392 38.2357C1.65392 38.2357 -0.33079 38.5666 0.165388 40.7178C0.661565 42.207 2.1501 42.207 2.1501 42.207L5.78873 41.5451V46.8402L31.7554 51.4734L52.264 46.8402V18.2136L57.8874 17.7172L42.0097 0.0117188ZM36.7171 21.6885L42.3405 21.1921V28.6383L36.5517 29.4657L36.7171 21.6885ZM7.60805 45.5164V41.3796L18.8547 39.5595C18.8547 39.5595 20.8395 39.5595 20.6741 37.4083C20.5087 35.4227 18.524 35.7536 18.524 35.7536L7.60805 37.4083V17.3862L19.0201 3.81757L31.59 18.0481V49.9842C31.7554 49.8187 7.60805 45.5164 7.60805 45.5164ZM36.5517 39.7249V31.9478L42.3405 31.1204V38.5666L36.5517 39.7249ZM49.287 37.4083L44.656 38.2357V30.7895L49.4524 30.1276V37.4083H49.287ZM44.656 28.4729V21.0266L49.4524 20.5302V27.811L44.656 28.4729Z" fill="#2A6EBB"/>
<path d="M24.4781 18.5446C23.155 17.0553 21.3357 16.0625 19.3509 16.0625H19.0202C17.0354 16.228 15.3815 17.2208 14.0584 18.8755C12.9006 20.5302 12.0737 22.5159 12.0737 24.8325V25.4944C12.2391 27.811 13.066 29.9621 14.3892 31.4514C15.7123 32.9406 17.5316 33.9334 19.5163 33.9334H19.8471C21.8318 33.768 23.4858 32.7751 24.8089 31.1204C25.9666 29.4657 26.7936 27.4801 26.7936 25.1634V24.5016C26.6282 22.185 25.8013 20.0338 24.4781 18.5446ZM23.6511 30.2931C22.6588 31.6168 21.3357 32.4442 19.8471 32.4442H19.6817C18.1932 32.4442 16.7047 31.6168 15.7123 30.4585C14.5546 29.1348 13.893 27.3146 13.7276 25.3289V24.8325C13.7276 22.8468 14.3892 21.0267 15.3815 19.7029C16.3739 18.3791 17.697 17.5517 19.1856 17.5517H19.3509C20.8395 17.5517 22.328 18.3791 23.3204 19.5374C24.4781 20.8612 25.1397 22.6814 25.3051 24.667V25.1634C25.3051 27.1491 24.6435 28.9693 23.6511 30.2931ZM16.8701 25.1634C16.7047 22.6814 17.5316 20.3648 18.8548 19.5374C16.7047 19.7029 15.0507 22.185 15.2161 25.3289C15.3815 28.3074 17.2008 30.7895 19.5163 30.624C18.0278 29.7967 17.0354 27.6455 16.8701 25.1634Z" fill="#2A6BBE"/>
<path d="M36.7172 21.6886L42.3405 21.1921V28.6384L36.5518 29.4657L36.7172 21.6886Z" fill="white"/>
</g>
<defs>
<clipPath id="clip0_1_170">
<rect width="288.279" height="55.9529" fill="white"/>
</clipPath>
</defs>
</svg>
