<svg width="293" height="56" viewBox="0 0 293 56" fill="none" xmlns="http://www.w3.org/2000/svg">
<g clip-path="url(#clip0_1_171)">
<path d="M0 0.0194931H55.9776V55.949H0V0.0194931Z" fill="#FF690F"/>
<path d="M17.2563 14.0136H24.0603V41.9784H17.2563V14.0136Z" fill="white"/>
<path d="M38.7211 41.9549H31.2156L23.4758 27.9843L31.2156 14.0136H38.7211L30.9348 27.9843L38.7211 41.9549Z" fill="white"/>
<path d="M59.0874 0.0194931H115.065V55.949H59.0874V0.0194931Z" fill="#FF690F"/>
<path d="M82.0026 37.9366L80.7865 42.0018H73.5378L82.7507 13.9667H91.4019L100.544 42.0018H93.1323L91.9166 37.983L82.0026 37.9366ZM86.9594 22.0034L83.6856 32.4465H90.2327L86.9594 22.0034Z" fill="white"/>
<path d="M118.151 0.0194931H174.129V55.949H118.151V0.0194931Z" fill="#FF690F"/>
<path d="M149.647 42.0018H142.797V29.6432L133.607 13.9667H141.698L146.234 22.5641L150.7 13.9672H158.674L149.648 29.6432L149.647 42.0018Z" fill="white"/>
<path d="M177.239 0.0194931H233.216V55.949H177.239V0.0194931Z" fill="#FF690F"/>
<path d="M200.154 37.9366L198.938 42.0018H191.689L200.902 13.9667H209.553L218.696 42.0018H211.284L210.068 37.983L200.154 37.9366ZM205.11 22.0034L201.837 32.4465H208.384L205.11 22.0034Z" fill="white"/>
<path d="M236.303 0.0194931H292.28V55.949H236.303V0.0194931Z" fill="#FF690F"/>
<path d="M253.559 14.0136H260.363V41.9784H253.559V14.0136Z" fill="white"/>
<path d="M275.024 41.9549H267.519L259.779 27.9843L267.519 14.0136H275.024L267.238 27.9843L275.024 41.9549Z" fill="white"/>
</g>
<defs>
<clipPath id="clip0_1_171">
<rect width="292.28" height="55.9529" fill="white" transform="translate(0 0.0078125)"/>
</clipPath>
</defs>
</svg>
