<svg width="213" height="60" viewBox="0 0 213 60" fill="none" xmlns="http://www.w3.org/2000/svg">
<g clip-path="url(#clip0_1_5983)">
<path d="M90.8897 5.35267L104.542 0L88.4138 47.2401H76.6703L90.8897 5.35267Z" fill="#2274FF"/>
<path d="M173.839 26.4881V47.2696H163.654V27.9774C163.654 23.7798 161.005 21.8186 157.735 21.8186C153.997 21.8186 151.417 23.9862 151.417 28.7884V47.2696H141.242V17.9848L151.417 13.4284V16.6085C153.252 14.1067 156.645 12.4797 161.129 12.4797C167.999 12.4797 173.839 17.3556 173.839 26.4881Z" fill="#030163"/>
<path d="M122.174 38.1715C124.788 37.218 126.653 35.3895 127.412 33.5266L136.675 35.129C135.131 40.5898 131.25 44.5318 125.163 46.7387C114.253 50.7053 104.813 45.8589 101.341 36.3824C97.8688 26.9058 102.081 17.0902 112.162 13.4234C121.474 10.0368 130.998 14.7112 134.515 24.3106C134.989 25.5829 135.329 26.9006 135.531 28.2428L112.887 36.5052C115.309 39.3708 118.668 39.4495 122.174 38.1715ZM123.797 24.4679C121.425 21.1501 118.066 20.8601 115.195 21.9071C111.56 23.2293 109.77 25.8933 110.081 29.4617L123.797 24.4679Z" fill="#030163"/>
<path d="M180.398 34.2443V15.9695L190.583 13.4677V32.7549C190.583 36.9525 193.232 38.9137 196.502 38.9137C200.241 38.9137 202.82 36.7461 202.82 31.9439V13.4677H213.01V42.7623L202.81 47.3089V44.1287C200.975 46.6306 197.582 48.2575 193.099 48.2575C186.238 48.2575 180.398 43.3816 180.398 34.2443Z" fill="#030163"/>
<path d="M75.2105 13.3743H63.2401L74.6728 47.2155H86.5988L75.2105 13.3743Z" fill="#030163"/>
<path d="M53.3906 59.9999C53.1404 59.9988 52.8936 59.9427 52.6677 59.8357C52.4418 59.7286 52.2424 59.5732 52.0836 59.3806L52.0342 59.3216L46.3327 51.6392H11.2897C10.6269 51.6382 9.98129 51.4284 9.44534 51.0397C8.9094 50.651 8.51056 50.1033 8.30587 49.475C8.10119 48.8467 8.10116 48.17 8.30578 47.5417C8.5104 46.9133 8.90919 46.3656 9.4451 45.9768L10.6485 44.9496C10.7571 44.8365 10.8754 44.7235 10.9987 44.6104L12.0443 43.6274L15.2207 40.6782L19.8371 36.3725C19.9945 36.2263 20.1855 36.121 20.3933 36.0657C20.6011 36.0104 20.8194 36.0069 21.0289 36.0554C21.2384 36.104 21.4327 36.2031 21.5948 36.3441C21.7568 36.4851 21.8815 36.6637 21.958 36.864L24.5868 43.6175L29.2181 24.2663C29.128 24.282 29.0391 24.3033 28.9518 24.3302H28.8827L10.4118 29.2209L17.1541 31.9783C17.3584 32.0618 17.5382 32.1954 17.677 32.3667C17.8157 32.5379 17.9088 32.7413 17.9477 32.9579C17.9865 33.1746 17.9699 33.3975 17.8993 33.606C17.8286 33.8146 17.7063 34.002 17.5437 34.1508L5.91861 44.7284L5.87422 44.7677C5.35188 45.2071 4.71354 45.4871 4.03562 45.5743C3.35771 45.6614 2.66895 45.5521 2.0518 45.2592C1.43663 44.973 0.916523 44.5173 0.55294 43.9459C0.189358 43.3746 -0.00250459 42.7114 2.4688e-05 42.0348V17.2818C0.000945679 16.7756 0.135973 16.2785 0.391456 15.841C0.646939 15.4034 1.01382 15.0408 1.45501 14.7898L25.9925 0.879768C26.4271 0.634206 26.9182 0.505127 27.4179 0.505127C27.9175 0.505127 28.4086 0.634206 28.8433 0.879768L38.6385 6.47819V5.39685C38.6353 5.1028 38.6905 4.81102 38.801 4.53836C38.9115 4.26569 39.0751 4.01755 39.2824 3.80824C39.4897 3.59894 39.7365 3.43263 40.0086 3.31891C40.2807 3.20519 40.5728 3.14631 40.8679 3.14568H47.0528C47.642 3.14823 48.2066 3.38161 48.6246 3.79545C49.0426 4.20928 49.2806 4.77036 49.287 5.35753L49.3462 12.4354C49.3467 12.4814 49.3598 12.5263 49.3842 12.5653C49.4085 12.6043 49.4432 12.6359 49.4843 12.6566L53.5336 14.7751C53.9981 15.0175 54.3871 15.382 54.6583 15.8291C54.9296 16.2762 55.0728 16.7888 55.0725 17.3113V50.5038C55.0725 51.6244 55.107 56.4364 55.1119 58.2796C55.1158 58.6321 55.009 58.9771 54.8065 59.2661C54.604 59.5552 54.3159 59.774 53.9824 59.8918C53.793 59.9619 53.5927 59.9985 53.3906 59.9999ZM12.4241 46.8665L12.3551 46.9304L11.1072 47.997L10.9938 48.0806C10.8726 48.122 10.7723 48.2089 10.7142 48.3227C10.6561 48.4366 10.6447 48.5685 10.6826 48.6906C10.7204 48.8126 10.8044 48.9152 10.9168 48.9766C11.0292 49.0379 11.1612 49.0533 11.2848 49.0194H46.9936C47.1989 49.0194 47.4014 49.0674 47.5847 49.1596C47.7681 49.2518 47.9271 49.3856 48.0491 49.5502L52.488 55.5222C52.488 53.5119 52.488 51.2459 52.4584 50.5185V17.3162C52.4579 17.2703 52.4448 17.2254 52.4205 17.1864C52.3961 17.1474 52.3615 17.1158 52.3203 17.0951L48.271 14.9766C47.8099 14.7353 47.4231 14.3738 47.1521 13.9305C46.8811 13.4873 46.7359 12.979 46.7322 12.46L46.673 5.76057H41.2476V8.10513C41.253 8.39992 41.1798 8.69086 41.0355 8.94825C40.8911 9.20563 40.6809 9.42024 40.4261 9.57016C40.1714 9.72009 39.8813 9.79997 39.5854 9.80165C39.2895 9.80332 38.9985 9.72673 38.7421 9.57969L27.5116 3.18992C27.4732 3.16839 27.4299 3.15708 27.3858 3.15708C27.3418 3.15708 27.2984 3.16839 27.26 3.18992L2.75217 17.0606C2.7132 17.0831 2.68084 17.1153 2.65833 17.1541C2.63582 17.193 2.62396 17.237 2.62393 17.2818V42.0348C2.63199 42.212 2.68798 42.3837 2.78598 42.5317C2.88398 42.6797 3.02032 42.7986 3.18058 42.8756C3.34083 42.9527 3.51902 42.9852 3.69628 42.9695C3.87353 42.9539 4.04324 42.8908 4.18742 42.7869L14.2441 33.6151L8.97161 31.4573C8.57824 31.363 8.21648 31.1678 7.92229 30.891C7.6281 30.6142 7.41173 30.2655 7.29468 29.8795C6.95929 28.6311 7.91613 27.535 8.10849 27.3285C8.27689 27.15 8.49222 27.0223 8.72994 26.9599L28.1824 21.8235C28.789 21.6367 30.2292 21.332 31.2008 22.2167C31.6447 22.6247 32.1083 23.3964 31.7927 24.7628L26.9592 44.9545C26.9414 45.0319 26.9167 45.1076 26.8852 45.1806C26.7465 45.559 26.5194 45.899 26.2226 46.1725C25.9259 46.446 25.568 46.6452 25.1787 46.7534C24.8013 46.8338 24.4108 46.8315 24.0344 46.7466C23.658 46.6617 23.3046 46.4964 22.9987 46.2619C22.8119 46.1192 22.6671 45.9291 22.5794 45.7114L20.2219 39.6067C17.302 42.3199 12.7053 46.6011 12.4241 46.8665Z" fill="#2274FF"/>
<g opacity="0.5">
<path d="M29.6324 10.6069H29.6275C29.1971 10.6069 28.8482 10.9546 28.8482 11.3835V18.1714C28.8482 18.6004 29.1971 18.948 29.6275 18.948H29.6324C30.0628 18.948 30.4117 18.6004 30.4117 18.1714V11.3835C30.4117 10.9546 30.0628 10.6069 29.6324 10.6069Z" fill="#2274FF"/>
<path d="M20.0732 14.5514L20.0697 14.5549C19.7654 14.8581 19.7654 15.3499 20.0697 15.6531L24.886 20.4529C25.1904 20.7562 25.6838 20.7562 25.9881 20.4529L25.9916 20.4494C26.2959 20.1462 26.2959 19.6544 25.9916 19.3512L21.1753 14.5514C20.8709 14.2481 20.3775 14.2481 20.0732 14.5514Z" fill="#2274FF"/>
<path d="M33.2703 27.696L33.2668 27.6995C32.9625 28.0028 32.9625 28.4945 33.2668 28.7978L38.0831 33.5976C38.3874 33.9009 38.8808 33.9009 39.1852 33.5976L39.1887 33.5941C39.493 33.2908 39.493 32.7991 39.1887 32.4958L34.3723 27.696C34.068 27.3928 33.5746 27.3928 33.2703 27.696Z" fill="#2274FF"/>
<path d="M34.7717 24.0697V24.0746C34.7717 24.5035 35.1206 24.8512 35.5509 24.8512H42.3623C42.7926 24.8512 43.1415 24.5035 43.1415 24.0746V24.0697C43.1415 23.6408 42.7926 23.2931 42.3623 23.2931H35.5509C35.1206 23.2931 34.7717 23.6408 34.7717 24.0697Z" fill="#2274FF"/>
<path d="M33.2687 20.4469L33.2721 20.4504C33.5765 20.7537 34.0699 20.7537 34.3742 20.4504L39.1905 15.6506C39.4949 15.3473 39.4949 14.8556 39.1905 14.5523L39.187 14.5488C38.8827 14.2456 38.3893 14.2456 38.085 14.5488L33.2687 19.3486C32.9643 19.6519 32.9643 20.1436 33.2687 20.4469Z" fill="#2274FF"/>
</g>
<path d="M78.5939 57.4687V59.538C78.4833 59.6057 78.366 59.6617 78.2437 59.7051C78.1098 59.754 77.9731 59.795 77.8343 59.828C77.6931 59.862 77.5498 59.8866 77.4053 59.9017C77.2689 59.9092 77.1322 59.9092 76.9959 59.9017C76.6682 59.9076 76.3428 59.8474 76.039 59.7248C75.7707 59.6118 75.5288 59.4444 75.3288 59.2332C75.1363 59.031 74.9869 58.7918 74.8898 58.5304C74.7874 58.2603 74.7356 57.9737 74.737 57.6849C74.7346 57.3872 74.7898 57.0918 74.8997 56.8149C75.0045 56.5553 75.1585 56.3184 75.3535 56.117C75.5505 55.9152 75.7872 55.7562 76.0489 55.65C76.3303 55.534 76.6322 55.4755 76.9367 55.478C77.2604 55.4682 77.5831 55.5182 77.8886 55.6255C78.1217 55.7128 78.3336 55.8485 78.51 56.0236L78.1056 56.4561C77.9493 56.301 77.7607 56.1819 77.5532 56.1072C77.3547 56.0499 77.1481 56.025 76.9416 56.0334C76.7253 56.0293 76.5106 56.071 76.3116 56.1557C76.1127 56.2405 75.934 56.3663 75.7875 56.525C75.6467 56.6792 75.5378 56.8596 75.4669 57.0558C75.391 57.2637 75.3526 57.4834 75.3535 57.7046C75.3519 57.9321 75.3955 58.1576 75.4817 58.3682C75.5607 58.566 75.678 58.7464 75.827 58.899C75.9671 59.0474 76.1345 59.1676 76.3202 59.2529C76.526 59.3397 76.7477 59.3832 76.9712 59.3807C77.1649 59.3824 77.3583 59.3643 77.5483 59.3266C77.7102 59.2965 77.8666 59.2418 78.0119 59.1644V57.9995H77.0748V57.4638L78.5939 57.4687Z" fill="#9AA1A8"/>
<path d="M82.5101 55.6206V58.1962C82.511 58.3339 82.5292 58.4709 82.5643 58.6041C82.5992 58.7433 82.6594 58.8749 82.7419 58.9924C82.8273 59.1121 82.9385 59.2112 83.0674 59.2824C83.2219 59.3541 83.3902 59.3912 83.5606 59.3912C83.731 59.3912 83.8993 59.3541 84.0538 59.2824C84.1827 59.2112 84.2939 59.1121 84.3793 58.9924C84.4618 58.8749 84.522 58.7433 84.5569 58.6041C84.592 58.4709 84.6103 58.3339 84.6112 58.1962V55.6206H85.1833V58.2846C85.1869 58.5134 85.145 58.7406 85.06 58.9531C84.9808 59.1479 84.8634 59.325 84.7147 59.4741C84.5673 59.6214 84.391 59.7369 84.1969 59.8133C83.7824 59.9714 83.324 59.9714 82.9096 59.8133C82.7153 59.737 82.539 59.6215 82.3917 59.4741C82.2427 59.3253 82.1253 59.1481 82.0464 58.9531C81.9609 58.7408 81.919 58.5134 81.9231 58.2846V55.6206H82.5101Z" fill="#9AA1A8"/>
<path d="M88.5914 55.6206H91.3139V56.1564H89.1635V57.4097H91.166V57.9455H89.1635V59.2923H91.4224V59.828H88.5914V55.6206Z" fill="#9AA1A8"/>
<path d="M94.7368 58.9432C94.8333 59.0914 94.9702 59.209 95.1314 59.2824C95.2862 59.3531 95.4544 59.3899 95.6246 59.3905C95.7233 59.3903 95.8214 59.3754 95.9156 59.3463C96.0131 59.3181 96.1049 59.2732 96.1869 59.2136C96.2691 59.1547 96.3379 59.0794 96.3891 58.9924C96.4431 58.9 96.4704 58.7945 96.468 58.6876C96.4725 58.6186 96.4611 58.5495 96.4346 58.4856C96.4081 58.4217 96.3672 58.3647 96.3151 58.319C96.1997 58.2263 96.0697 58.1532 95.9304 58.1027C95.7759 58.047 95.6115 57.9913 95.4372 57.9356C95.2637 57.8839 95.0979 57.8096 94.944 57.7144C94.7885 57.617 94.657 57.486 94.5593 57.331C94.4473 57.1337 94.3943 56.9086 94.4064 56.6822C94.4077 56.5474 94.4345 56.414 94.4853 56.289C94.5416 56.1467 94.6273 56.0177 94.7368 55.9105C94.8651 55.788 95.0158 55.6913 95.1807 55.6255C95.3875 55.5427 95.609 55.5025 95.8318 55.5075C96.0555 55.5062 96.2782 55.5377 96.4927 55.6009C96.7121 55.6714 96.9048 55.8068 97.0451 55.9892L96.5815 56.4119C96.5056 56.2974 96.3999 56.2057 96.2757 56.1465C96.1367 56.0762 95.9827 56.0407 95.8268 56.0432C95.6925 56.0403 95.5588 56.062 95.4323 56.1071C95.3379 56.1429 95.2521 56.1982 95.1807 56.2693C95.1211 56.329 95.0756 56.4012 95.0476 56.4807C95.0232 56.5469 95.0099 56.6166 95.0081 56.6871C95.0029 56.7621 95.0138 56.8373 95.0402 56.9076C95.0666 56.978 95.1078 57.0419 95.161 57.0951C95.2735 57.1956 95.404 57.274 95.5457 57.3261C95.7068 57.3897 95.8715 57.4438 96.0389 57.4883C96.2112 57.5345 96.3769 57.6022 96.5321 57.6898C96.6849 57.7739 96.8165 57.8916 96.9169 58.0339C97.0287 58.2115 97.0821 58.4194 97.0697 58.6286C97.0718 58.817 97.0313 59.0035 96.9514 59.1742C96.8785 59.3309 96.7725 59.4701 96.6407 59.5822C96.5041 59.6964 96.3467 59.7832 96.177 59.8378C95.9924 59.8981 95.7992 59.928 95.6049 59.9263C95.3417 59.9279 95.0805 59.8795 94.8355 59.7837C94.6042 59.6975 94.4035 59.5454 94.2584 59.3463L94.7368 58.9432Z" fill="#9AA1A8"/>
<path d="M101.188 56.1514H99.8268V55.6156H103.117V56.1514H101.76V59.8181H101.188V56.1514Z" fill="#9AA1A8"/>
<path d="M110.268 58.9432C110.365 59.0914 110.502 59.209 110.663 59.2824C110.818 59.3531 110.986 59.3899 111.156 59.3905C111.255 59.3903 111.353 59.3754 111.447 59.3463C111.544 59.3181 111.636 59.2732 111.718 59.2136C111.8 59.1547 111.869 59.0794 111.92 58.9924C111.974 58.9 112.002 58.7945 111.999 58.6876C112.004 58.6186 111.992 58.5495 111.966 58.4856C111.939 58.4217 111.899 58.3647 111.847 58.319C111.731 58.2263 111.601 58.1532 111.462 58.1027C111.307 58.047 111.143 57.9913 110.969 57.9356C110.795 57.8839 110.629 57.8096 110.475 57.7144C110.32 57.617 110.188 57.486 110.091 57.331C109.979 57.1337 109.926 56.9086 109.938 56.6822C109.939 56.5474 109.966 56.414 110.017 56.289C110.073 56.1467 110.159 56.0177 110.268 55.9105C110.396 55.788 110.547 55.6913 110.712 55.6255C110.919 55.5427 111.14 55.5025 111.363 55.5075C111.587 55.5062 111.81 55.5377 112.024 55.6009C112.244 55.6714 112.436 55.8068 112.576 55.9892L112.113 56.4119C112.037 56.2974 111.931 56.2057 111.807 56.1465C111.668 56.0762 111.514 56.0407 111.358 56.0432C111.224 56.0403 111.09 56.062 110.964 56.1071C110.869 56.1429 110.784 56.1982 110.712 56.2693C110.652 56.329 110.607 56.4012 110.579 56.4807C110.555 56.5469 110.541 56.6166 110.539 56.6871C110.534 56.7621 110.545 56.8373 110.572 56.9076C110.598 56.978 110.639 57.0419 110.692 57.0951C110.805 57.1956 110.935 57.274 111.077 57.3261C111.238 57.3897 111.403 57.4438 111.57 57.4883C111.743 57.5345 111.908 57.6022 112.064 57.6898C112.216 57.7739 112.348 57.8916 112.448 58.0339C112.56 58.2115 112.613 58.4194 112.601 58.6286C112.603 58.817 112.563 59.0035 112.483 59.1742C112.41 59.3309 112.304 59.4701 112.172 59.5822C112.035 59.6964 111.878 59.7832 111.708 59.8378C111.524 59.8981 111.331 59.928 111.136 59.9263C110.873 59.9279 110.612 59.8795 110.367 59.7837C110.136 59.6975 109.935 59.5454 109.79 59.3463L110.268 58.9432Z" fill="#9AA1A8"/>
<path d="M115.837 55.6206H118.559V56.1564H116.399V57.4097H118.401V57.9455H116.399V59.2923H118.658V59.828H115.827L115.837 55.6206Z" fill="#9AA1A8"/>
<path d="M121.859 55.6206H123.338C123.565 55.613 123.791 55.6498 124.004 55.7287C124.162 55.7902 124.303 55.8859 124.419 56.0089C124.517 56.1178 124.589 56.2471 124.631 56.3874C124.669 56.52 124.689 56.6573 124.69 56.7953C124.691 56.9279 124.668 57.0596 124.621 57.1836C124.573 57.3083 124.503 57.4232 124.414 57.5228C124.321 57.6263 124.211 57.7128 124.088 57.7784C123.953 57.8493 123.806 57.8928 123.654 57.9062L124.853 59.8231H124.137L123.067 57.9701H122.431V59.8231H121.859V55.6206ZM122.431 57.4736H123.181C123.291 57.4744 123.402 57.4662 123.511 57.4491C123.613 57.4332 123.711 57.3999 123.802 57.3508C123.889 57.302 123.96 57.2306 124.009 57.1443C124.06 57.0359 124.087 56.9176 124.087 56.7978C124.087 56.678 124.06 56.5597 124.009 56.4513C123.96 56.365 123.889 56.2936 123.802 56.2448C123.711 56.1956 123.613 56.1624 123.511 56.1465C123.402 56.1294 123.291 56.1212 123.181 56.1219H122.431V57.4736Z" fill="#9AA1A8"/>
<path d="M127.299 55.6206H127.96L129.198 59.0613L130.485 55.6206H131.112L129.449 59.8231H128.927L127.299 55.6206Z" fill="#9AA1A8"/>
<path d="M134.012 55.6206H134.584V59.8231H134.012V55.6206Z" fill="#9AA1A8"/>
<path d="M140.986 56.5249C140.866 56.3699 140.711 56.2466 140.532 56.1661C140.354 56.085 140.16 56.0431 139.965 56.0433C139.742 56.0398 139.522 56.0851 139.319 56.176C139.13 56.2615 138.962 56.3854 138.825 56.5397C138.685 56.6982 138.576 56.8816 138.505 57.0804C138.428 57.295 138.39 57.5211 138.391 57.7488C138.391 57.9632 138.427 58.1761 138.5 58.378C138.568 58.5702 138.674 58.7472 138.811 58.899C138.948 59.0515 139.116 59.1737 139.304 59.2578C139.512 59.3468 139.738 59.3904 139.965 59.3856C140.186 59.3905 140.405 59.3398 140.601 59.2381C140.786 59.1363 140.944 58.9933 141.065 58.8203L141.558 59.1841C141.506 59.2498 141.45 59.3122 141.39 59.3709C141.295 59.4634 141.189 59.5442 141.074 59.6117C140.92 59.7036 140.754 59.7762 140.581 59.828C140.374 59.8932 140.157 59.9247 139.94 59.9214C139.629 59.9256 139.32 59.8601 139.037 59.7297C138.779 59.6113 138.547 59.4444 138.352 59.2381C137.983 58.8344 137.776 58.3096 137.77 57.7636C137.767 57.4562 137.822 57.1511 137.933 56.8641C138.033 56.5991 138.186 56.3568 138.381 56.1514C138.578 55.9491 138.815 55.7901 139.077 55.6844C139.361 55.5711 139.664 55.5143 139.97 55.5173C140.25 55.5186 140.528 55.5736 140.788 55.6795C141.05 55.7797 141.278 55.9498 141.449 56.171L140.986 56.5249Z" fill="#9AA1A8"/>
<path d="M144.626 55.6206H147.348V56.1564H145.198V57.4097H147.2V57.9455H145.198V59.2923H147.471V59.828H144.64L144.626 55.6206Z" fill="#9AA1A8"/>
<path d="M150.771 58.9433C150.868 59.0914 151.004 59.2091 151.166 59.2824C151.32 59.3531 151.489 59.39 151.659 59.3906C151.757 59.3904 151.856 59.3755 151.95 59.3463C152.047 59.3181 152.139 59.2732 152.221 59.2136C152.297 59.1499 152.359 59.0713 152.404 58.9826C152.458 58.8902 152.485 58.7848 152.482 58.6779C152.487 58.6089 152.476 58.5397 152.449 58.4758C152.423 58.4119 152.382 58.3549 152.33 58.3092C152.214 58.2165 152.084 58.1435 151.945 58.093C151.79 58.0373 151.626 57.9815 151.452 57.9258C151.278 57.8742 151.112 57.7998 150.958 57.7047C150.803 57.6073 150.671 57.4762 150.574 57.3213C150.462 57.1239 150.409 56.8988 150.421 56.6725C150.422 56.5376 150.449 56.4042 150.5 56.2792C150.556 56.1369 150.642 56.008 150.751 55.9008C150.88 55.7783 151.03 55.6815 151.195 55.6157C151.402 55.5329 151.623 55.4928 151.846 55.4977C152.07 55.4964 152.293 55.5279 152.507 55.5911C152.727 55.6616 152.919 55.797 153.06 55.9794L152.596 56.4021C152.52 56.2877 152.414 56.1959 152.29 56.1367C152.151 56.0664 151.997 56.031 151.841 56.0335C151.707 56.0306 151.573 56.0522 151.447 56.0974C151.352 56.1331 151.267 56.1884 151.195 56.2596C151.136 56.3193 151.09 56.3915 151.062 56.4709C151.038 56.5372 151.024 56.6069 151.023 56.6774C151.017 56.7523 151.028 56.8275 151.055 56.8979C151.081 56.9682 151.122 57.0322 151.175 57.0853C151.288 57.1858 151.418 57.2642 151.56 57.3164C151.721 57.3799 151.886 57.4341 152.053 57.4786C152.226 57.5247 152.391 57.5924 152.547 57.6801C152.699 57.7642 152.831 57.8818 152.931 58.0241C153.043 58.2017 153.097 58.4096 153.084 58.6189C153.086 58.8073 153.046 58.9937 152.966 59.1645C152.893 59.3212 152.787 59.4603 152.655 59.5724C152.519 59.6867 152.361 59.7734 152.192 59.828C152.007 59.8883 151.814 59.9182 151.619 59.9165C151.356 59.9181 151.095 59.8698 150.85 59.774C150.619 59.6878 150.418 59.5356 150.273 59.3365L150.771 58.9433Z" fill="#9AA1A8"/>
<path d="M160.502 58.9432C160.599 59.0914 160.736 59.209 160.897 59.2824C161.052 59.3531 161.22 59.3899 161.39 59.3905C161.489 59.3903 161.587 59.3754 161.681 59.3463C161.778 59.3181 161.87 59.2732 161.952 59.2136C162.034 59.1547 162.103 59.0794 162.154 58.9924C162.208 58.9 162.236 58.7945 162.233 58.6876C162.238 58.6186 162.226 58.5495 162.2 58.4856C162.173 58.4217 162.133 58.3647 162.08 58.319C161.965 58.2263 161.835 58.1532 161.696 58.1027C161.541 58.047 161.377 57.9913 161.203 57.9356C161.029 57.8839 160.863 57.8096 160.709 57.7144C160.554 57.617 160.422 57.486 160.325 57.331C160.213 57.1337 160.16 56.9086 160.172 56.6822C160.173 56.5474 160.2 56.414 160.251 56.289C160.307 56.1467 160.393 56.0177 160.502 55.9105C160.63 55.788 160.781 55.6913 160.946 55.6255C161.153 55.5427 161.374 55.5025 161.597 55.5075C161.821 55.5062 162.044 55.5377 162.258 55.6009C162.477 55.6714 162.67 55.8068 162.81 55.9892L162.347 56.4119C162.271 56.2974 162.165 56.2057 162.041 56.1465C161.902 56.0762 161.748 56.0407 161.592 56.0432C161.458 56.0403 161.324 56.062 161.198 56.1071C161.103 56.1429 161.017 56.1982 160.946 56.2693C160.886 56.329 160.841 56.4012 160.813 56.4807C160.789 56.5469 160.775 56.6166 160.773 56.6871C160.768 56.7621 160.779 56.8373 160.806 56.9076C160.832 56.978 160.873 57.0419 160.926 57.0951C161.039 57.1956 161.169 57.274 161.311 57.3261C161.472 57.3897 161.637 57.4438 161.804 57.4883C161.977 57.5345 162.142 57.6022 162.297 57.6898C162.45 57.7739 162.582 57.8916 162.682 58.0339C162.794 58.2115 162.847 58.4194 162.835 58.6286C162.837 58.817 162.797 59.0035 162.717 59.1742C162.644 59.3309 162.538 59.4701 162.406 59.5822C162.269 59.6964 162.112 59.7832 161.942 59.8378C161.758 59.8981 161.565 59.928 161.37 59.9263C161.107 59.9279 160.846 59.8795 160.601 59.7837C160.37 59.6975 160.169 59.5454 160.024 59.3463L160.502 58.9432Z" fill="#9AA1A8"/>
<path d="M166.071 55.6206H166.643V59.8231H166.071V55.6206Z" fill="#9AA1A8"/>
<path d="M170.066 55.6206H170.919L172.26 58.8007L173.587 55.6206H174.44V59.8231H173.868V56.3825L172.443 59.8231H172.063L170.638 56.3825V59.8231H170.066V55.6206Z" fill="#9AA1A8"/>
<path d="M177.883 55.6206H179.363C179.59 55.613 179.816 55.6498 180.029 55.7287C180.186 55.7902 180.327 55.8859 180.443 56.0089C180.541 56.1178 180.613 56.2471 180.655 56.3874C180.733 56.6521 180.733 56.9337 180.655 57.1984C180.614 57.3391 180.542 57.4686 180.443 57.5769C180.327 57.6998 180.186 57.7955 180.029 57.857C179.816 57.9365 179.59 57.9732 179.363 57.9652H178.45V59.8182H177.878L177.883 55.6206ZM178.455 57.4736H179.205C179.316 57.4744 179.426 57.4662 179.535 57.4491C179.637 57.4332 179.736 57.3999 179.826 57.3508C179.913 57.302 179.985 57.2306 180.034 57.1443C180.085 57.0359 180.111 56.9176 180.111 56.7978C180.111 56.678 180.085 56.5597 180.034 56.4513C179.985 56.365 179.913 56.2936 179.826 56.2448C179.736 56.1956 179.637 56.1624 179.535 56.1465C179.426 56.1294 179.316 56.1212 179.205 56.1219H178.455V57.4736Z" fill="#9AA1A8"/>
<path d="M183.797 55.6206H184.369V59.2874H186.302V59.8231H183.797V55.6206Z" fill="#9AA1A8"/>
<path d="M189.271 55.6206H189.844V59.8231H189.271V55.6206Z" fill="#9AA1A8"/>
<path d="M193.306 55.6206H195.955V56.1564H193.878V57.4736H195.807V57.9996H193.873V59.8133H193.301L193.306 55.6206Z" fill="#9AA1A8"/>
<path d="M199.106 55.6206H199.678V59.8231H199.106V55.6206Z" fill="#9AA1A8"/>
<path d="M203.146 55.6206H205.868V56.1564H203.698V57.4097H205.7V57.9455H203.698V59.2923H205.957V59.828H203.126L203.146 55.6206Z" fill="#9AA1A8"/>
<path d="M209.069 55.6206H210.549C210.814 55.6151 211.078 55.6482 211.333 55.7189C211.54 55.7787 211.736 55.8699 211.915 55.9892C212.072 56.0952 212.21 56.2264 212.324 56.3775C212.43 56.5167 212.518 56.6686 212.586 56.8297C212.648 56.9784 212.694 57.1333 212.724 57.2918C212.751 57.4327 212.766 57.5758 212.768 57.7194C212.769 57.9869 212.719 58.252 212.62 58.5009C212.521 58.7513 212.372 58.9788 212.181 59.1694C211.976 59.3805 211.729 59.5477 211.456 59.6609C211.142 59.7831 210.807 59.8432 210.47 59.8378H209.094L209.069 55.6206ZM209.641 59.2873H210.361C210.593 59.2885 210.825 59.2554 211.047 59.189C211.253 59.1284 211.446 59.0282 211.614 58.8941C211.779 58.7616 211.913 58.5936 212.004 58.4026C212.103 58.1887 212.152 57.955 212.147 57.7194C212.146 57.5535 212.124 57.3885 212.083 57.2279C212.033 57.0496 211.949 56.8827 211.836 56.7363C211.704 56.5643 211.536 56.4233 211.343 56.3235C211.083 56.1998 210.797 56.1408 210.509 56.1514H209.651L209.641 59.2873Z" fill="#9AA1A8"/>
</g>
<defs>
<clipPath id="clip0_1_5983">
<rect width="213" height="60" fill="white"/>
</clipPath>
</defs>
</svg>
