<svg width="215" height="51" viewBox="0 0 215 51" fill="none" xmlns="http://www.w3.org/2000/svg">
<path d="M85.054 5.65686L99.5812 0L82.4194 49.9247H69.9233L85.054 5.65686Z" fill="#2274FF"/>
<path d="M173.319 27.9934V49.9559H162.482V29.5674C162.482 25.1312 159.663 23.0586 156.184 23.0586C152.206 23.0586 149.461 25.3494 149.461 30.4245V49.9559H138.634V19.0069L149.461 14.1915V17.5524C151.413 14.9084 155.024 13.189 159.795 13.189C167.105 13.189 173.319 18.3419 173.319 27.9934Z" fill="#030163"/>
<path d="M118.344 40.3409C121.125 39.3331 123.109 37.4008 123.917 35.432L133.774 37.1255C132.131 42.8966 128.001 47.0626 121.524 49.395C109.915 53.587 99.8699 48.4651 96.1751 38.4501C92.4803 28.435 96.9623 18.0615 107.69 14.1864C117.598 10.6073 127.733 15.5473 131.475 25.6923C131.979 27.0368 132.342 28.4295 132.556 29.8479L108.461 38.5799C111.038 41.6084 114.612 41.6915 118.344 40.3409ZM120.07 25.8585C117.546 22.3522 113.972 22.0457 110.917 23.1522C107.049 24.5495 105.144 27.3649 105.475 31.1362L120.07 25.8585Z" fill="#030163"/>
<path d="M180.299 36.1905V16.8772L191.137 14.2332V34.6165C191.137 39.0527 193.955 41.1253 197.435 41.1253C201.413 41.1253 204.158 38.8345 204.158 33.7594V14.2332H215.001V45.1926L204.148 49.9976V46.6367C202.195 49.2807 198.584 51.0001 193.814 51.0001C186.513 51.0001 180.299 45.8471 180.299 36.1905Z" fill="#030163"/>
<path d="M68.3698 14.1343H55.6323L67.7977 49.8987H80.488L68.3698 14.1343Z" fill="#030163"/>
<path d="M45.9983 50.9072C45.7828 50.9063 45.5702 50.8583 45.3756 50.7667C45.1809 50.6751 45.0091 50.5421 44.8723 50.3773L44.8298 50.3269L39.9178 43.7534H9.72736C9.15629 43.7526 8.60011 43.573 8.13838 43.2404C7.67665 42.9078 7.33304 42.4392 7.1567 41.9016C6.98036 41.364 6.98033 40.785 7.15662 40.2473C7.3329 39.7097 7.67647 39.2411 8.13817 38.9084L9.17497 38.0294C9.26845 37.9327 9.37043 37.836 9.47666 37.7392L10.3775 36.8981L13.114 34.3747L17.0912 30.6905C17.2267 30.5655 17.3913 30.4753 17.5703 30.428C17.7494 30.3807 17.9374 30.3776 18.1179 30.4192C18.2984 30.4607 18.4658 30.5456 18.6054 30.6662C18.745 30.7869 18.8524 30.9397 18.9183 31.1111L21.1831 36.8897L25.1731 20.3319C25.0955 20.3453 25.0189 20.3635 24.9437 20.3866H24.8842L8.97101 24.5713L14.7796 26.9306C14.9557 27.0021 15.1106 27.1164 15.2301 27.2629C15.3497 27.4094 15.4299 27.5835 15.4633 27.7688C15.4968 27.9542 15.4825 28.145 15.4216 28.3234C15.3608 28.5018 15.2554 28.6622 15.1153 28.7896L5.10001 37.8402L5.06177 37.8738C4.61175 38.2498 4.06181 38.4894 3.47777 38.564C2.89373 38.6386 2.30034 38.545 1.76865 38.2944C1.23867 38.0495 0.790584 37.6596 0.477349 37.1707C0.164113 36.6818 -0.0011812 36.1144 0.000997832 35.5355V14.3557C0.00179129 13.9225 0.118121 13.4972 0.338226 13.1228C0.558331 12.7484 0.874408 12.4381 1.2545 12.2234L22.3942 0.321292C22.7686 0.111178 23.1917 0.000732422 23.6222 0.000732422C24.0526 0.000732422 24.4757 0.111178 24.8502 0.321292L33.289 5.11156V4.18631C33.2862 3.93471 33.3338 3.68505 33.429 3.45175C33.5242 3.21845 33.6652 3.00612 33.8438 2.82703C34.0223 2.64794 34.235 2.50564 34.4694 2.40833C34.7039 2.31103 34.9555 2.26065 35.2097 2.26011H40.5381C41.0458 2.26229 41.5322 2.46199 41.8923 2.81608C42.2525 3.17018 42.4574 3.65026 42.463 4.15267L42.514 10.2088C42.5144 10.2482 42.5257 10.2866 42.5467 10.32C42.5677 10.3534 42.5975 10.3804 42.633 10.3981L46.1216 12.2108C46.5217 12.4182 46.8568 12.7301 47.0905 13.1126C47.3242 13.4952 47.4476 13.9338 47.4473 14.3809V42.7819C47.4473 43.7408 47.477 47.8581 47.4813 49.4352C47.4846 49.7369 47.3926 50.032 47.2182 50.2794C47.0437 50.5267 46.7955 50.7139 46.5082 50.8147C46.345 50.8747 46.1724 50.906 45.9983 50.9072ZM10.7047 39.6697L10.6452 39.7243L9.57014 40.637L9.47241 40.7085C9.36796 40.7439 9.28155 40.8182 9.23151 40.9157C9.18146 41.0131 9.17169 41.126 9.20429 41.2304C9.23688 41.3348 9.30926 41.4226 9.40611 41.4751C9.50295 41.5276 9.61665 41.5408 9.72311 41.5117H40.4871C40.6641 41.5117 40.8385 41.5528 40.9964 41.6317C41.1544 41.7106 41.2914 41.8251 41.3965 41.966L45.2207 47.0759C45.2207 45.3557 45.2207 43.4169 45.1952 42.7945V14.3851C45.1948 14.3458 45.1835 14.3073 45.1625 14.274C45.1416 14.2406 45.1117 14.2136 45.0763 14.1958L41.5877 12.3832C41.1904 12.1768 40.8572 11.8674 40.6237 11.4881C40.3902 11.1089 40.2652 10.674 40.2619 10.2299L40.2109 4.49753H35.5369V6.50364C35.5415 6.75588 35.4784 7.00482 35.3541 7.22505C35.2297 7.44528 35.0486 7.62891 34.8291 7.7572C34.6096 7.88548 34.3597 7.95383 34.1048 7.95526C33.8499 7.95669 33.5992 7.89116 33.3783 7.76535L23.7029 2.29796C23.6698 2.27954 23.6325 2.26986 23.5945 2.26986C23.5566 2.26986 23.5193 2.27954 23.4862 2.29796L2.37204 14.1664C2.33847 14.1856 2.31059 14.2132 2.2912 14.2464C2.27181 14.2796 2.26158 14.3173 2.26156 14.3557V35.5355C2.2685 35.687 2.31674 35.8339 2.40117 35.9606C2.48559 36.0872 2.60306 36.1889 2.74112 36.2549C2.87919 36.3208 3.03271 36.3486 3.18541 36.3352C3.33812 36.3219 3.48433 36.2679 3.60855 36.1789L12.2726 28.3311L7.73025 26.4848C7.39135 26.4042 7.07968 26.2371 6.82623 26.0003C6.57278 25.7634 6.38637 25.4651 6.28553 25.1348C5.99658 24.0666 6.82093 23.1287 6.98664 22.9521C7.13173 22.7994 7.31724 22.6901 7.52204 22.6366L24.2808 18.2417C24.8034 18.0819 26.0442 17.8211 26.8813 18.5782C27.2637 18.9272 27.6631 19.5875 27.3912 20.7567L23.227 38.0336C23.2117 38.0999 23.1904 38.1647 23.1633 38.2271C23.0438 38.5509 22.8481 38.8418 22.5925 39.0759C22.3368 39.3099 22.0285 39.4803 21.693 39.5729C21.3679 39.6417 21.0315 39.6397 20.7072 39.5671C20.383 39.4945 20.0785 39.353 19.8149 39.1524C19.654 39.0302 19.5293 38.8675 19.4537 38.6813L17.4226 33.4579C14.9071 35.7794 10.9469 39.4425 10.7047 39.6697Z" fill="#2274FF"/>
<g opacity="0.5">
<path d="M25.5302 8.64453H25.5259C25.1551 8.64453 24.8546 8.94204 24.8546 9.30903V15.1171C24.8546 15.4841 25.1551 15.7816 25.5259 15.7816H25.5302C25.901 15.7816 26.2015 15.4841 26.2015 15.1171V9.30903C26.2015 8.94204 25.901 8.64453 25.5302 8.64453Z" fill="#2274FF"/>
<path d="M17.2949 12.0193L17.2919 12.0223C17.0297 12.2818 17.0297 12.7026 17.2919 12.9621L21.4413 17.069C21.7034 17.3285 22.1285 17.3285 22.3907 17.069L22.3937 17.066C22.6559 16.8065 22.6559 16.3858 22.3937 16.1263L18.2443 12.0193C17.9821 11.7598 17.5571 11.7598 17.2949 12.0193Z" fill="#2274FF"/>
<path d="M28.6644 23.2667L28.6614 23.2696C28.3992 23.5291 28.3992 23.9499 28.6614 24.2094L32.8108 28.3163C33.0729 28.5758 33.498 28.5758 33.7602 28.3163L33.7632 28.3133C34.0254 28.0538 34.0254 27.6331 33.7632 27.3736L29.6138 23.2667C29.3517 23.0072 28.9266 23.0072 28.6644 23.2667Z" fill="#2274FF"/>
<path d="M29.9579 20.1638V20.168C29.9579 20.535 30.2585 20.8325 30.6293 20.8325H36.4974C36.8682 20.8325 37.1688 20.535 37.1688 20.168V20.1638C37.1688 19.7968 36.8682 19.4993 36.4974 19.4993H30.6293C30.2585 19.4993 29.9579 19.7968 29.9579 20.1638Z" fill="#2274FF"/>
<path d="M28.6633 17.0638L28.6663 17.0668C28.9284 17.3263 29.3535 17.3263 29.6157 17.0668L33.7651 12.9598C34.0273 12.7003 34.0273 12.2796 33.7651 12.0201L33.7621 12.0171C33.4999 11.7576 33.0748 11.7576 32.8126 12.0171L28.6633 16.124C28.4011 16.3835 28.4011 16.8043 28.6633 17.0638Z" fill="#2274FF"/>
</g>
</svg>
