<svg width="18" height="47" viewBox="0 0 18 47" fill="none" xmlns="http://www.w3.org/2000/svg">
<path d="M1.80835 44.1768L2.45842 44.5346L15.7924 37.415L15.1424 37.0571L1.80835 44.1768Z" fill="#FAFAFA"/>
<path d="M15.1422 37.0572L2.45825 43.8282V9.87242L15.1471 3.10603L15.1422 37.0572Z" fill="white"/>
<path d="M17.0227 0.789948L1.22736 9.23072V46.5123L17.0227 38.0853V0.789948ZM15.797 37.4156L2.45803 44.5535V9.87296L15.797 2.75335V37.4156Z" fill="#F0F0F0"/>
<path d="M15.7921 37.4151L15.142 37.0573L15.147 3.1061L15.7921 2.75287V37.4151Z" fill="#E0E0E0"/>
<path d="M17.0227 0.790092L16.3627 0.441452L0.567352 8.86847L1.22735 9.21711L17.0227 0.790092Z" fill="#FAFAFA"/>
<path d="M0.567322 8.86798L1.22732 9.21662V46.4982L0.567322 46.1496V8.86798Z" fill="#E0E0E0"/>
<path d="M14.1942 36.3556L3.40591 42.1128V10.9324L14.1942 5.1752V36.3556Z" fill="#F0F0F0"/>
<path d="M14.1942 36.3556L3.40591 42.1128V10.9324L14.1942 5.1752V36.3556Z" fill="#F0F0F0"/>
<path d="M3.39121 34.2775C3.90488 34.3142 4.42085 34.3142 4.93452 34.2775C6.72907 34.1526 8.49609 33.7975 10.1848 33.2224C11.4899 32.7636 12.795 32.1994 14.1795 32.1627V36.3693L12.6908 37.1492C12.125 36.6681 11.4452 36.3162 10.7058 36.1216C8.62656 35.617 6.49768 36.5803 4.35888 36.8097C4.0291 36.8401 3.69779 36.8539 3.36639 36.851L3.39121 34.2775Z" fill="#FAFAFA"/>
<path d="M3.39118 23.0386C5.80788 22.378 8.27916 21.8275 10.0011 20.1944C11.3906 18.8733 12.0456 17.0475 12.4823 15.2538C12.919 13.4601 13.2515 11.616 14.1298 9.96457L14.1596 9.91411V24.5387C14.0207 24.7268 13.8867 24.9148 13.7428 25.0937C12.1598 27.0801 9.82247 28.7361 7.15765 28.8646C5.90713 28.9242 4.61194 28.6535 3.37134 28.6581L3.39118 23.0386Z" fill="#FAFAFA"/>
<path d="M3.39108 16.4052C4.32229 15.6451 5.03005 14.6793 5.44831 13.598C5.86657 12.5166 5.9817 11.355 5.78297 10.2214C5.74823 10.0516 5.70853 9.88649 5.65891 9.72135L9.84222 7.50565C9.84222 7.75795 9.81244 8.01026 9.80748 8.26256C9.76282 9.72594 9.80749 11.2122 9.46508 12.6389C9.1624 13.8386 8.58378 14.9639 7.76859 15.9383C6.95339 16.9128 5.92074 17.7135 4.74086 18.286C4.30661 18.4893 3.8552 18.6596 3.39108 18.7952V16.4052Z" fill="#FAFAFA"/>
</svg>
