<svg width="17" height="47" viewBox="0 0 17 47" fill="none" xmlns="http://www.w3.org/2000/svg">
<path d="M15.3128 44.1767L14.6627 44.5345L1.32373 37.4149L1.97381 37.0571L15.3128 44.1767Z" fill="#FAFAFA"/>
<path d="M1.97363 37.0572L14.6625 43.8281V9.87237L1.97363 3.10599V37.0572Z" fill="white"/>
<path d="M0.0977936 38.0715L15.8882 46.4985V9.23068L0.0977936 0.789902V38.0715ZM1.32351 2.74871L14.6625 9.87291V44.5535L1.30862 37.4155L1.32351 2.74871Z" fill="#F0F0F0"/>
<path d="M1.32373 37.4151L1.97381 37.0572V3.10605L1.32373 2.75282V37.4151Z" fill="#E0E0E0"/>
<path d="M0.0977173 0.790046L0.757727 0.441406L16.5481 8.86842L15.8881 9.21706L0.0977173 0.790046Z" fill="#FAFAFA"/>
<path d="M16.548 8.86794L15.888 9.21658V46.4982L16.548 46.1496V8.86794Z" fill="#E0E0E0"/>
<path d="M2.9265 36.3556L13.7098 42.1127V10.9323L2.9265 5.17516V36.3556Z" fill="#F0F0F0"/>
<path d="M2.9265 36.3556L13.7098 42.1127V10.9323L2.9265 5.17516V36.3556Z" fill="#F0F0F0"/>
<path d="M13.7147 34.2774C13.2027 34.3141 12.6883 34.3141 12.1763 34.2774C10.3802 34.1526 8.6115 33.7975 6.92113 33.2223C5.61602 32.7636 4.3109 32.1993 2.9512 32.1626V36.3693L4.41015 37.1491C4.9768 36.6691 5.65631 36.3174 6.39512 36.1216C8.47437 35.6169 10.6032 36.5803 12.7371 36.8097C13.0669 36.8399 13.3982 36.8537 13.7296 36.8509L13.7147 34.2774Z" fill="#FAFAFA"/>
<path d="M13.7147 23.0386C11.303 22.378 8.82672 21.8275 7.10476 20.1944C5.71529 18.8732 5.06521 17.0474 4.62356 15.2538C4.1819 13.4601 3.84942 11.616 2.97603 9.96452L2.94626 9.91406V24.5386C3.08024 24.7267 3.21424 24.9148 3.35815 25.0937C4.94612 27.08 7.27845 28.7361 9.94326 28.8645C11.1988 28.9242 12.489 28.6535 13.7296 28.6581L13.7147 23.0386Z" fill="#FAFAFA"/>
<path d="M13.7146 16.4051C12.7842 15.6445 12.0774 14.6786 11.66 13.5972C11.2427 12.5159 11.1283 11.3545 11.3276 10.2213C11.3624 10.0516 11.4021 9.88645 11.4467 9.7213L7.29816 7.5056C7.29816 7.75791 7.32792 8.01021 7.33785 8.26252C7.29313 9.72804 7.40617 11.194 7.67529 12.6389C7.98005 13.8383 8.56001 14.9633 9.37593 15.9376C10.1918 16.9118 11.2247 17.7127 12.4045 18.2859C12.8258 18.4876 13.2639 18.6578 13.7146 18.7951V16.4051Z" fill="#FAFAFA"/>
</svg>
