<svg width="242" height="53" viewBox="0 0 242 53" fill="none" xmlns="http://www.w3.org/2000/svg">
<path d="M229.954 40.7141H210.248L212.282 48.5585C212.436 49.5081 213.19 50.4302 214.545 51.155C217.612 52.7881 222.579 52.7881 225.646 51.155C227.105 50.3751 227.864 49.3659 227.934 48.3429L229.954 40.7141Z" fill="#37474F"/>
<path d="M225.849 46.8291C226.437 46.6273 227.006 46.3818 227.551 46.0951C227.969 45.8726 228.364 45.6163 228.732 45.329L229.844 41.1362C229.27 41.7188 228.6 42.2142 227.859 42.6041C223.701 44.8198 217.036 44.8749 212.739 42.783L213.235 40.9114L213.081 40.7141H210.252L212.287 48.5585C212.441 49.5081 213.195 50.4302 214.55 51.155C216.733 52.3202 219.884 52.6505 222.624 52.155C217.711 52.4945 214.341 50.5082 213.835 48.6778C213.637 47.9484 213.284 46.3337 213.284 46.3337C216.833 47.9989 221.984 48.1686 225.849 46.8291Z" fill="#263238"/>
<path d="M230.981 38.3928C230.866 38.9015 230.641 39.3836 230.321 39.8103C229.673 40.6548 228.824 41.3502 227.839 41.8425C223.562 44.1362 216.624 44.1362 212.347 41.8425C211.362 41.3497 210.513 40.6544 209.866 39.8103C209.548 39.3823 209.326 38.9006 209.211 38.3928C208.828 36.6771 209.876 34.888 212.342 33.5714C216.619 31.2778 223.557 31.2778 227.835 33.5714C230.316 34.888 231.363 36.6679 230.981 38.3928Z" fill="#455A64"/>
<path d="M230.32 39.8104C229.673 40.655 228.824 41.3504 227.839 41.8426C223.562 44.1363 216.624 44.1363 212.347 41.8426C211.362 41.3498 210.513 40.6545 209.865 39.8104C209.548 39.3824 209.326 38.9007 209.21 38.3929L209.707 41.4802C209.925 42.7234 210.927 43.9345 212.714 44.8887C216.793 47.0631 223.398 47.0631 227.477 44.8887C229.239 43.9482 230.241 42.7509 230.479 41.5261L230.504 41.3655L230.976 38.3929C230.862 38.9013 230.64 39.3833 230.32 39.8104Z" fill="#37474F"/>
<path d="M226.559 34.26C222.991 32.3562 217.21 32.3562 213.657 34.26C211.642 35.338 210.764 36.7922 211.032 38.196C211.235 39.274 212.109 40.3245 213.657 41.1502C217.22 43.054 223.001 43.054 226.559 41.1502C228.102 40.3245 228.981 39.274 229.184 38.2006C229.452 36.7922 228.579 35.338 226.559 34.26Z" fill="#263238"/>
<path d="M211.622 39.5033C212.157 40.1843 212.848 40.7468 213.647 41.1501C217.21 43.0539 222.991 43.0539 226.549 41.1501C227.347 40.7455 228.038 40.1832 228.574 39.5033C228.544 38.361 227.72 37.2096 226.093 36.3563C222.778 34.5902 217.403 34.5902 214.093 36.3563C212.476 37.2279 211.647 38.3656 211.622 39.5033Z" fill="#FAFAFA"/>
<path d="M227.373 11.0105L221.755 15.4648L227.263 12.8729C227.322 14.5502 227.061 16.224 226.494 17.8181C224.997 18.7194 223.579 19.7271 222.251 20.832L226.484 19.1118C226.484 19.1118 226.886 21.7174 225.874 25.7543C225.611 26.814 224.425 28.8554 223.681 30.3784C223.344 31.0808 222.956 31.7613 222.519 32.4152C222.495 32.4565 222.465 32.4977 222.435 32.539C221.443 32.0528 220.4 31.5849 219.309 31.1353C218.564 29.8187 217.522 26.5479 217.086 23.8276C215.413 13.4693 223.671 7.20752 230.424 4.96429C229.027 6.79643 227.994 8.84372 227.373 11.0105Z" fill="#407BFF"/>
<path opacity="0.2" d="M227.373 11.0105L221.755 15.4648L227.263 12.8729C227.322 14.5502 227.061 16.224 226.494 17.8181C224.997 18.7194 223.579 19.7271 222.251 20.832L226.484 19.1118C226.484 19.1118 226.886 21.7174 225.874 25.7543C225.611 26.814 224.425 28.8554 223.681 30.3784C223.344 31.0808 222.956 31.7613 222.519 32.4152C222.495 32.4565 222.465 32.4977 222.435 32.539C221.443 32.0528 220.4 31.5849 219.309 31.1353C218.564 29.8187 217.522 26.5479 217.086 23.8276C215.413 13.4693 223.671 7.20752 230.424 4.96429C229.027 6.79643 227.994 8.84372 227.373 11.0105Z" fill="white"/>
<path d="M222.544 11.6163C221.47 12.8008 220.704 14.1977 220.306 15.6991C219.847 17.1785 219.564 18.6998 219.463 20.236C219.222 23.307 219.773 26.3868 221.07 29.2227C221.087 29.2592 221.088 29.3004 221.072 29.3373C221.056 29.3741 221.025 29.4038 220.986 29.4199C220.947 29.4354 220.902 29.4359 220.862 29.4213C220.822 29.4067 220.79 29.3782 220.773 29.342C219.505 26.4549 218.994 23.3313 219.284 20.2268C219.414 18.6833 219.725 17.1574 220.212 15.6762C220.645 14.1764 221.443 12.7878 222.544 11.6163Z" fill="white"/>
<path d="M200.928 16.6304C203.01 19.465 204.905 22.414 206.6 25.4611L212.753 26.8694L208.089 27.2593L210.232 31.0623L214.029 32.599L211.409 33.0578C211.409 33.0578 212.351 37.48 215.617 39.5443C217.418 40.6866 218.237 40.7738 218.946 40.4618C219.805 40.0719 220.311 38.8608 220.807 37.035C221.304 35.2093 220.941 31.4201 219.378 27.6493C218.954 26.6374 218.374 25.6872 217.656 24.828C213.542 19.8094 205.171 16.901 200.928 16.6304Z" fill="#407BFF"/>
<path opacity="0.4" d="M200.928 16.6304C203.01 19.465 204.905 22.414 206.6 25.4611L212.753 26.8694L208.089 27.2593L210.232 31.0623L214.029 32.599L211.409 33.0578C211.409 33.0578 212.351 37.48 215.617 39.5443C217.418 40.6866 218.237 40.7738 218.946 40.4618C219.805 40.0719 220.311 38.8608 220.807 37.035C221.304 35.2093 220.941 31.4201 219.378 27.6493C218.954 26.6374 218.374 25.6872 217.656 24.828C213.542 19.8094 205.171 16.901 200.928 16.6304Z" fill="white"/>
<path d="M207.28 19.0158C210.442 20.5268 213.226 22.6333 215.453 25.1996C216.558 26.5003 217.437 27.952 218.058 29.5025C218.659 31.0674 218.972 32.7139 218.986 34.3743C218.799 32.7561 218.389 31.1667 217.766 29.6447C217.151 28.1284 216.316 26.6963 215.284 25.3876C213.121 22.7969 210.407 20.6425 207.31 19.057L207.28 19.0158Z" fill="white"/>
<path d="M241.412 17.0158C240.792 17.0093 240.172 17.0368 239.556 17.0984C237.126 17.3566 234.741 17.8928 232.454 18.6948C231.606 18.9884 230.752 19.3187 229.919 19.6857C229.497 19.8737 229.085 20.0664 228.673 20.2728C226.637 21.2481 224.792 22.532 223.214 24.0712C222.483 24.8075 221.854 25.6259 221.344 26.5071C221.274 26.6218 221.205 26.7319 221.145 26.8466C220.986 27.1493 220.847 27.4429 220.713 27.7319C219.447 30.2557 218.896 33.0355 219.11 35.8103C219.185 37.7691 219.904 40.0077 220.316 40.3747C220.374 40.4227 220.437 40.4642 220.505 40.4986C221.105 40.8564 222.068 40.6454 223.86 39.7187C227.457 37.8838 228.867 33.1542 228.867 33.1542L223.869 32.3698L230.301 31.1633L232.906 27.4062L228.112 26.5988L234.628 25.6814C236.696 22.67 238.958 19.7763 241.402 17.0158H241.412Z" fill="#407BFF"/>
<path opacity="0.6" d="M241.412 17.0158C240.792 17.0093 240.172 17.0368 239.556 17.0984C237.126 17.3566 234.741 17.8928 232.454 18.6948C231.606 18.9884 230.752 19.3187 229.919 19.6857C229.497 19.8737 229.085 20.0664 228.673 20.2728C226.637 21.2481 224.792 22.532 223.214 24.0712C222.483 24.8075 221.854 25.6259 221.344 26.5071C221.274 26.6218 221.205 26.7319 221.145 26.8466C220.986 27.1493 220.847 27.4429 220.713 27.7319C219.447 30.2557 218.896 33.0355 219.11 35.8103C219.185 37.7691 219.904 40.0077 220.316 40.3747C220.374 40.4227 220.437 40.4642 220.505 40.4986C221.105 40.8564 222.068 40.6454 223.86 39.7187C227.457 37.8838 228.867 33.1542 228.867 33.1542L223.869 32.3698L230.301 31.1633L232.906 27.4062L228.112 26.5988L234.628 25.6814C236.696 22.67 238.958 19.7763 241.402 17.0158H241.412Z" fill="white"/>
<path opacity="0.1" d="M239.556 17.0983C237.126 17.3565 234.741 17.8927 232.454 18.6947C231.606 18.9883 230.752 19.3186 229.919 19.6856C229.497 19.8737 229.085 20.0663 228.673 20.2728C226.637 21.2481 224.792 22.532 223.214 24.0711C222.483 24.8074 221.854 25.6258 221.344 26.507C221.274 26.6217 221.205 26.7318 221.145 26.8465C220.986 27.1492 220.847 27.4428 220.713 27.7318C219.447 30.2556 218.896 33.0354 219.11 35.8102C219.185 37.769 219.904 40.0077 220.316 40.3747C220.374 40.4226 220.437 40.4642 220.505 40.4985C220.624 40.5671 220.758 40.6124 220.897 40.6316C220.455 37.5993 222.068 29.9063 224.515 26.741C227.06 23.4472 233.09 18.6718 241.387 17.0249C240.775 17.0132 240.164 17.0377 239.556 17.0983Z" fill="white"/>
<path d="M220.892 40.6363C220.736 38.3898 220.894 36.134 221.363 33.925C221.808 31.7001 222.627 29.5533 223.79 27.5623C225.072 25.6214 226.725 23.9117 228.668 22.5162C230.574 21.1057 232.677 19.9391 234.92 19.0481H234.945C234.945 19.0481 234.945 19.0481 234.945 19.071C232.81 20.1214 230.795 21.3678 228.931 22.7914C227.993 23.499 227.11 24.2654 226.286 25.0851C225.447 25.88 224.707 26.7585 224.078 27.7045C222.904 29.6551 222.067 31.7631 221.596 33.9525C221.075 36.1413 220.862 38.3832 220.961 40.6225C220.961 40.6225 220.961 40.6225 220.961 40.6455L220.892 40.6363Z" fill="white"/>
<path d="M11.9595 35.8467H31.6702L29.6307 43.6957C29.4719 44.6407 28.7225 45.5673 27.3628 46.2875C24.301 47.9206 19.3386 47.9206 16.2619 46.3013C14.803 45.5214 14.0487 44.5122 13.9792 43.4938L11.9595 35.8467Z" fill="#37474F"/>
<path d="M16.0681 41.9616C15.4827 41.7596 14.9167 41.5126 14.3759 41.2231C13.956 41.0037 13.559 40.7488 13.1899 40.4616L12.0833 36.2687C12.6554 36.8522 13.3257 37.3463 14.0683 37.7321C18.2218 39.9524 24.8863 40.0258 29.1888 37.9156L28.6925 36.0439L28.8463 35.8467H31.6749L29.6354 43.6911C29.4766 44.6361 28.7272 45.5627 27.3675 46.283C25.1841 47.4481 22.0379 47.7784 19.2987 47.2876C24.2065 47.6225 27.576 45.6407 28.0821 43.8104C28.2856 43.081 28.6379 41.4662 28.6379 41.4662C25.0898 43.1314 19.9339 43.3012 16.0731 41.9616" fill="#263238"/>
<path d="M10.9371 33.526C11.0478 34.0351 11.2708 34.5176 11.5921 34.9435C12.2402 35.7862 13.0892 36.4799 14.0733 36.9711C18.3509 39.2648 25.2884 39.2648 29.566 36.9711C30.5506 36.4804 31.3996 35.7866 32.0472 34.9435C32.3685 34.5176 32.5915 34.0351 32.7022 33.526C33.0843 31.8103 32.0373 30.0212 29.571 28.7047C25.2934 26.411 18.3559 26.411 14.0783 28.7047C11.6021 30.0212 10.555 31.8103 10.9371 33.526Z" fill="#455A64"/>
<path d="M11.5922 34.9435C12.2403 35.7861 13.0892 36.4799 14.0734 36.9711C18.351 39.2648 25.2884 39.2648 29.566 36.9711C30.5506 36.4804 31.3996 35.7866 32.0472 34.9435C32.3686 34.5176 32.5916 34.035 32.7023 33.526L32.206 36.6133C31.9827 37.8565 30.9803 39.0675 29.1938 40.0171C25.1197 42.1915 18.5098 42.1915 14.4307 40.0171C12.669 39.0767 11.6716 37.884 11.4532 36.6592L11.4284 36.4986L10.957 33.526C11.0616 34.0336 11.2778 34.5161 11.5922 34.9435Z" fill="#37474F"/>
<path d="M15.3686 29.3926C18.9316 27.4888 24.7128 27.4888 28.2708 29.3926C30.2905 30.4706 31.1639 31.9248 30.9009 33.3285C30.6975 34.4066 29.8191 35.4571 28.2708 36.2828C24.7078 38.1866 18.9266 38.1866 15.3686 36.2828C13.8203 35.4571 12.9469 34.4066 12.7434 33.3331C12.4656 31.9248 13.3389 30.4706 15.3686 29.3926Z" fill="#263238"/>
<path d="M30.2955 34.6316C29.7595 35.3142 29.0663 35.8782 28.2658 36.2831C24.7028 38.1868 18.9216 38.1868 15.3636 36.2831C14.5645 35.8782 13.873 35.3141 13.3389 34.6316C13.3637 33.4939 14.1924 32.3609 15.8201 31.4893C19.135 29.7185 24.5043 29.7185 27.8143 31.4893C29.4419 32.3609 30.2558 33.4939 30.2955 34.6316Z" fill="#FAFAFA"/>
<path d="M14.5399 6.13854L20.1623 10.5975L14.654 8.0056C14.5955 9.6814 14.8558 11.3537 15.4232 12.9462C16.9205 13.8485 18.3391 14.8577 19.666 15.9647L15.4381 14.2398C15.4381 14.2398 15.0312 16.8501 16.0435 20.887C16.3065 21.9421 17.4975 23.988 18.2369 25.5065C18.5733 26.2099 18.963 26.8905 19.403 27.5432C19.4266 27.5861 19.4531 27.6275 19.4824 27.6671C20.4749 27.1839 21.517 26.7175 22.6088 26.268C23.3581 24.9468 24.3952 21.6806 24.8369 18.9603C26.5092 8.60196 18.2518 2.3356 11.493 0.0923767C12.8892 1.92435 13.921 3.97177 14.5399 6.13854Z" fill="#407BFF"/>
<path opacity="0.2" d="M14.5399 6.13854L20.1623 10.5975L14.654 8.0056C14.5955 9.6814 14.8558 11.3537 15.4232 12.9462C16.9205 13.8485 18.3391 14.8577 19.666 15.9647L15.4381 14.2398C15.4381 14.2398 15.0312 16.8501 16.0435 20.887C16.3065 21.9421 17.4975 23.988 18.2369 25.5065C18.5733 26.2099 18.963 26.8905 19.403 27.5432C19.4266 27.5861 19.4531 27.6275 19.4824 27.6671C20.4749 27.1839 21.517 26.7175 22.6088 26.268C23.3581 24.9468 24.3952 21.6806 24.8369 18.9603C26.5092 8.60196 18.2518 2.3356 11.493 0.0923767C12.8892 1.92435 13.921 3.97177 14.5399 6.13854Z" fill="white"/>
<path d="M19.3731 6.74902C20.4439 7.934 21.2092 9.32855 21.6112 10.8272C22.0704 12.3064 22.3516 13.8279 22.4498 15.3641C22.683 18.4375 22.127 21.5184 20.8271 24.3554C20.815 24.3739 20.8073 24.3945 20.8045 24.416C20.8018 24.4375 20.804 24.4592 20.8111 24.4798C20.8182 24.5004 20.83 24.5193 20.8457 24.5354C20.8614 24.5514 20.8806 24.5641 20.902 24.5727C20.9235 24.5813 20.9467 24.5856 20.9701 24.5852C20.9934 24.5848 21.0164 24.5798 21.0376 24.5705C21.0587 24.5612 21.0774 24.5479 21.0924 24.5313C21.1075 24.5148 21.1185 24.4955 21.1248 24.4747C22.3948 21.5865 22.905 18.4609 22.6136 15.3549C22.4857 13.8131 22.1762 12.2887 21.6906 10.8089C21.2599 9.31106 20.4676 7.92299 19.3731 6.74902Z" fill="white"/>
<path d="M40.9894 11.7631C38.9036 14.6038 37.0061 17.5589 35.3074 20.6121L29.159 21.9883L33.8237 22.3783L31.6799 26.1812L27.8787 27.7226L30.5038 28.1813C30.5038 28.1813 29.561 32.6035 26.2957 34.6679C24.4894 35.8055 23.6706 35.8927 22.9659 35.5853C22.1024 35.1908 21.6012 33.9844 21.105 32.1586C20.6088 30.3328 20.9661 26.5436 22.5292 22.7682C22.9567 21.759 23.5364 20.8107 24.2512 19.9516C28.37 14.9421 36.7416 12.0291 40.9894 11.7631Z" fill="#407BFF"/>
<path opacity="0.4" d="M40.9894 11.7631C38.9036 14.6038 37.0061 17.5589 35.3074 20.6121L29.159 21.9883L33.8237 22.3783L31.6799 26.1812L27.8787 27.7226L30.5038 28.1813C30.5038 28.1813 29.561 32.6035 26.2957 34.6679C24.4894 35.8055 23.6706 35.8927 22.9659 35.5853C22.1024 35.1908 21.6012 33.9844 21.105 32.1586C20.6088 30.3328 20.9661 26.5436 22.5292 22.7682C22.9567 21.759 23.5364 20.8107 24.2512 19.9516C28.37 14.9421 36.7416 12.0291 40.9894 11.7631Z" fill="white"/>
<path d="M34.6377 14.1488C31.4727 15.6651 28.6867 17.7779 26.4596 20.3509C25.3538 21.6501 24.4762 23.1022 23.8593 24.6539C23.2638 26.2074 22.9486 27.8409 22.9264 29.489C23.1181 27.8715 23.5282 26.2827 24.1471 24.7594C24.759 23.2405 25.5939 21.8065 26.6283 20.4977C28.8106 17.9121 31.5411 15.7657 34.6525 14.1901C34.6525 14.1901 34.6525 14.1901 34.6525 14.1672C34.6525 14.1442 34.6426 14.1442 34.6377 14.1488Z" fill="white"/>
<path d="M0.506348 12.1485C1.12612 12.1404 1.74586 12.1665 2.36229 12.2265C4.79191 12.4864 7.17722 13.0242 9.4635 13.8275C10.3121 14.1165 11.1606 14.4468 11.9993 14.8183C12.4161 15.0018 12.833 15.1991 13.2399 15.4009C15.2762 16.3783 17.1212 17.6637 18.6986 19.2039C19.4304 19.9393 20.0605 20.756 20.5743 21.6352C20.6389 21.7499 20.7083 21.86 20.7728 21.9792C20.9316 22.2774 21.0756 22.5756 21.2095 22.8646C22.4731 25.3891 23.0245 28.1683 22.8124 30.943C22.733 32.8972 22.0134 35.1358 21.6016 35.5028C21.546 35.5521 21.4843 35.5952 21.418 35.6313C20.8125 35.9845 19.8548 35.7781 18.0584 34.8514C14.4656 32.9935 13.0513 28.2823 13.0513 28.2823L18.0286 27.4933L11.6122 26.3097L9.00696 22.5527L13.8007 21.7453L7.285 20.8278C5.21906 17.8148 2.95873 14.9195 0.516272 12.1577L0.506348 12.1485Z" fill="#407BFF"/>
<path opacity="0.6" d="M0.506348 12.1485C1.12612 12.1404 1.74586 12.1665 2.36229 12.2265C4.79191 12.4864 7.17722 13.0242 9.4635 13.8275C10.3121 14.1165 11.1606 14.4468 11.9993 14.8183C12.4161 15.0018 12.833 15.1991 13.2399 15.4009C15.2762 16.3783 17.1212 17.6637 18.6986 19.2039C19.4304 19.9393 20.0605 20.756 20.5743 21.6352C20.6389 21.7499 20.7083 21.86 20.7728 21.9792C20.9316 22.2774 21.0756 22.5756 21.2095 22.8646C22.4731 25.3891 23.0245 28.1683 22.8124 30.943C22.733 32.8972 22.0134 35.1358 21.6016 35.5028C21.546 35.5521 21.4843 35.5952 21.418 35.6313C20.8125 35.9845 19.8548 35.7781 18.0584 34.8514C14.4656 32.9935 13.0513 28.2823 13.0513 28.2823L18.0286 27.4933L11.6122 26.3097L9.00696 22.5527L13.8007 21.7453L7.285 20.8278C5.21906 17.8148 2.95873 14.9195 0.516272 12.1577L0.506348 12.1485Z" fill="white"/>
<path opacity="0.1" d="M2.3622 12.2268C4.79182 12.4868 7.17713 13.0245 9.46341 13.8278C10.312 14.1168 11.1606 14.4471 11.9992 14.8187C12.416 15.0022 12.8329 15.1994 13.2398 15.4013C15.2761 16.3786 17.1211 17.664 18.6985 19.2042C19.4303 19.9397 20.0604 20.7564 20.5743 21.6355C20.6388 21.7502 20.7082 21.8603 20.7728 21.9796C20.9315 22.2778 21.0755 22.5759 21.2094 22.865C22.473 25.3895 23.0244 28.1686 22.8123 30.9433C22.7329 32.8975 22.0134 35.1362 21.6015 35.5032C21.5459 35.5524 21.4842 35.5955 21.4179 35.6316C21.2955 35.6982 21.1609 35.7433 21.0209 35.7647C21.4625 32.7324 19.8497 25.0348 17.4033 21.8741C14.8625 18.5803 8.82822 13.8049 0.531067 12.158C1.14235 12.1495 1.75368 12.1725 2.3622 12.2268Z" fill="white"/>
</svg>
