<svg width="222" height="102" viewBox="0 0 222 102" fill="none" xmlns="http://www.w3.org/2000/svg">
<path d="M106.428 2.50009C102.513 4.59193 102.513 7.97742 106.428 10.0647C110.343 12.1519 116.69 12.1565 120.601 10.0647C124.511 7.97283 124.516 4.59193 120.601 2.50009C116.685 0.408242 110.343 0.412829 106.428 2.50009Z" fill="#E0E0E0"/>
<path d="M184.626 100.174C201.536 100.174 215.244 92.8586 215.244 83.8341C215.244 74.8096 201.536 67.4939 184.626 67.4939C167.716 67.4939 154.008 74.8096 154.008 83.8341C154.008 92.8586 167.716 100.174 184.626 100.174Z" fill="#E0E0E0"/>
<path d="M36.0609 101.601C52.9708 101.601 66.679 94.2856 66.679 85.2611C66.679 76.2367 52.9708 68.9209 36.0609 68.9209C19.151 68.9209 5.44284 76.2367 5.44284 85.2611C5.44284 94.2856 19.151 101.601 36.0609 101.601Z" fill="#E0E0E0"/>
<path d="M181.623 64.1733L118.745 97.7299L16.7868 43.3099L79.6605 9.7532L181.623 64.1733Z" fill="#E0E0E0"/>
<path d="M218.425 54.1768C223.025 56.6586 223.025 60.6817 218.425 63.1635C213.824 65.6453 206.376 65.6453 201.776 63.1635C197.176 60.6817 197.181 56.6586 201.776 54.1768C206.371 51.695 213.829 51.7134 218.425 54.1768Z" fill="#E0E0E0"/>
<path d="M3.48772 49.3103C-1.10748 51.792 -1.10748 55.8152 3.48772 58.2924C8.08291 60.7695 15.5414 60.7741 20.1366 58.2924C24.7318 55.8106 24.7368 51.792 20.1366 49.3103C15.5365 46.8285 8.08787 46.8285 3.48772 49.3103Z" fill="#E0E0E0"/>
</svg>
