<svg width="28" height="30" viewBox="0 0 28 30" fill="none" xmlns="http://www.w3.org/2000/svg">
<path d="M26.6301 12.9649C26.6381 15.9144 25.4296 18.7557 23.2507 20.9103L22.2136 21.8278C19.8153 23.7381 16.7252 24.7407 13.5616 24.6351C10.3979 24.5294 7.39408 23.3233 5.15119 21.2581C2.9083 19.1928 1.59179 16.4207 1.46512 13.4966C1.33844 10.5725 2.41093 7.71197 4.46798 5.48752L5.46047 4.52417C7.24397 2.96901 9.48101 1.93061 11.8955 1.53713C14.31 1.14364 16.7963 1.41229 19.0476 2.30991C21.2988 3.20753 23.2165 4.69485 24.564 6.5883C25.9114 8.48176 26.6297 10.6985 26.6301 12.9649Z" fill="white"/>
<path d="M14.0306 0.386795C10.6146 0.398633 7.32783 1.59523 4.82045 3.73988C2.31307 5.88452 0.767727 8.821 0.490133 11.9684C0.212539 15.1158 1.2229 18.2449 3.32136 20.7367C5.41983 23.2285 8.45354 24.9015 11.8224 25.4247L13.3607 29.0946C13.4171 29.2351 13.5187 29.3562 13.6517 29.4418C13.7848 29.5273 13.943 29.5732 14.1051 29.5732C14.2671 29.5732 14.4253 29.5273 14.5584 29.4418C14.6915 29.3562 14.793 29.2351 14.8494 29.0946L16.3729 25.4247C19.7397 24.8878 22.7658 23.2022 24.8525 20.7014C26.9391 18.2006 27.9343 15.0668 27.6411 11.9201C27.3478 8.77349 25.7876 5.84322 23.269 3.70915C20.7504 1.57508 17.4571 0.392698 14.0406 0.39597L14.0306 0.386795ZM26.6302 12.9654C26.6381 15.9148 25.4296 18.7561 23.2508 20.9107L22.2136 21.8282C19.8154 23.7385 16.7253 24.7412 13.5616 24.6355C10.398 24.5299 7.39415 23.3238 5.15126 21.2585C2.90837 19.1932 1.59186 16.4212 1.46518 13.497C1.33851 10.5729 2.411 7.71241 4.46805 5.48796L5.46053 4.52461C7.24404 2.96945 9.48108 1.93105 11.8956 1.53757C14.3101 1.14408 16.7964 1.41273 19.0476 2.31035C21.2989 3.20797 23.2166 4.69529 24.564 6.58875C25.9115 8.4822 26.6298 10.6989 26.6302 12.9654Z" fill="#455A64"/>
<path opacity="0.7" d="M26.6301 12.9649C26.6381 15.9144 25.4296 18.7557 23.2507 20.9103L22.2136 21.8278C19.8153 23.7381 16.7252 24.7407 13.5616 24.6351C10.3979 24.5294 7.39408 23.3233 5.15119 21.2581C2.9083 19.1928 1.59179 16.4207 1.46512 13.4966C1.33844 10.5725 2.41093 7.71197 4.46798 5.48752L5.46047 4.52417C7.24397 2.96901 9.48101 1.93061 11.8955 1.53713C14.31 1.14364 16.7963 1.41229 19.0476 2.30991C21.2988 3.20753 23.2165 4.69485 24.564 6.5883C25.9114 8.48176 26.6297 10.6985 26.6301 12.9649Z" fill="white"/>
<path d="M12.2888 10.8136C12.4894 10.7837 12.6729 10.6915 12.8091 10.5523C12.9453 10.413 13.0261 10.235 13.0382 10.0475C13.0084 8.59793 12.9488 5.94643 12.8992 4.54269C12.8945 4.49395 12.8707 4.44846 12.8323 4.4147C12.794 4.38095 12.7437 4.36122 12.6908 4.3592C12.6643 4.35978 12.6382 4.36526 12.614 4.37532C12.5898 4.38539 12.5681 4.39982 12.5501 4.41778C12.532 4.43574 12.518 4.45686 12.509 4.47989C12.4999 4.50292 12.4959 4.52739 12.4973 4.55187C12.5469 5.97395 12.6064 8.62087 12.6362 10.0567C12.6362 10.231 12.4576 10.3916 12.1946 10.4512C11.9906 10.4776 11.8016 10.565 11.6564 10.7C11.5113 10.835 11.4179 11.0103 11.3906 11.199C11.3906 11.7036 11.3906 12.6302 11.5097 14.167C11.6388 16.0845 11.7331 17.2818 11.9266 18.9195C12.0506 19.9838 12.135 20.9655 11.7777 21.3325C11.7138 21.3928 11.636 21.439 11.5501 21.4676C11.4641 21.4962 11.3723 21.5065 11.2815 21.4976C11.1902 21.5066 11.0979 21.496 11.0118 21.4665C10.9258 21.4371 10.8482 21.3896 10.7852 21.3279C10.4279 20.9655 10.5123 19.9838 10.6364 18.9195C10.8299 17.2818 10.9242 16.0845 11.0532 14.167C11.1574 12.6302 11.1723 11.7036 11.1723 11.199C11.1458 11.01 11.0527 10.8343 10.9074 10.6992C10.7621 10.564 10.5727 10.4769 10.3684 10.4512C10.1054 10.3916 9.92177 10.231 9.92673 10.0567C9.96147 8.60252 10.021 5.9556 10.0706 4.55187C10.0707 4.50232 10.0501 4.45465 10.0131 4.41877C9.97618 4.38289 9.92569 4.36156 9.87215 4.3592C9.81925 4.36122 9.76894 4.38095 9.7306 4.4147C9.69226 4.44846 9.6685 4.49395 9.66373 4.54269C9.6141 5.96478 9.55455 8.61628 9.52478 10.0475C9.53685 10.235 9.61766 10.413 9.75388 10.5523C9.8901 10.6915 10.0736 10.7837 10.2741 10.8136C10.552 10.8733 10.7703 11.043 10.7703 11.199C10.7703 11.7036 10.7703 12.6211 10.6562 14.1441C10.5272 16.0937 10.4329 17.2406 10.2394 18.8782C10.0955 20.1168 10.021 21.0985 10.4875 21.5802C10.698 21.7661 10.9779 21.8699 11.2691 21.8699C11.5602 21.8699 11.8401 21.7661 12.0506 21.5802C12.5171 21.1215 12.4427 20.1168 12.2988 18.8782C12.1052 17.2406 12.0159 16.0937 11.8819 14.1441C11.7827 12.6211 11.7628 11.7036 11.7678 11.199C11.7976 11.043 12.0159 10.8733 12.2888 10.8136ZM10.8001 8.92822C10.8247 8.92823 10.8489 8.9237 10.8716 8.91488C10.8942 8.90606 10.9146 8.89315 10.9317 8.8769C10.9489 8.86065 10.9623 8.84139 10.9712 8.82027C10.9801 8.79914 10.9844 8.77658 10.9837 8.75391V4.52893C10.9844 4.50647 10.9801 4.48411 10.9711 4.46323C10.9622 4.44235 10.9487 4.42339 10.9315 4.4075C10.9143 4.39161 10.8938 4.37913 10.8712 4.37083C10.8486 4.36252 10.8244 4.35856 10.8001 4.3592C10.7756 4.35858 10.7512 4.36252 10.7283 4.37077C10.7055 4.37903 10.6846 4.39143 10.6671 4.40726C10.6495 4.42308 10.6355 4.442 10.626 4.4629C10.6164 4.4838 10.6115 4.50625 10.6115 4.52893V8.75391C10.6113 8.77886 10.6169 8.80357 10.6279 8.82637C10.6389 8.84917 10.655 8.86952 10.6752 8.88604C10.6955 8.90257 10.7193 8.91489 10.7451 8.92217C10.771 8.92944 10.7982 8.93151 10.8249 8.92822H10.8001ZM11.6884 8.92822C11.7384 8.92822 11.7864 8.90986 11.8217 8.87717C11.8571 8.84448 11.877 8.80014 11.877 8.75391V4.52893C11.8697 4.48813 11.847 4.45103 11.813 4.42426C11.7789 4.39749 11.7356 4.38279 11.6909 4.38279C11.6461 4.38279 11.6029 4.39749 11.5688 4.42426C11.5347 4.45103 11.512 4.48813 11.5048 4.52893V8.75391C11.5046 8.77843 11.5101 8.8027 11.5208 8.82514C11.5315 8.84758 11.5472 8.86768 11.5668 8.88414C11.5865 8.90059 11.6097 8.91302 11.6349 8.92062C11.6602 8.92821 11.6868 8.93081 11.7132 8.92822H11.6884Z" fill="#407BFF"/>
<path d="M16.5017 21.855C16.3589 21.8616 16.2163 21.8397 16.0835 21.7906C15.9508 21.7415 15.831 21.6664 15.7326 21.5706C15.2711 21.1119 15.3455 20.1118 15.4894 18.8824C15.6829 17.2401 15.7723 16.0933 15.9062 14.1437C16.0055 12.6161 16.0253 11.6986 16.0204 11.1986C16.0204 10.8545 15.7921 10.7031 15.3505 10.4416C15.2065 10.3545 15.0527 10.2627 14.8989 10.1526C14.5267 9.89116 13.7178 9.04708 14.2835 6.88643C14.8492 4.72577 15.9162 4.38171 16.5017 4.38171C17.0873 4.38171 18.1542 4.70742 18.7199 6.88643C19.2857 9.06543 18.4768 9.89116 18.1046 10.1526C17.9595 10.2547 17.8088 10.3496 17.653 10.4371C17.2114 10.7031 16.9831 10.8545 16.9831 11.1986C16.9831 11.7032 16.9831 12.6206 17.1022 14.1437C17.2312 16.1025 17.3205 17.2493 17.5141 18.8824C17.658 20.1118 17.7324 21.0935 17.2709 21.5706C17.1724 21.6664 17.0527 21.7415 16.92 21.7906C16.7872 21.8397 16.6445 21.8616 16.5017 21.855ZM16.5017 4.72577C15.6829 4.72577 15.013 5.51939 14.6458 6.969C14.1495 8.9324 14.8095 9.66179 15.142 9.88198C15.2859 9.9829 15.4299 10.0701 15.5638 10.1481C16.0005 10.4049 16.4074 10.6481 16.4074 11.1986C16.4074 11.749 16.4074 12.6298 16.2884 14.1666C16.1593 16.1208 16.07 17.2722 15.8765 18.9191C15.7474 19.9834 15.668 20.9697 16.0253 21.3413C16.1623 21.4532 16.3388 21.5149 16.5216 21.5149C16.7044 21.5149 16.8809 21.4532 17.0178 21.3413C17.3801 20.9697 17.2957 19.965 17.1717 18.9191C16.9781 17.2814 16.8838 16.13 16.7548 14.1666C16.6506 12.6298 16.6308 11.7032 16.6357 11.1986C16.6407 10.6939 17.0476 10.4049 17.4793 10.1481C17.6133 10.0701 17.7572 9.9829 17.9061 9.88198C18.2187 9.66179 18.8986 8.9324 18.4023 6.969C17.9805 5.51939 17.3205 4.72577 16.5017 4.72577Z" fill="#407BFF"/>
</svg>
