<svg width="632" height="465" viewBox="0 0 632 465" fill="none" xmlns="http://www.w3.org/2000/svg">
<path d="M632 408.518H0V408.83H632V408.518Z" fill="#F0F0F0"/>
<path d="M448.72 424.236H435.473V424.548H448.72V424.236Z" fill="#F0F0F0"/>
<path d="M94.8758 416.053H82.0715V416.365H94.8758V416.053Z" fill="#F0F0F0"/>
<path d="M232.715 424.086H193.961V424.398H232.715V424.086Z" fill="#F0F0F0"/>
<path d="M295.776 416.964H270.901V417.276H295.776V416.964Z" fill="#F0F0F0"/>
<path d="M543.04 418.947H476.756V419.259H543.04V418.947Z" fill="#F0F0F0"/>
<path d="M155.421 416.053H100.981V416.365H155.421V416.053Z" fill="#F0F0F0"/>
<path d="M571.227 419.097H550.409V419.409H571.227V419.097Z" fill="#F0F0F0"/>
<path d="M299.568 352.882H55.5021C53.5901 352.879 51.7575 352.127 50.4067 350.791C49.0559 349.456 48.2973 347.646 48.2973 345.759V7.16456C48.3139 5.28843 49.0799 3.49454 50.4289 2.17254C51.7779 0.850549 53.601 0.107218 55.5021 0.104004H299.568C301.482 0.104004 303.318 0.854453 304.671 2.19026C306.025 3.52607 306.785 5.33781 306.785 7.22693V345.759C306.785 347.648 306.025 349.46 304.671 350.796C303.318 352.132 301.482 352.882 299.568 352.882ZM55.5021 0.353494C53.6739 0.356799 51.9217 1.07585 50.6302 2.35281C49.3387 3.62977 48.6133 5.36031 48.6133 7.16456V345.759C48.6133 347.563 49.3387 349.294 50.6302 350.571C51.9217 351.848 53.6739 352.567 55.5021 352.57H299.568C301.397 352.567 303.151 351.848 304.444 350.572C305.738 349.295 306.466 347.565 306.469 345.759V7.16456C306.466 5.35916 305.738 3.62866 304.444 2.35205C303.151 1.07544 301.397 0.356792 299.568 0.353494H55.5021Z" fill="#F0F0F0"/>
<path d="M572.984 352.882H328.905C326.992 352.879 325.158 352.127 323.806 350.792C322.453 349.457 321.691 347.647 321.688 345.759V7.16456C321.708 5.28729 322.477 3.49341 323.828 2.17176C325.179 0.850113 327.003 0.107183 328.905 0.104004H572.984C574.883 0.110496 576.702 0.855278 578.049 2.17692C579.395 3.49857 580.159 5.29058 580.176 7.16456V345.759C580.176 347.644 579.419 349.452 578.071 350.787C576.723 352.122 574.894 352.875 572.984 352.882ZM328.905 0.353494C327.076 0.356792 325.323 1.07544 324.029 2.35205C322.735 3.62866 322.007 5.35916 322.004 7.16456V345.759C322.007 347.565 322.735 349.295 324.029 350.572C325.323 351.848 327.076 352.567 328.905 352.57H572.984C574.813 352.567 576.567 351.848 577.86 350.572C579.154 349.295 579.882 347.565 579.885 345.759V7.16456C579.882 5.35916 579.154 3.62866 577.86 2.35205C576.567 1.07544 574.813 0.356792 572.984 0.353494H328.905Z" fill="#F0F0F0"/>
<path d="M550.927 333.634H516.167V408.518H550.927V333.634Z" fill="#E6E6E6"/>
<path d="M544.329 408.518H550.927V389.981H537.402L544.329 408.518Z" fill="#F5F5F5"/>
<path d="M352.58 333.634H317.82V408.518H352.58V333.634Z" fill="#EBEBEB"/>
<path d="M550.927 333.634H346.816V397.142H550.927V333.634Z" fill="#F5F5F5"/>
<path d="M353.604 339.697V373.964H414.112V339.697H353.604Z" fill="#E6E6E6"/>
<path d="M389.843 344.886H377.936C375.362 344.885 372.816 344.367 370.451 343.363C368.087 342.359 365.955 340.891 364.184 339.048H403.595C401.824 340.891 399.692 342.359 397.328 343.363C394.963 344.367 392.417 344.885 389.843 344.886Z" fill="#F0F0F0"/>
<path d="M418.611 339.697V373.964H479.119V339.697H418.611Z" fill="#E6E6E6"/>
<path d="M455.47 344.886H443.5C440.928 344.883 438.384 344.364 436.022 343.361C433.66 342.357 431.529 340.89 429.76 339.048H469.222C467.451 340.891 465.319 342.359 462.955 343.363C460.59 344.367 458.044 344.885 455.47 344.886Z" fill="#F0F0F0"/>
<path d="M483.632 339.709V373.976H544.139V339.709H483.632Z" fill="#E6E6E6"/>
<path d="M520.49 344.886H508.52C505.946 344.885 503.4 344.367 501.035 343.363C498.671 342.359 496.538 340.891 494.768 339.048H534.23C532.46 340.89 530.33 342.357 527.968 343.361C525.606 344.364 523.062 344.883 520.49 344.886Z" fill="#F0F0F0"/>
<path d="M353.414 408.518H346.816V389.981H360.341L353.414 408.518Z" fill="#F5F5F5"/>
<path d="M389.83 23.7931H79.4675V189.03H389.83V23.7931Z" fill="#E6E6E6"/>
<path d="M396.239 23.7931H82.4634V189.03H396.239V23.7931Z" fill="#EBEBEB"/>
<path d="M389.83 189.03H79.4675V200.806H389.83V189.03Z" fill="#E6E6E6"/>
<path d="M406.932 189.03H93.1569V200.806H406.932V189.03Z" fill="#E6E6E6"/>
<path d="M387.252 180.16V32.6622L91.4503 32.6622V180.16L387.252 180.16Z" fill="#FAFAFA"/>
<path d="M108.641 180.16L161.4 32.6622H186.301L133.542 180.16H108.641Z" fill="white"/>
<path d="M95.609 130.163C95.4279 130.163 95.2543 130.092 95.1263 129.966C94.9983 129.839 94.9264 129.668 94.9264 129.489V38.4256C94.9264 38.2457 94.9979 38.0731 95.1255 37.9448C95.2532 37.8165 95.4268 37.7427 95.609 37.7395C95.7933 37.7395 95.9702 37.8118 96.1005 37.9404C96.2309 38.0691 96.3042 38.2436 96.3042 38.4256V129.489C96.3008 129.669 96.2261 129.84 96.0961 129.966C95.9661 130.092 95.7912 130.163 95.609 130.163Z" fill="#E6E6E6"/>
<path d="M138.901 180.16L191.648 32.6622H201.355L148.608 180.16H138.901Z" fill="white"/>
<path d="M387.252 180.16V32.6622H386.114V180.16H387.252Z" fill="#E6E6E6"/>
<path d="M398.362 44.0141H88.0122L87.178 36.1053H397.541L398.362 44.0141Z" fill="#EBEBEB"/>
<path d="M398.362 49.7898H88.0122L87.178 41.8934H397.541L398.362 49.7898Z" fill="#EBEBEB"/>
<path d="M398.362 56.7381H88.0122L87.178 48.8293H397.541L398.362 56.7381Z" fill="#EBEBEB"/>
<path d="M398.362 64.4598H88.0122L87.178 56.551H397.541L398.362 64.4598Z" fill="#EBEBEB"/>
<path d="M398.362 73.7032H88.0122L87.178 65.8069H397.541L398.362 73.7032Z" fill="#E6E6E6"/>
<path d="M398.362 84.1195H88.0122L87.178 76.2232H397.541L398.362 84.1195Z" fill="#E6E6E6"/>
<path d="M475.883 93.6626H432.591V142.887H475.883V93.6626Z" fill="#EBEBEB"/>
<path d="M484.643 93.6626H437.723V142.887H484.643V93.6626Z" fill="#F5F5F5"/>
<path d="M480.712 139.007V97.5421H441.654V139.007H480.712Z" fill="white"/>
<path d="M471.244 125.56V111.002C471.244 109.121 469.7 107.597 467.794 107.597H454.572C452.667 107.597 451.122 109.121 451.122 111.002V125.56C451.122 127.441 452.667 128.965 454.572 128.965H467.794C469.7 128.965 471.244 127.441 471.244 125.56Z" fill="#FAFAFA"/>
<path d="M541.219 72.0194H497.927V121.244H541.219V72.0194Z" fill="#EBEBEB"/>
<path d="M549.979 72.0194H503.059V121.244H549.979V72.0194Z" fill="#F5F5F5"/>
<path d="M546.035 117.364V75.8988H506.978V117.364H546.035Z" fill="white"/>
<path d="M536.568 103.904V89.3589C536.568 87.4781 535.023 85.9534 533.117 85.9534H519.896C517.99 85.9534 516.445 87.4781 516.445 89.3589V103.904C516.445 105.785 517.99 107.31 519.896 107.31H533.117C535.023 107.31 536.568 105.785 536.568 103.904Z" fill="#FAFAFA"/>
<path d="M329.057 262.904H258.829V408.518H329.057V262.904Z" fill="#E6E6E6"/>
<path d="M322.004 408.518H329.057V388.684H314.584L322.004 408.518Z" fill="#E6E6E6"/>
<path d="M156.306 262.904H86.0782V408.518H156.306V262.904Z" fill="#E6E6E6"/>
<path d="M329.057 262.904H150.138V396.355H329.057V262.904Z" fill="#F5F5F5"/>
<path d="M322.093 268.817H154.132V305.417H322.093V268.817Z" fill="#E6E6E6"/>
<path d="M247.529 280.193H231.666C224.777 280.193 218.192 275.677 213.452 267.719H265.756C261.016 275.677 254.431 280.193 247.529 280.193Z" fill="#F5F5F5"/>
<path d="M157.204 408.518H150.138V388.684H164.611L157.204 408.518Z" fill="#E6E6E6"/>
<path d="M322.093 311.33H154.132V347.93H322.093V311.33Z" fill="#E6E6E6"/>
<path d="M247.529 322.694H231.666C224.777 322.694 218.192 318.178 213.452 310.219H265.756C261.016 318.203 254.431 322.694 247.529 322.694Z" fill="#F5F5F5"/>
<path d="M322.093 353.843H154.132V390.443H322.093V353.843Z" fill="#E6E6E6"/>
<path d="M247.529 365.207H231.666C224.777 365.207 218.192 360.691 213.452 352.732H265.756C261.016 360.691 254.431 365.207 247.529 365.207Z" fill="#F5F5F5"/>
<path d="M483.518 320.199H485.616C485.616 315.945 485.616 305.13 485.844 280.356C486.21 235.447 486.943 232.716 486.943 232.716L481.95 253.448C478.778 276.401 482.848 299.491 483.518 320.199Z" fill="#E6E6E6"/>
<path d="M474.227 245.764C463.243 235.048 441.793 233.614 419.875 232.715C411.28 232.366 443.891 248.67 460.235 260.883C472.875 270.363 480.674 272.596 484.883 282.825C485.376 269.553 483.695 254.995 474.227 245.764Z" fill="#E6E6E6"/>
<path d="M486.299 222.462C493.744 208.503 512.476 195.354 533.496 190.377C541.738 188.419 514.372 216.149 503.969 234.038C495.892 247.934 485.174 264.251 483.518 275.977C481.002 252.737 478.854 236.42 486.299 222.462Z" fill="#E6E6E6"/>
<path d="M485.376 333.634C481.852 333.63 478.463 332.298 475.902 329.909C473.341 327.521 471.802 324.257 471.598 320.785L470.334 308.473H500.329L499.065 320.785C498.86 324.241 497.332 327.491 494.79 329.876C492.249 332.262 488.884 333.605 485.376 333.634Z" fill="#F0F0F0"/>
<path d="M502.288 313.213H468.401L467.427 299.491H503.262L502.288 313.213Z" fill="#F5F5F5"/>
<path d="M316 464.853C451.352 464.853 561.077 458.531 561.077 450.732C561.077 442.933 451.352 436.611 316 436.611C180.648 436.611 70.923 442.933 70.923 450.732C70.923 458.531 180.648 464.853 316 464.853Z" fill="#F5F5F5"/>
<path d="M310.261 109.642C311.98 130.849 336.805 158.393 344.743 166.725C345.055 167.056 345.433 167.319 345.853 167.499C346.272 167.679 346.725 167.772 347.183 167.772C347.64 167.772 348.093 167.679 348.513 167.499C348.932 167.319 349.31 167.056 349.622 166.725C357.586 158.393 382.385 130.836 384.104 109.642C384.163 108.992 384.028 108.338 383.716 107.762C383.404 107.186 382.928 106.712 382.347 106.399L348.775 88.523C348.287 88.2588 347.74 88.1202 347.183 88.1202C346.626 88.1202 346.078 88.2588 345.59 88.523L312.018 106.399C311.439 106.714 310.966 107.189 310.654 107.764C310.342 108.34 310.206 108.992 310.261 109.642Z" fill="#407BFF"/>
<path opacity="0.3" d="M344.693 158.692C334.581 147.465 319.918 128.591 316.417 113.572C316.258 112.874 316.329 112.144 316.62 111.489C316.911 110.833 317.407 110.287 318.035 109.929L345.514 94.3362C346.024 94.0485 346.602 93.8972 347.189 93.8972C347.777 93.8972 348.354 94.0485 348.864 94.3362L376.343 109.879C376.988 110.244 377.493 110.808 377.781 111.485C378.069 112.161 378.123 112.912 377.936 113.622C374.447 128.666 359.835 147.465 349.673 158.742C349.357 159.087 348.971 159.362 348.54 159.548C348.109 159.735 347.642 159.829 347.171 159.824C346.701 159.82 346.236 159.716 345.809 159.521C345.381 159.326 345.001 159.043 344.693 158.692Z" fill="#407BFF"/>
<path opacity="0.3" d="M344.693 158.692C334.581 147.465 319.918 128.591 316.417 113.572C316.258 112.874 316.329 112.144 316.62 111.489C316.911 110.833 317.407 110.287 318.035 109.929L345.514 94.3362C346.024 94.0485 346.602 93.8972 347.189 93.8972C347.777 93.8972 348.354 94.0485 348.864 94.3362L376.343 109.879C376.988 110.244 377.493 110.808 377.781 111.485C378.069 112.161 378.123 112.912 377.936 113.622C374.447 128.666 359.835 147.465 349.673 158.742C349.357 159.087 348.971 159.362 348.54 159.548C348.109 159.735 347.642 159.829 347.171 159.824C346.701 159.82 346.236 159.716 345.809 159.521C345.381 159.326 345.001 159.043 344.693 158.692Z" fill="white"/>
<path d="M343.441 135.926C343.192 135.927 342.946 135.878 342.716 135.784C342.486 135.69 342.277 135.552 342.102 135.377L332.735 126.096C332.4 125.742 332.218 125.272 332.227 124.788C332.235 124.303 332.434 123.84 332.782 123.498C333.129 123.155 333.598 122.958 334.089 122.95C334.58 122.941 335.056 123.121 335.415 123.452L343.441 131.361L362.401 112.711C362.759 112.364 363.24 112.169 363.741 112.169C364.243 112.169 364.724 112.364 365.081 112.711C365.258 112.884 365.399 113.09 365.495 113.317C365.591 113.544 365.641 113.788 365.641 114.034C365.641 114.28 365.591 114.523 365.495 114.75C365.399 114.977 365.258 115.183 365.081 115.356L344.857 135.315C344.676 135.507 344.457 135.661 344.214 135.766C343.97 135.871 343.707 135.926 343.441 135.926Z" fill="white"/>
<path d="M423.023 186.385H247.744C239.367 186.385 232.576 193.087 232.576 201.354V428.265C232.576 436.533 239.367 443.235 247.744 443.235H423.023C431.4 443.235 438.191 436.533 438.191 428.265V201.354C438.191 193.087 431.4 186.385 423.023 186.385Z" fill="#263238"/>
<path d="M434.829 186.385H259.55C251.173 186.385 244.382 193.087 244.382 201.355V428.265C244.382 436.533 251.173 443.235 259.55 443.235H434.829C443.206 443.235 449.997 436.533 449.997 428.265V201.355C449.997 193.087 443.206 186.385 434.829 186.385Z" fill="#407BFF"/>
<path d="M280.305 443.247H263.241C262.717 443.247 262.293 443.666 262.293 444.183V446.89C262.293 447.406 262.717 447.825 263.241 447.825H280.305C280.828 447.825 281.253 447.406 281.253 446.89V444.183C281.253 443.666 280.828 443.247 280.305 443.247Z" fill="#263238"/>
<path d="M431.125 443.247H414.061C413.538 443.247 413.113 443.666 413.113 444.183V446.89C413.113 447.406 413.538 447.825 414.061 447.825H431.125C431.649 447.825 432.073 447.406 432.073 446.89V444.183C432.073 443.666 431.649 443.247 431.125 443.247Z" fill="#263238"/>
<path opacity="0.2" d="M434.829 186.385H259.55C251.173 186.385 244.382 193.087 244.382 201.355V428.265C244.382 436.533 251.173 443.235 259.55 443.235H434.829C443.206 443.235 449.997 436.533 449.997 428.265V201.355C449.997 193.087 443.206 186.385 434.829 186.385Z" fill="black"/>
<g style="mix-blend-mode:color-dodge" opacity="0.4">
<path d="M414.175 413.62H280.191C278.657 413.617 277.186 413.014 276.101 411.943C275.016 410.873 274.405 409.421 274.402 407.907V221.738C274.402 220.222 275.011 218.767 276.097 217.694C277.182 216.62 278.654 216.016 280.191 216.012H414.175C415.711 216.016 417.184 216.62 418.269 217.694C419.354 218.767 419.964 220.222 419.964 221.738V407.907C419.961 409.421 419.35 410.873 418.265 411.943C417.18 413.014 415.709 413.617 414.175 413.62ZM280.191 216.636C278.822 216.639 277.51 217.178 276.543 218.135C275.577 219.091 275.034 220.387 275.034 221.738V407.907C275.034 408.575 275.167 409.237 275.426 409.855C275.685 410.472 276.065 411.033 276.544 411.506C277.023 411.978 277.592 412.353 278.217 412.609C278.843 412.865 279.514 412.997 280.191 412.997H414.175C415.543 412.997 416.854 412.46 417.821 411.506C418.789 410.551 419.332 409.257 419.332 407.907V221.738C419.332 220.387 418.789 219.091 417.822 218.135C416.855 217.178 415.544 216.639 414.175 216.636H280.191Z" fill="#E6E6E6"/>
</g>
<path d="M417.133 407.907V221.725C417.133 220.12 415.814 218.819 414.188 218.819H280.191C278.564 218.819 277.246 220.12 277.246 221.725V407.907C277.246 409.512 278.564 410.813 280.191 410.813H414.188C415.814 410.813 417.133 409.512 417.133 407.907Z" fill="#407BFF"/>
<path opacity="0.1" d="M417.133 407.907V221.725C417.133 220.12 415.814 218.819 414.188 218.819H280.191C278.564 218.819 277.246 220.12 277.246 221.725V407.907C277.246 409.512 278.564 410.813 280.191 410.813H414.188C415.814 410.813 417.133 409.512 417.133 407.907Z" fill="white"/>
<path d="M454.408 239.339H453.144V249.868H454.408V239.339Z" fill="#407BFF"/>
<path d="M454.408 201.355H453.144V228.25H454.408V201.355Z" fill="#407BFF"/>
<path opacity="0.1" d="M347.183 360.99C370.988 360.99 390.285 341.946 390.285 318.452C390.285 294.959 370.988 275.914 347.183 275.914C323.378 275.914 304.081 294.959 304.081 318.452C304.081 341.946 323.378 360.99 347.183 360.99Z" fill="black"/>
<path d="M347.183 255.282C352.998 255.282 357.712 250.629 357.712 244.891C357.712 239.152 352.998 234.499 347.183 234.499C341.368 234.499 336.654 239.152 336.654 244.891C336.654 250.629 341.368 255.282 347.183 255.282Z" fill="#407BFF"/>
<path opacity="0.6" d="M347.12 255.257C352.935 255.257 357.649 250.605 357.649 244.866C357.649 239.127 352.935 234.474 347.12 234.474C341.305 234.474 336.591 239.127 336.591 244.866C336.591 250.605 341.305 255.257 347.12 255.257Z" fill="white"/>
<path d="M347.183 253.099C345.538 253.099 343.93 252.617 342.562 251.715C341.194 250.813 340.128 249.531 339.499 248.032C338.869 246.532 338.705 244.881 339.026 243.289C339.347 241.697 340.139 240.234 341.302 239.086C342.465 237.938 343.947 237.157 345.56 236.84C347.174 236.523 348.846 236.686 350.366 237.307C351.886 237.928 353.185 238.98 354.098 240.33C355.012 241.68 355.5 243.267 355.5 244.89C355.497 247.066 354.619 249.152 353.06 250.691C351.501 252.23 349.388 253.095 347.183 253.099ZM347.183 237.306C345.663 237.306 344.177 237.751 342.913 238.584C341.65 239.418 340.665 240.602 340.083 241.988C339.501 243.374 339.349 244.899 339.646 246.37C339.942 247.841 340.674 249.193 341.749 250.253C342.824 251.314 344.193 252.037 345.684 252.329C347.174 252.622 348.72 252.472 350.124 251.898C351.528 251.324 352.728 250.351 353.573 249.104C354.417 247.857 354.868 246.391 354.868 244.89C354.865 242.88 354.054 240.953 352.613 239.531C351.173 238.109 349.22 237.309 347.183 237.306Z" fill="#407BFF"/>
<path d="M277.069 243.269H272.379C271.346 243.269 270.509 244.095 270.509 245.115V270.438C270.509 271.458 271.346 272.284 272.379 272.284H277.069C278.102 272.284 278.94 271.458 278.94 270.438V245.115C278.94 244.095 278.102 243.269 277.069 243.269Z" fill="#407BFF"/>
<path opacity="0.6" d="M277.069 243.269H272.379C271.346 243.269 270.509 244.095 270.509 245.115V270.438C270.509 271.458 271.346 272.284 272.379 272.284H277.069C278.102 272.284 278.94 271.458 278.94 270.438V245.115C278.94 244.095 278.102 243.269 277.069 243.269Z" fill="white"/>
<path d="M277.069 357.348H272.379C271.346 357.348 270.509 358.174 270.509 359.194V384.517C270.509 385.537 271.346 386.363 272.379 386.363H277.069C278.102 386.363 278.94 385.537 278.94 384.517V359.194C278.94 358.174 278.102 357.348 277.069 357.348Z" fill="#407BFF"/>
<path opacity="0.6" d="M277.069 357.348H272.379C271.346 357.348 270.509 358.174 270.509 359.194V384.517C270.509 385.537 271.346 386.363 272.379 386.363H277.069C278.102 386.363 278.94 385.537 278.94 384.517V359.194C278.94 358.174 278.102 357.348 277.069 357.348Z" fill="white"/>
<path d="M347.183 357.36C370.988 357.36 390.285 338.315 390.285 314.822C390.285 291.329 370.988 272.284 347.183 272.284C323.378 272.284 304.081 291.329 304.081 314.822C304.081 338.315 323.378 357.36 347.183 357.36Z" fill="#407BFF"/>
<path opacity="0.6" d="M347.183 357.36C370.988 357.36 390.285 338.315 390.285 314.822C390.285 291.329 370.988 272.284 347.183 272.284C323.378 272.284 304.081 291.329 304.081 314.822C304.081 338.315 323.378 357.36 347.183 357.36Z" fill="white"/>
<path d="M325.858 291.998L324.071 293.762L368.527 337.637L370.315 335.872L325.858 291.998Z" fill="#407BFF"/>
<path d="M368.527 291.998L324.071 335.873L325.858 337.637L370.315 293.762L368.527 291.998Z" fill="#407BFF"/>
<path opacity="0.2" d="M368.382 291.856L323.925 335.73L325.712 337.494L370.169 293.62L368.382 291.856Z" fill="black"/>
<path opacity="0.2" d="M325.721 291.864L323.934 293.628L368.39 337.503L370.178 335.739L325.721 291.864Z" fill="black"/>
<path d="M347.057 346.969C340.584 346.972 334.255 345.08 328.872 341.532C323.489 337.985 319.293 332.942 316.814 327.041C314.335 321.14 313.685 314.645 314.946 308.38C316.208 302.114 319.323 296.358 323.9 291.84C328.476 287.322 334.307 284.245 340.655 282.998C347.003 281.751 353.584 282.39 359.564 284.834C365.545 287.278 370.657 291.417 374.253 296.729C377.849 302.04 379.769 308.285 379.769 314.673C379.762 323.234 376.314 331.443 370.181 337.498C364.048 343.553 355.732 346.959 347.057 346.969ZM347.057 284.871C341.084 284.869 335.244 286.615 330.277 289.888C325.309 293.161 321.437 297.814 319.149 303.26C316.862 308.705 316.262 314.697 317.426 320.479C318.589 326.261 321.464 331.572 325.687 335.741C329.91 339.91 335.29 342.75 341.148 343.901C347.006 345.052 353.078 344.462 358.597 342.207C364.115 339.952 368.832 336.132 372.151 331.231C375.47 326.33 377.241 320.567 377.241 314.673C377.234 306.773 374.052 299.199 368.394 293.612C362.735 288.025 355.061 284.881 347.057 284.871Z" fill="#407BFF"/>
<path d="M356.727 324.228C362.073 318.952 362.073 310.398 356.727 305.122C351.381 299.846 342.713 299.846 337.367 305.122C332.021 310.398 332.021 318.952 337.367 324.228C342.713 329.504 351.381 329.504 356.727 324.228Z" fill="#407BFF"/>
<path opacity="0.2" d="M347.057 346.969C340.584 346.972 334.255 345.08 328.872 341.532C323.489 337.985 319.293 332.942 316.814 327.041C314.335 321.14 313.685 314.645 314.946 308.38C316.208 302.114 319.323 296.358 323.9 291.84C328.476 287.322 334.307 284.245 340.655 282.998C347.003 281.751 353.584 282.39 359.564 284.834C365.545 287.278 370.657 291.417 374.253 296.729C377.849 302.04 379.769 308.285 379.769 314.673C379.762 323.234 376.314 331.443 370.181 337.498C364.048 343.553 355.732 346.959 347.057 346.969ZM347.057 284.871C341.084 284.869 335.244 286.615 330.277 289.888C325.309 293.161 321.437 297.814 319.149 303.26C316.862 308.705 316.262 314.697 317.426 320.479C318.589 326.261 321.464 331.572 325.687 335.741C329.91 339.91 335.29 342.75 341.148 343.901C347.006 345.052 353.078 344.462 358.597 342.207C364.115 339.952 368.832 336.132 372.151 331.231C375.47 326.33 377.241 320.567 377.241 314.673C377.234 306.773 374.052 299.199 368.394 293.612C362.735 288.025 355.061 284.881 347.057 284.871Z" fill="black"/>
<path opacity="0.2" d="M356.727 324.228C362.073 318.952 362.073 310.398 356.727 305.122C351.381 299.846 342.713 299.846 337.367 305.122C332.021 310.398 332.021 318.952 337.367 324.228C342.713 329.504 351.381 329.504 356.727 324.228Z" fill="black"/>
<path d="M241.424 134.529C244.47 141.502 247.618 148.563 250.803 155.511C253.988 162.459 257.249 169.395 260.738 176.019C261.635 177.641 262.495 179.325 263.43 180.859L264.113 182.032L264.467 182.618C264.431 182.57 264.389 182.528 264.34 182.493C264.189 182.406 264.34 182.581 264.644 182.793C265.804 183.409 267.06 183.831 268.36 184.04C270.032 184.348 271.72 184.564 273.416 184.689C276.993 184.926 280.772 184.926 284.564 184.814L290.303 184.577L296.016 184.202L297.495 190.988C289.688 193.562 281.587 195.162 273.378 195.754C271.163 195.894 268.941 195.874 266.729 195.691C264.12 195.517 261.557 194.919 259.145 193.92C257.475 193.199 255.973 192.146 254.734 190.826C254.363 190.435 254.021 190.018 253.71 189.579L253.268 188.93L252.408 187.683C251.207 185.961 250.196 184.24 249.109 182.506C245.014 175.583 241.348 168.572 237.91 161.499C234.472 154.426 231.274 147.29 228.266 139.968L241.424 134.529Z" fill="#7F3E3B"/>
<path d="M224.638 133.581C221.769 141.864 238.63 166.226 238.63 166.226L254.784 157.395C252.041 149.794 248.803 142.377 245.089 135.19C239.389 124.649 227.785 124.487 224.638 133.581Z" fill="#407BFF"/>
<path opacity="0.5" d="M224.638 133.581C221.769 141.864 238.63 166.226 238.63 166.226L254.784 157.395C252.041 149.794 248.803 142.377 245.089 135.19C239.389 124.649 227.785 124.487 224.638 133.581Z" fill="white"/>
<path d="M224.398 134.616C228.013 132.907 232.184 134.342 236.558 141.178C240.931 148.014 244.673 159.428 245.09 162.684L238.631 166.214C238.631 166.214 223.058 143.71 224.398 134.616Z" fill="#407BFF"/>
<path opacity="0.4" d="M224.398 134.616C228.013 132.907 232.184 134.342 236.558 141.178C240.931 148.014 244.673 159.428 245.09 162.684L238.631 166.214C238.631 166.214 223.058 143.71 224.398 134.616Z" fill="white"/>
<path d="M235.546 127.244C235.546 127.244 247.579 155.174 238.896 207.18H188.791C188.171 199.583 191.711 162.547 183.027 126.77C188.536 125.711 194.11 125.011 199.712 124.674C206.805 124.275 213.916 124.275 221.01 124.674C225.915 125.163 230.774 126.023 235.546 127.244Z" fill="#407BFF"/>
<path opacity="0.5" d="M235.546 127.244C235.546 127.244 247.579 155.174 238.896 207.18H188.791C188.171 199.583 191.711 162.547 183.027 126.77C188.536 125.711 194.11 125.011 199.712 124.674C206.805 124.275 213.916 124.275 221.01 124.674C225.915 125.163 230.774 126.023 235.546 127.244Z" fill="white"/>
<path d="M194.226 135.602C195.263 141.489 193.885 155.561 188.766 171.852C188.365 157.894 186.72 143.998 183.849 130.325V130.25C187.135 129.926 193.228 130.075 194.226 135.602Z" fill="#407BFF"/>
<path opacity="0.4" d="M194.226 135.602C195.263 141.489 193.885 155.561 188.766 171.852C188.365 157.894 186.72 143.998 183.849 130.325V130.25C187.135 129.926 193.228 130.075 194.226 135.602Z" fill="white"/>
<path d="M171.032 428.764L178.464 435.326L192.608 420.793L185.176 414.231L171.032 428.764Z" fill="#7F3E3B"/>
<path d="M180.512 432.694L171.487 426.731C171.339 426.616 171.157 426.553 170.969 426.553C170.78 426.553 170.598 426.616 170.45 426.731L163.549 433.604C163.414 433.755 163.315 433.934 163.258 434.127C163.201 434.32 163.187 434.523 163.219 434.722C163.25 434.921 163.325 435.11 163.439 435.277C163.553 435.444 163.703 435.584 163.877 435.688C169.641 440.066 173.8 443.372 177.086 447.014C180.878 451.268 182.926 451.88 191.774 451.88C195.869 451.88 198.182 448.474 196.514 447.95C181.776 443.347 185.719 441.339 182.13 434.59C181.766 433.83 181.208 433.177 180.512 432.694Z" fill="#263238"/>
<path d="M192.596 420.793L185.315 428.29L177.883 421.716L185.163 414.231L192.596 420.793Z" fill="#5E2B2B"/>
<path d="M197.702 421.005H207.069L206.437 432.045H197.07L197.702 421.005Z" fill="#5E2B2B"/>
<path d="M238.896 207.18C238.896 207.18 248.768 274.617 252.13 311.317C254.835 340.769 190.308 428.577 190.308 428.577L177.832 416.988C177.832 416.988 224.954 338.262 221.326 305.479C217.825 273.731 205.905 207.143 205.905 207.143L238.896 207.18Z" fill="#407BFF"/>
<path opacity="0.5" d="M238.896 207.18C238.896 207.18 248.768 274.617 252.13 311.317C254.835 340.769 190.308 428.577 190.308 428.577L177.832 416.988C177.832 416.988 224.954 338.262 221.326 305.479C217.825 273.731 205.905 207.143 205.905 207.143L238.896 207.18Z" fill="black"/>
<path d="M196.476 442.411H205.855L207.068 421.005H197.702L196.476 442.411Z" fill="#7F3E3B"/>
<path d="M206.348 441.351H195.819C195.643 441.344 195.472 441.406 195.342 441.522C195.212 441.639 195.133 441.802 195.123 441.975L194.605 450.195C194.604 450.41 194.645 450.623 194.726 450.822C194.808 451.021 194.929 451.202 195.081 451.355C195.234 451.508 195.415 451.629 195.616 451.713C195.816 451.797 196.031 451.84 196.248 451.842C199.914 451.78 201.671 451.568 206.36 451.568C209.204 451.568 221.314 451.867 225.257 451.867C229.201 451.867 229.049 448.025 227.406 447.676C219.936 446.116 210.671 443.933 208.016 441.912C207.542 441.542 206.953 441.344 206.348 441.351Z" fill="#263238"/>
<path d="M294.044 184.626L302.652 181.258L304.75 189.99C304.75 189.99 294.929 192.885 293.374 190.09L294.044 184.626Z" fill="#7F3E3B"/>
<path d="M309.945 183.017L312.473 187.795L304.75 189.966L302.652 181.258L309.945 183.017Z" fill="#7F3E3B"/>
<path d="M223.083 124.849L221.036 124.637C213.942 124.237 206.831 124.237 199.737 124.637L198.473 124.711L198.587 125.048C198.688 125.31 201.039 131.485 214.526 131.485C220.404 131.485 223.475 130.525 224.183 128.441C224.327 127.8 224.302 127.132 224.11 126.503C223.917 125.874 223.564 125.304 223.083 124.849Z" fill="#E6E6E6"/>
<path d="M200.976 100.997C202.556 107.759 204.338 120.158 199.712 124.699C199.712 124.699 201.709 130.3 214.45 130.3C228.455 130.3 221.01 124.699 221.01 124.699C213.3 122.903 213.313 117.301 214.45 112.05L200.976 100.997Z" fill="#7F3E3B"/>
<path d="M206.5 105.501L214.475 112.013C214.188 113.242 214.011 114.495 213.945 115.755C211.012 115.343 206.891 112.175 206.474 109.156C206.251 107.947 206.26 106.707 206.5 105.501Z" fill="#5E2B2B"/>
<path d="M220.998 80.8762C225.257 83.5956 225.864 96.6688 219.633 98.54C213.401 100.411 212.933 75.7367 220.998 80.8762Z" fill="#263238"/>
<path d="M198.018 93.912C200.875 102.644 202.088 107.921 207.852 111.501C209.712 112.68 211.862 113.336 214.072 113.396C216.281 113.456 218.465 112.919 220.388 111.842C222.31 110.766 223.898 109.191 224.979 107.289C226.06 105.386 226.593 103.228 226.521 101.047C226.408 92.6521 221.756 79.7286 211.96 78.1069C209.849 77.7047 207.668 77.8569 205.635 78.5484C203.602 79.2398 201.789 80.4462 200.377 82.0468C198.965 83.6473 198.004 85.5858 197.59 87.6682C197.176 89.7505 197.324 91.9037 198.018 93.912Z" fill="#7F3E3B"/>
<path d="M187.805 85.6914C190.864 91.1677 198.549 103.642 202.24 102.395C205.931 101.147 205.943 91.1677 201.203 84.8431C201.203 84.8431 238.757 88.5855 239.515 67.5286C240.286 45.9852 222.198 66.83 206.285 72.8552C188.968 79.4666 180.613 72.8053 187.805 85.6914Z" fill="#263238"/>
<path d="M189.41 78.0569C189.339 78.0425 189.275 78.0043 189.228 77.9486C189.182 77.8929 189.157 77.8232 189.157 77.7512C189.157 77.6793 189.182 77.6096 189.228 77.5539C189.275 77.4982 189.339 77.4599 189.41 77.4456C189.979 77.3209 190.598 77.2086 191.268 77.0839C196.304 76.2727 201.214 74.8306 205.88 72.7926C210.62 70.6969 215.588 67.1043 219.986 63.9358C222.781 61.8303 225.692 59.8813 228.708 58.0977C228.782 58.061 228.868 58.0535 228.948 58.0766C229.027 58.0998 229.095 58.1519 229.138 58.2225C229.158 58.2585 229.17 58.298 229.175 58.3389C229.179 58.3797 229.176 58.421 229.164 58.4604C229.152 58.4999 229.133 58.5366 229.106 58.5685C229.08 58.6005 229.048 58.627 229.011 58.6466C226.017 60.4179 223.126 62.3546 220.353 64.4472C215.942 67.6282 210.936 71.2333 206.133 73.3665C201.427 75.4235 196.474 76.8781 191.395 77.6951C190.725 77.8198 190.131 77.9321 189.537 78.0569H189.41Z" fill="#263238"/>
<path d="M196.451 104.578C198.146 106.204 200.407 107.127 202.771 107.16C205.905 107.16 206.563 104.241 204.882 101.796C203.39 99.6004 199.977 96.9558 197.222 98.1408C194.466 99.3259 194.378 102.569 196.451 104.578Z" fill="#7F3E3B"/>
<path opacity="0.2" d="M221.339 305.517C219.532 289.163 215.487 263.54 212.011 242.558C213.831 239.04 218.938 231.917 218.938 231.917C223.513 247.523 233.461 306.352 219.266 385.802C204.477 409.329 190.321 428.615 190.321 428.615L188.336 398.277C202.05 372.904 223.854 328.183 221.339 305.517Z" fill="black"/>
<path d="M212.415 93.4253C212.605 94.1489 213.148 94.6728 213.679 94.548C214.21 94.4233 214.4 93.7621 214.21 93.0386C214.02 92.3151 213.477 91.7912 212.946 91.9284C212.415 92.0656 212.225 92.7018 212.415 93.4253Z" fill="#263238"/>
<path d="M220.757 91.6167C220.947 92.3402 221.491 92.8642 222.021 92.7394C222.552 92.6147 222.742 91.966 222.552 91.2425C222.363 90.519 221.832 89.995 221.288 90.1198C220.745 90.2445 220.568 90.8932 220.757 91.6167Z" fill="#263238"/>
<path d="M218.204 92.5523C219.661 94.5759 221.382 96.4005 223.323 97.9787C222.901 98.4416 222.381 98.8077 221.8 99.0512C221.22 99.2948 220.592 99.4098 219.961 99.3883L218.204 92.5523Z" fill="#630F0F"/>
<path d="M216.776 102.02C215.236 102.036 213.743 101.504 212.567 100.524C212.546 100.504 212.529 100.48 212.518 100.454C212.506 100.428 212.5 100.4 212.499 100.372C212.499 100.344 212.504 100.315 212.514 100.289C212.525 100.263 212.541 100.238 212.56 100.218C212.58 100.197 212.604 100.181 212.631 100.17C212.657 100.158 212.685 100.152 212.714 100.152C212.743 100.151 212.771 100.156 212.798 100.166C212.825 100.177 212.849 100.192 212.87 100.212C213.61 100.805 214.477 101.226 215.405 101.442C216.333 101.658 217.299 101.664 218.23 101.459C218.258 101.453 218.287 101.452 218.316 101.456C218.344 101.461 218.372 101.471 218.396 101.486C218.421 101.501 218.442 101.521 218.459 101.544C218.476 101.567 218.488 101.593 218.495 101.621C218.502 101.649 218.503 101.678 218.498 101.706C218.493 101.735 218.483 101.762 218.468 101.786C218.452 101.81 218.433 101.831 218.409 101.848C218.385 101.865 218.359 101.877 218.331 101.883C217.819 101.986 217.298 102.032 216.776 102.02Z" fill="#263238"/>
<path d="M209.103 91.3423C209.045 91.354 208.985 91.354 208.926 91.3423C208.872 91.3206 208.823 91.2883 208.782 91.2473C208.741 91.2063 208.709 91.1574 208.687 91.1037C208.666 91.05 208.656 90.9926 208.658 90.9349C208.66 90.8773 208.674 90.8206 208.699 90.7685C208.969 90.1364 209.39 89.5788 209.928 89.1441C210.465 88.7093 211.102 88.4105 211.783 88.2736C211.899 88.2622 212.016 88.2944 212.11 88.3636C212.203 88.4329 212.267 88.5343 212.289 88.6478C212.298 88.7052 212.295 88.7638 212.28 88.8202C212.266 88.8765 212.241 88.9295 212.205 88.9759C212.17 89.0224 212.126 89.0614 212.075 89.0908C212.024 89.1201 211.968 89.1391 211.909 89.1468C211.375 89.2657 210.877 89.5105 210.459 89.8602C210.041 90.2099 209.714 90.6542 209.508 91.1552C209.464 91.2199 209.403 91.2717 209.332 91.3047C209.261 91.3377 209.182 91.3507 209.103 91.3423Z" fill="#263238"/>
<path d="M223.576 88.0363C223.511 88.0368 223.446 88.0224 223.387 87.9943C223.328 87.9662 223.276 87.9251 223.235 87.8741C222.879 87.4377 222.429 87.0855 221.917 86.8437C221.405 86.6019 220.845 86.4766 220.277 86.477C220.161 86.4841 220.046 86.4466 219.956 86.3723C219.867 86.298 219.81 86.1925 219.797 86.0778C219.79 85.9627 219.828 85.8492 219.903 85.7609C219.978 85.6727 220.085 85.6164 220.202 85.6038C220.912 85.5895 221.616 85.7362 222.261 86.0324C222.905 86.3287 223.472 86.7667 223.918 87.3128C223.992 87.4044 224.026 87.5208 224.015 87.6373C224.003 87.7538 223.945 87.8612 223.854 87.9365C223.776 88.0003 223.678 88.0355 223.576 88.0363Z" fill="#263238"/>
<path d="M189.524 176.842C187.007 176.005 184.59 174.897 182.319 173.536C181.825 173.226 181.367 172.862 180.954 172.451C181.536 169.769 182.294 167.075 183.116 164.368C183.937 161.661 184.948 158.891 185.998 156.159C187.047 153.428 188.159 150.708 189.322 148.014C189.903 146.666 190.497 145.319 191.104 143.984L192.924 140.105L180.284 133.718C179.45 135.277 178.767 136.649 178.085 138.134C177.402 139.618 176.821 141.053 176.138 142.525C174.891 145.485 173.754 148.484 172.726 151.519C170.583 157.716 169.08 164.11 168.238 170.605V170.942V171.59C168.207 172.039 168.207 172.489 168.238 172.938C168.289 173.843 168.451 174.74 168.719 175.607C169.217 177.137 170.025 178.55 171.095 179.761C172.668 181.452 174.556 182.829 176.657 183.815C179.892 185.321 183.312 186.403 186.832 187.034C193.241 188.236 199.764 188.738 206.285 188.531L206.866 181.607C200.997 180.35 195.207 178.759 189.524 176.842Z" fill="#7F3E3B"/>
<path d="M209.672 442.948C208.82 442.928 207.973 442.82 207.144 442.623C207.106 442.61 207.071 442.589 207.043 442.561C207.015 442.533 206.993 442.499 206.98 442.461C206.974 442.421 206.979 442.381 206.995 442.343C207.01 442.306 207.036 442.273 207.068 442.249C207.372 442.037 210.026 440.253 211.164 440.702C211.293 440.751 211.407 440.832 211.495 440.937C211.584 441.042 211.644 441.167 211.669 441.301C211.725 441.502 211.728 441.713 211.68 441.916C211.631 442.119 211.532 442.306 211.391 442.461C210.897 442.825 210.286 442.998 209.672 442.948ZM207.751 442.324C209.432 442.648 210.683 442.599 211.126 442.174C211.217 442.067 211.278 441.938 211.305 441.801C211.331 441.663 211.322 441.521 211.277 441.388C211.266 441.323 211.238 441.261 211.196 441.209C211.154 441.156 211.099 441.115 211.037 441.089C210.367 440.827 208.699 441.7 207.751 442.324Z" fill="#407BFF"/>
<path d="M207.22 442.623C207.187 442.635 207.152 442.635 207.119 442.623C207.087 442.608 207.06 442.586 207.04 442.557C207.02 442.529 207.008 442.496 207.005 442.461C207.005 442.349 206.79 439.692 207.738 438.794C207.857 438.679 208 438.592 208.158 438.54C208.316 438.488 208.484 438.472 208.648 438.494C208.833 438.501 209.011 438.569 209.153 438.686C209.295 438.804 209.393 438.964 209.432 439.143C209.647 440.154 208.257 442.075 207.321 442.623H207.22ZM208.484 438.881C208.397 438.88 208.311 438.895 208.231 438.928C208.151 438.96 208.078 439.008 208.016 439.068C207.496 439.963 207.279 440.999 207.397 442.025C208.168 441.376 209.167 439.904 209.015 439.205C209.015 439.068 208.914 438.919 208.585 438.881H208.484Z" fill="#407BFF"/>
<path d="M186.592 437.696C184.92 437.443 183.324 436.834 181.915 435.912C181.873 435.893 181.84 435.86 181.822 435.819C181.803 435.777 181.8 435.731 181.814 435.688C181.826 435.645 181.85 435.607 181.884 435.578C181.918 435.55 181.959 435.531 182.003 435.525C182.509 435.525 186.946 435.201 187.78 436.199C187.854 436.28 187.906 436.38 187.931 436.487C187.955 436.594 187.951 436.705 187.919 436.81C187.88 436.982 187.8 437.141 187.686 437.276C187.571 437.411 187.426 437.516 187.262 437.584C187.047 437.66 186.82 437.698 186.592 437.696ZM182.736 435.9C184.771 437.01 186.377 437.496 187.097 437.147C187.201 437.105 187.294 437.039 187.366 436.955C187.439 436.87 187.49 436.769 187.514 436.661C187.537 436.623 187.548 436.58 187.548 436.536C187.548 436.492 187.537 436.449 187.514 436.411C186.996 435.912 184.544 435.825 182.736 435.9Z" fill="#407BFF"/>
<path d="M182.016 435.95C181.98 435.949 181.946 435.939 181.915 435.922C181.884 435.904 181.858 435.88 181.839 435.85C181.823 435.819 181.815 435.785 181.815 435.75C181.815 435.715 181.823 435.681 181.839 435.65C181.915 435.501 183.596 432.12 185.757 433.155C186.351 433.442 186.402 433.779 186.351 434.016C186.137 435.027 183.331 435.937 182.041 435.975L182.016 435.95ZM184.936 433.367C183.773 433.367 182.774 434.827 182.408 435.501C183.76 435.338 185.833 434.503 185.96 433.904C185.96 433.779 185.859 433.642 185.58 433.505C185.38 433.408 185.159 433.361 184.936 433.367Z" fill="#407BFF"/>
<path d="M205.413 181.508L213.11 179.424L214.159 189.017C214.159 189.017 206.575 191.263 204.692 187.333L205.413 181.508Z" fill="#7F3E3B"/>
<path d="M205.261 181.707C206.873 179.982 207.817 177.752 207.928 175.408L209.9 176.468C209.9 176.468 210.292 180.772 209.52 182.007C208.749 183.242 205.261 181.707 205.261 181.707Z" fill="#7F3E3B"/>
<path d="M216.713 180.372L216.245 189.017H214.159L213.098 179.424L216.713 180.372Z" fill="#7F3E3B"/>
<path d="M177.086 416.327L191.079 429.325L195.591 424.548L179.576 410.152L177.086 416.327Z" fill="#407BFF"/>
<path opacity="0.1" d="M177.086 416.327L191.079 429.325L195.591 424.548L179.576 410.152L177.086 416.327Z" fill="black"/>
<path d="M221.086 207.18C221.086 207.18 221.971 277.848 220.454 304.331C218.798 333.322 210.456 429.388 210.456 429.388H193.291C193.291 429.388 193.809 335.667 192.773 306.963C191.648 275.777 188.741 207.168 188.741 207.168L221.086 207.18Z" fill="#407BFF"/>
<path opacity="0.5" d="M221.086 207.18C221.086 207.18 221.971 277.848 220.454 304.331C218.798 333.322 210.456 429.388 210.456 429.388H193.291C193.291 429.388 193.809 335.667 192.773 306.963C191.648 275.777 188.741 207.168 188.741 207.168L221.086 207.18Z" fill="black"/>
<path d="M192.608 429.388H211.151L212.175 422.951L191.711 423.962L192.608 429.388Z" fill="#407BFF"/>
<path opacity="0.1" d="M192.608 429.388H211.151L212.175 422.951L191.711 423.962L192.608 429.388Z" fill="black"/>
<path d="M183.027 126.77C174.179 128.017 165.116 160.089 165.116 160.089L186.44 168.098C186.44 168.098 191.799 154.376 195.465 143.61C199.307 132.396 192.494 125.398 183.027 126.77Z" fill="#407BFF"/>
<path opacity="0.5" d="M183.027 126.77C174.179 128.017 165.116 160.089 165.116 160.089L186.44 168.098C186.44 168.098 191.799 154.376 195.465 143.61C199.307 132.396 192.494 125.398 183.027 126.77Z" fill="white"/>
</svg>
