<svg width="51" height="68" viewBox="0 0 51 68" fill="none" xmlns="http://www.w3.org/2000/svg">
<path d="M48.187 62.794L47.001 63.45L2.52289 39.6048L3.71386 38.9489L48.187 62.794Z" fill="#FAFAFA"/>
<path d="M3.71346 38.949L47.0006 62.1611V28.2053L3.71346 5.00235V38.949Z" fill="white"/>
<path d="M0.279846 40.8021L49.244 67.0465V27.0078L0.279846 0.763412V40.8021ZM2.52285 4.35992L47.001 28.2143V63.4545L2.52285 39.6002V4.35992Z" fill="#F0F0F0"/>
<path d="M2.52289 39.605L3.71386 38.949V5.00243L2.52289 4.3602V39.605Z" fill="#E0E0E0"/>
<path d="M0.279846 0.762889L1.48571 0.125244L50.4498 26.3696L49.244 27.0073L0.279846 0.762889Z" fill="#FAFAFA"/>
<path d="M50.4496 26.3701L49.2437 27.0077V67.0464L50.4496 66.4041V26.3701Z" fill="#E0E0E0"/>
</svg>
