<svg width="51" height="68" viewBox="0 0 51 68" fill="none" xmlns="http://www.w3.org/2000/svg">
<path d="M2.92896 62.7939L4.11993 63.4499L48.5931 39.6047L47.4071 38.9487L2.92896 62.7939Z" fill="#FAFAFA"/>
<path d="M47.4069 38.9488L4.11978 62.161V28.2052L47.4069 5.00224V38.9488Z" fill="white"/>
<path d="M50.8409 0.76329L1.87674 27.0077V67.0463L50.8409 40.8019V0.76329ZM48.5929 39.6L4.11975 63.4544V28.205L48.5929 4.35062V39.6Z" fill="#F0F0F0"/>
<path d="M48.593 39.6049L47.407 38.9489V5.00231L48.593 4.36008V39.6049Z" fill="#E0E0E0"/>
<path d="M50.8408 0.762767L49.63 0.125122L0.665833 26.3695L1.87666 27.0072L50.8408 0.762767Z" fill="#FAFAFA"/>
<path d="M0.665894 26.37L1.87672 27.0076V67.0462L0.665894 66.404V26.37Z" fill="#E0E0E0"/>
</svg>
